<svg width="14" height="12" viewBox="0 0 14 12" fill="none" xmlns="http://www.w3.org/2000/svg">
<path d="M6.59577 0.489073C6.81293 -0.163024 7.7585 -0.163024 7.97567 0.489072L8.99591 3.55259C9.09303 3.84422 9.37158 4.04166 9.68587 4.04166H12.9874C13.6902 4.04166 13.9824 4.91905 13.4139 5.32207L10.7428 7.21543C10.4886 7.39566 10.3822 7.71514 10.4793 8.00676L11.4995 11.0703C11.7167 11.7224 10.9517 12.2646 10.3832 11.8616L7.71213 9.96826C7.45787 9.78802 7.11357 9.78802 6.8593 9.96826L4.18828 11.8616C3.61972 12.2646 2.85474 11.7224 3.07191 11.0703L4.09215 8.00676C4.18927 7.71514 4.08288 7.39566 3.82861 7.21543L1.15758 5.32207C0.589031 4.91905 0.881227 4.04166 1.584 4.04166H4.88557C5.19986 4.04166 5.4784 3.84422 5.57552 3.55259L6.59577 0.489073Z" fill="#FFAC70"/>
</svg>
