<?xml version="1.0" standalone="no"?>
<!DOCTYPE svg PUBLIC "-//W3C//DTD SVG 1.1//EN" "http://www.w3.org/Graphics/SVG/1.1/DTD/svg11.dtd" >
<svg xmlns="http://www.w3.org/2000/svg" xmlns:xlink="http://www.w3.org/1999/xlink" version="1.1">
<metadata>
Created by FontForge 20170731 at Thu May 12 01:39:01 2016
 By Aleksey,,,
(c) 2015 Apple Inc. All rights reserved.
</metadata>
<defs>
<font id="SFUIDisplay-Semibold" horiz-adv-x="1694" >
  <font-face 
    font-family="SF UI Display"
    font-weight="600"
    font-stretch="normal"
    units-per-em="2048"
    panose-1="0 0 7 0 0 0 0 0 0 0"
    ascent="1638"
    descent="-410"
    x-height="1093"
    cap-height="1443"
    bbox="-554 -572 2613 2221"
    underline-thickness="165"
    underline-position="-536"
    unicode-range="U+0020-1F189"
  />
<missing-glyph horiz-adv-x="2048" 
d="M100 -494v234h1848v-234h-1848zM100 -52v234h1848v-234h-1848zM100 390v234h1848v-234h-1848zM100 832v234h1848v-234h-1848zM100 1274v234h1848v-234h-1848zM100 1716v234h1848v-234h-1848z" />
    <glyph glyph-name=".notdef" horiz-adv-x="2048" 
d="M100 -494v234h1848v-234h-1848zM100 -52v234h1848v-234h-1848zM100 390v234h1848v-234h-1848zM100 832v234h1848v-234h-1848zM100 1274v234h1848v-234h-1848zM100 1716v234h1848v-234h-1848z" />
    <glyph glyph-name=".null" horiz-adv-x="0" 
 />
    <glyph glyph-name="nonmarkingreturn" horiz-adv-x="0" 
 />
    <glyph glyph-name="space" unicode=" " horiz-adv-x="458" 
 />
    <glyph glyph-name="exclam" unicode="!" horiz-adv-x="611" 
d="M177 1443h257l-20 -967h-217zM305 -20q-61 0 -103 41.5t-42 100.5t42 100t103 41t103.5 -41t42.5 -100t-42.5 -100.5t-103.5 -41.5z" />
    <glyph glyph-name="quotedbl" unicode="&#x22;" horiz-adv-x="884" 
d="M335 900h-217v543h217v-543zM766 900h-217v543h217v-543z" />
    <glyph glyph-name="numbersign" unicode="#" horiz-adv-x="1247" 
d="M1207 876h-225l-59 -291h213l-36 -190h-215l-79 -395h-194l80 395h-261l-80 -395h-192l79 395h-210l37 190h212l58 291h-202l37 187h202l78 380h192l-75 -380h260l77 380h193l-76 -380h222zM521 887l-64 -315h279l65 315h-280z" />
    <glyph glyph-name="dollar" unicode="$" horiz-adv-x="1294" 
d="M721 -137h-138v130q-224 14 -354 124.5t-131 287.5h244q7 -86 71.5 -142.5t169.5 -68.5v437l-96 24q-174 42 -265.5 142t-91.5 250q0 177 120 286.5t333 128.5v138h138v-138q202 -18 323.5 -129.5t125.5 -280.5h-239q-2 80 -60.5 137t-149.5 69v-415l99 -21
q190 -45 283 -143t93 -256q0 -187 -124 -298.5t-351 -129.5v-132zM953 397q0 83 -56.5 133.5t-175.5 74.5v-413q110 7 171 61t61 144zM376 1067q0 -75 53 -124.5t154 -70.5v387q-90 -5 -148.5 -59t-58.5 -133z" />
    <glyph glyph-name="percent" unicode="%" horiz-adv-x="1607" 
d="M1560 350q0 -169 -86.5 -269t-232.5 -100t-232.5 100t-86.5 269q0 168 86.5 267.5t232.5 99.5q147 0 233 -99.5t86 -267.5zM1241 137q55 0 87 57t32 156q0 100 -31 155.5t-88 55.5q-55 0 -86.5 -56.5t-31.5 -154.5t31.5 -155.5t86.5 -57.5zM386 0h-218l1055 1443h216z
M685 1098q0 -169 -86.5 -269t-232.5 -100t-232.5 100t-86.5 269q0 168 86.5 267.5t232.5 99.5q147 0 233 -99.5t86 -267.5zM366 885q55 0 87 57t32 156q0 100 -31 155.5t-88 55.5q-55 0 -86.5 -56.5t-31.5 -154.5t31.5 -155.5t86.5 -57.5z" />
    <glyph glyph-name="ampersand" unicode="&#x26;" horiz-adv-x="1413" 
d="M1141 0l-120 129q-85 -73 -203 -113.5t-249 -40.5q-223 0 -359.5 111.5t-136.5 293.5q0 125 66.5 219.5t206.5 170.5q8 4 22.5 12t25.5 13.5l13 6.5q-97 102 -138 177.5t-41 154.5q0 142 112 236t281 94q170 0 279 -92t109 -235q0 -111 -71.5 -200.5t-226.5 -172.5
l304 -329q58 104 58 313v64h216v-75q0 -285 -121 -460l263 -277h-290zM485 643q-93 -58 -133.5 -114.5t-40.5 -129.5q0 -105 78 -170t205 -65q85 0 164.5 30.5t126.5 82.5l-358 389q-26 -11 -42 -23zM590 887q109 56 156.5 110.5t47.5 124.5q0 74 -48 120.5t-124 46.5
t-124.5 -47.5t-48.5 -120.5q0 -53 31.5 -105.5t109.5 -128.5z" />
    <glyph glyph-name="quotesingle" unicode="'" horiz-adv-x="453" 
d="M335 900h-217v543h217v-543z" />
    <glyph glyph-name="parenleft" unicode="(" horiz-adv-x="683" 
d="M649 -277h-231q-53 67 -98 148.5t-85.5 190t-63.5 247t-23 290.5q0 154 21.5 282.5t63.5 230t87 176t108 154.5h224q-42 -48 -83 -125t-79 -182t-62 -245.5t-24 -288.5q0 -147 20.5 -279t60 -242.5t76 -188t88.5 -168.5z" />
    <glyph glyph-name="parenright" unicode=")" horiz-adv-x="683" 
d="M33 -277q52 91 88.5 168t76.5 188t60.5 243t20.5 279q0 194 -42 374t-95 290t-111 177h224q63 -81 108 -155t87 -176t63.5 -230.5t21.5 -281.5q0 -152 -23.5 -291t-64 -247t-85.5 -190t-98 -148h-231z" />
    <glyph glyph-name="asterisk" unicode="*" horiz-adv-x="992" 
d="M789 850l-236 172l31 -289h-176l31 290l-237 -173l-86 153l266 118l-266 118l86 154l238 -176l-32 294h176l-32 -294l237 176l87 -154l-266 -118l266 -118z" />
    <glyph glyph-name="plus" unicode="+" horiz-adv-x="1294" 
d="M759 464v-444h-225v444h-415v222h415v437h225v-437h416v-222h-416z" />
    <glyph glyph-name="comma" unicode="," horiz-adv-x="551" 
d="M280 -266h-190l89 511h242z" />
    <glyph glyph-name="hyphen" unicode="&#x2011;" horiz-adv-x="895" 
d="M776 464h-657v222h657v-222z" />
    <glyph glyph-name="hyphen" unicode="-" horiz-adv-x="895" 
d="M776 464h-657v222h657v-222z" />
    <glyph glyph-name="period" unicode="." horiz-adv-x="551" 
d="M276 -11q-61 0 -102.5 41.5t-41.5 102.5t41.5 102.5t102.5 41.5q60 0 101.5 -41.5t41.5 -102.5t-41.5 -102.5t-101.5 -41.5z" />
    <glyph glyph-name="slash" unicode="/" horiz-adv-x="651" 
d="M223 -306h-223l424 1750h227z" />
    <glyph glyph-name="zero" unicode="0" horiz-adv-x="1300" 
d="M651 -29q-264 0 -414.5 201.5t-150.5 550.5q0 347 151 548t414 201t413 -200.5t150 -547.5q0 -348 -150 -550.5t-413 -202.5zM651 182q143 0 222.5 143t79.5 398q0 253 -80 395.5t-222 142.5t-223.5 -143t-81.5 -394q0 -255 80.5 -398.5t224.5 -143.5z" />
    <glyph glyph-name="one" unicode="1" horiz-adv-x="956" 
d="M471 0v1197h-6l-373 -262v243l377 265h255v-1443h-253z" />
    <glyph glyph-name="two" unicode="2" horiz-adv-x="1207" 
d="M93 1015q0 200 144 328.5t368 128.5q215 0 354.5 -117t139.5 -293q0 -121 -67.5 -228.5t-223.5 -264.5l-357 -353v-5h670v-211h-1014v174l531 528q123 126 166 197t43 152q0 90 -71.5 152t-178.5 62q-113 0 -187.5 -71t-74.5 -178v-4h-242v3z" />
    <glyph glyph-name="three" unicode="3" horiz-adv-x="1261" 
d="M438 643v194h174q111 0 180 61.5t69 158.5q0 96 -65.5 153t-184.5 57q-111 0 -181 -60.5t-78 -161.5h-240q11 195 149.5 311t361.5 116q214 0 350 -106t136 -274q0 -133 -81.5 -224.5t-216.5 -114.5v-6q163 -12 259.5 -105.5t96.5 -243.5q0 -190 -154.5 -308.5
t-392.5 -118.5q-236 0 -381 118.5t-155 312.5h246q9 -100 87 -160t205 -60q125 0 204 63t79 163q0 109 -77.5 172t-211.5 63h-178z" />
    <glyph glyph-name="four" unicode="4" horiz-adv-x="1295" 
d="M794 0v273h-720v222q178 336 599 948h367v-959h194v-211h-194v-273h-246zM308 485v-7h490v774h-4q-183 -265 -293 -438t-193 -329z" />
    <glyph glyph-name="five" unicode="5" horiz-adv-x="1250" 
d="M641 -29q-223 0 -370 121.5t-155 313.5h242q12 -100 91.5 -163t193.5 -63q129 0 209.5 81t80.5 209q0 130 -80.5 212.5t-207.5 82.5q-88 0 -160.5 -38t-112.5 -106h-234l75 822h884v-211h-680l-37 -422h6q45 70 130 110.5t191 40.5q207 0 341 -136.5t134 -347.5
q0 -225 -150.5 -365.5t-390.5 -140.5z" />
    <glyph glyph-name="six" unicode="6" horiz-adv-x="1284" 
d="M667 -30q-158 0 -281.5 74t-196.5 213q-103 179 -103 448q0 360 157 564t432 204q198 0 339 -107.5t173 -282.5h-256q-25 82 -95 131t-163 49q-162 0 -252 -144t-89 -404h5q46 107 151 171t240 64q206 0 342 -135.5t136 -340.5q0 -220 -152 -362t-387 -142zM665 181
q120 0 203.5 83t83.5 202q0 122 -80.5 202t-204.5 80t-206.5 -79.5t-82.5 -199.5q0 -121 83 -204.5t204 -83.5z" />
    <glyph glyph-name="seven" unicode="7" horiz-adv-x="1153" 
d="M185 0l633 1227v5h-750v211h1004v-215l-617 -1228h-270z" />
    <glyph glyph-name="eight" unicode="8" horiz-adv-x="1296" 
d="M648 -29q-250 0 -406 117t-156 302q0 140 90.5 241.5t237.5 129.5v5q-123 32 -197 120.5t-74 205.5q0 165 142.5 272.5t362.5 107.5q221 0 362.5 -107.5t141.5 -273.5q0 -116 -73.5 -204t-196.5 -121v-5q148 -29 238.5 -130.5t90.5 -240.5q0 -185 -157 -302t-406 -117z
M648 168q129 0 212 68t83 173q0 106 -82.5 174t-212.5 68q-129 0 -212 -68.5t-83 -173.5t83 -173t212 -68zM648 848q109 0 179 60.5t70 153.5q0 94 -70 154.5t-179 60.5q-110 0 -180 -60.5t-70 -154.5q0 -93 70 -153.5t180 -60.5z" />
    <glyph glyph-name="nine" unicode="9" horiz-adv-x="1286" 
d="M611 -29q-199 0 -340.5 108t-172.5 282h256q24 -82 95.5 -131.5t165.5 -49.5q161 0 250.5 144.5t86.5 404.5h-2h-1h-1q-43 -107 -147.5 -171.5t-243.5 -64.5q-206 0 -342.5 136t-136.5 341q0 219 152.5 361t386.5 142q159 0 283.5 -74t196.5 -212q103 -179 103 -449
q0 -361 -156 -564t-433 -203zM618 695q124 0 207 80t83 199q0 121 -83.5 204t-204.5 83t-204.5 -82t-83.5 -201q0 -122 81.5 -202.5t204.5 -80.5z" />
    <glyph glyph-name="colon" unicode=":" horiz-adv-x="551" 
d="M276 -11q-61 0 -102.5 41.5t-41.5 102.5t41.5 102.5t102.5 41.5q60 0 101.5 -41.5t41.5 -102.5t-41.5 -102.5t-101.5 -41.5zM276 711q-61 0 -102.5 42t-41.5 102q0 61 41.5 102.5t102.5 41.5q60 0 101.5 -41.5t41.5 -102.5q0 -60 -41.5 -102t-101.5 -42z" />
    <glyph glyph-name="semicolon" unicode=";" horiz-adv-x="551" 
d="M276 711q-61 0 -102.5 42t-41.5 102q0 61 41.5 102.5t102.5 41.5q60 0 101.5 -41.5t41.5 -102.5q0 -60 -41.5 -102t-101.5 -42zM247 -266h-189l87 511h244z" />
    <glyph glyph-name="less" unicode="&#x3c;" horiz-adv-x="1294" 
d="M1110 933l-675 -349v-10l675 -333v-253l-926 489v195l926 513v-252z" />
    <glyph glyph-name="equal" unicode="=" horiz-adv-x="1294" 
d="M1158 249h-1022v216h1022v-216zM1158 686h-1022v216h1022v-216z" />
    <glyph glyph-name="greater" unicode="&#x3e;" horiz-adv-x="1294" 
d="M184 934v252l926 -513v-195l-926 -489v252l675 334v10z" />
    <glyph glyph-name="question" unicode="?" horiz-adv-x="1060" 
d="M54 1048q6 182 128.5 294.5t339.5 112.5q204 0 330.5 -106t126.5 -272q0 -215 -212 -341q-98 -57 -133 -105t-35 -123v-58h-232l-1 71q-7 109 37.5 183t149.5 136q94 57 130 105.5t36 122.5q0 80 -58 131.5t-152 51.5q-96 0 -155 -55t-65 -148h-235zM486 -20
q-61 0 -103.5 41.5t-42.5 100.5t42.5 100t103.5 41t103 -41t42 -100t-42 -100.5t-103 -41.5z" />
    <glyph glyph-name="at" unicode="@" horiz-adv-x="1803" 
d="M892 853q-88 0 -136.5 -66t-48.5 -184q0 -116 49 -182.5t134 -66.5q89 0 141 67t52 182t-51.5 182.5t-139.5 67.5zM925 1444q234 0 417 -92t285.5 -261t102.5 -388q0 -239 -103.5 -381t-283.5 -142q-91 0 -156 44t-78 117h-12q-31 -76 -94.5 -116t-151.5 -40
q-156 0 -251.5 116.5t-95.5 307.5q0 182 94.5 296t246.5 114q81 0 145.5 -38t93.5 -103h12v120h183v-554q0 -52 26 -82t76 -30q81 0 131 97t50 266q0 272 -178 437t-468 165q-191 0 -342 -87.5t-235 -246t-84 -359.5q0 -159 51.5 -288t144 -214t220.5 -131t281 -46
q197 0 295 40v-148q-128 -41 -305 -41q-187 0 -344.5 57t-270.5 162.5t-176.5 263.5t-63.5 351q0 184 62 339.5t171.5 264t265.5 169.5t339 61z" />
    <glyph glyph-name="A" unicode="A" horiz-adv-x="1369" 
d="M1070 0l-123 373h-531l-123 -373h-266l512 1443h291l512 -1443h-272zM678 1188l-202 -616h410l-201 616h-7z" />
    <glyph glyph-name="B" unicode="B" horiz-adv-x="1296" 
d="M744 0h-617v1443h611q197 0 314 -98t117 -262q0 -116 -76 -206t-187 -108v-8q148 -14 241 -111t93 -240q0 -191 -132.5 -300.5t-363.5 -109.5zM385 1242v-407h248q135 0 208 54.5t73 155.5q0 94 -62.5 145.5t-177.5 51.5h-289zM385 201h300q142 0 216.5 58t74.5 169
q0 110 -76.5 167t-224.5 57h-290v-451z" />
    <glyph glyph-name="C" unicode="C" horiz-adv-x="1439" 
d="M749 -24q-310 0 -490.5 200t-180.5 546q0 344 181.5 544.5t489.5 200.5q252 0 425 -143.5t197 -375.5h-254q-25 136 -126.5 218t-241.5 82q-186 0 -296.5 -142.5t-110.5 -383.5q0 -243 110 -385t298 -142q143 0 240.5 73.5t127.5 203.5h253q-34 -232 -200 -364t-422 -132
z" />
    <glyph glyph-name="D" unicode="D" horiz-adv-x="1424" 
d="M127 1443h534q324 0 505 -188t181 -530q0 -343 -181 -534t-505 -191h-534v1443zM385 1225v-1007h249q218 0 334 130t116 376q0 242 -117 371.5t-333 129.5h-249z" />
    <glyph glyph-name="E" unicode="E" horiz-adv-x="1158" 
d="M1061 218v-218h-934v1443h934v-218h-676v-390h639v-205h-639v-412h676z" />
    <glyph glyph-name="F" unicode="F" horiz-adv-x="1107" 
d="M385 0h-258v1443h920v-218h-662v-426h605v-210h-605v-589z" />
    <glyph glyph-name="G" unicode="G" horiz-adv-x="1473" 
d="M1390 602q0 -294 -166.5 -460t-462.5 -166q-316 0 -499.5 201.5t-183.5 549.5q0 343 182.5 541.5t495.5 198.5q246 0 417 -133t206 -350h-262q-37 124 -132 194t-228 70q-195 0 -305 -137t-110 -381q0 -249 113.5 -392t308.5 -143q163 0 266.5 94t106.5 246l1 24h-348
v197h600v-154z" />
    <glyph glyph-name="H" unicode="H" horiz-adv-x="1471" 
d="M1344 0h-257v626h-702v-626h-258v1443h258v-600h702v600h257v-1443z" />
    <glyph glyph-name="I" unicode="I" horiz-adv-x="512" 
d="M385 0h-258v1443h258v-1443z" />
    <glyph glyph-name="J" unicode="J" horiz-adv-x="1096" 
d="M35 394h251q2 -89 58.5 -144t146.5 -55q104 0 158.5 61.5t54.5 178.5v1008h257v-1010q0 -220 -123.5 -342t-343.5 -122q-207 0 -333 116.5t-126 308.5z" />
    <glyph glyph-name="K" unicode="K" horiz-adv-x="1319" 
d="M385 0h-258v1443h258v-675h9l576 675h297l-556 -640l599 -803h-314l-469 630l-142 -166v-464z" />
    <glyph glyph-name="L" unicode="L" horiz-adv-x="1098" 
d="M1040 218v-218h-913v1443h258v-1225h655z" />
    <glyph glyph-name="M" unicode="M" horiz-adv-x="1744" 
d="M1616 0h-232v1024h-7l-417 -1012h-176l-417 1012h-7v-1024h-233v1443h299l442 -1089h8l442 1089h298v-1443z" />
    <glyph glyph-name="N" unicode="N" horiz-adv-x="1452" 
d="M376 0h-249v1443h224l716 -1011h9v1011h248v-1443h-222l-717 1012h-9v-1012z" />
    <glyph glyph-name="O" unicode="O" horiz-adv-x="1525" 
d="M763 1467q315 0 499.5 -201t184.5 -545t-184.5 -544.5t-499.5 -200.5q-316 0 -500.5 200.5t-184.5 544.5t184.5 545t500.5 201zM763 1247q-193 0 -307 -142t-114 -384q0 -241 114 -383t307 -142t307 142t114 383t-114 383.5t-307 142.5z" />
    <glyph glyph-name="P" unicode="P" horiz-adv-x="1255" 
d="M127 1443h582q215 0 350 -134t135 -349t-138 -349t-358 -134h-313v-477h-258v1443zM385 1232v-547h255q139 0 215.5 72t76.5 203q0 130 -76 201t-215 71h-256z" />
    <glyph glyph-name="Q" unicode="Q" horiz-adv-x="1525" 
d="M1391 -146h-260l-114 163q-113 -41 -254 -41q-316 0 -500.5 200t-184.5 545q0 344 184.5 545t500.5 201q315 0 499.5 -201t184.5 -545q0 -197 -62.5 -350t-179.5 -246zM763 194q60 0 121 18l-166 240h247l85 -116q134 136 134 385q0 242 -114 385t-307 143t-307 -143
t-114 -385t114 -384.5t307 -142.5z" />
    <glyph glyph-name="R" unicode="R" horiz-adv-x="1287" 
d="M385 1234v-493h298q123 0 190.5 65t67.5 182q0 114 -70.5 180t-193.5 66h-292zM385 543v-543h-258v1443h580q233 0 366 -120.5t133 -328.5q0 -145 -72 -255.5t-200 -156.5l315 -582h-295l-283 543h-286z" />
    <glyph glyph-name="S" unicode="S" horiz-adv-x="1265" 
d="M68 406h250q12 -99 102 -159.5t223 -60.5q130 0 212.5 58t82.5 148q0 78 -60 126.5t-196 80.5l-187 44q-199 46 -295.5 143t-96.5 252q0 191 150 310t387 119q238 0 383.5 -117.5t150.5 -308.5h-246q-9 101 -87 158.5t-203 57.5q-122 0 -197.5 -55t-75.5 -145
q0 -72 58.5 -117t191.5 -77l166 -38q219 -50 318 -146t99 -257q0 -205 -153.5 -325.5t-415.5 -120.5q-250 0 -401.5 115.5t-159.5 314.5z" />
    <glyph glyph-name="T" unicode="T" horiz-adv-x="1230" 
d="M744 0h-258v1225h-438v218h1134v-218h-438v-1225z" />
    <glyph glyph-name="U" unicode="U" horiz-adv-x="1441" 
d="M385 1443v-911q0 -150 88.5 -240.5t246.5 -90.5t247 90.5t89 240.5v911h257v-934q0 -239 -160.5 -386t-432.5 -147q-271 0 -432 147t-161 386v934h258z" />
    <glyph glyph-name="V" unicode="V" horiz-adv-x="1354" 
d="M825 0h-296l-502 1443h284l366 -1166h6l366 1166h278z" />
    <glyph glyph-name="W" unicode="W" horiz-adv-x="1946" 
d="M968 1044l-295 -1044h-243l-387 1443h268l250 -1093h8l290 1093h228l290 -1093h8l250 1093h268l-387 -1443h-243l-295 1044h-10z" />
    <glyph glyph-name="X" unicode="X" horiz-adv-x="1366" 
d="M44 0l470 723v7l-466 713h305l334 -542h8l338 542h289l-481 -719v-7l473 -717h-297l-340 530h-8l-344 -530h-281z" />
    <glyph glyph-name="Y" unicode="Y" horiz-adv-x="1323" 
d="M790 0h-257v569l-506 874h283l350 -628h6l349 628h281l-506 -874v-569z" />
    <glyph glyph-name="Z" unicode="Z" horiz-adv-x="1281" 
d="M92 0v172l766 1046v7h-745v218h1057v-172l-762 -1046v-7h781v-218h-1097z" />
    <glyph glyph-name="bracketleft" unicode="[" horiz-adv-x="722" 
d="M168 1444h530v-186h-290v-1312h303v-186h-543v1684z" />
    <glyph glyph-name="backslash" unicode="\" horiz-adv-x="651" 
d="M429 -306l-429 1750h227l424 -1750h-222z" />
    <glyph glyph-name="bracketright" unicode="]" horiz-adv-x="722" 
d="M553 1444v-1684h-542v186h304v1312h-291v186h529z" />
    <glyph glyph-name="asciicircum" unicode="^" horiz-adv-x="948" 
d="M465 1229l-196 -416h-221l310 617h234l308 -617h-225l-193 416h-17z" />
    <glyph glyph-name="underscore" unicode="_" horiz-adv-x="846" 
d="M895 -292h-944v185h944v-185z" />
    <glyph glyph-name="grave" unicode="`" horiz-adv-x="1008" 
d="M734 1258h-201l-262 307h246z" />
    <glyph glyph-name="a" unicode="a" horiz-adv-x="1116" 
d="M501 179q114 0 190 64t76 163v83l-250 -16q-208 -14 -208 -150q0 -66 52.5 -105t139.5 -39zM428 -12q-162 0 -265.5 90t-103.5 235q0 146 108.5 228t315.5 95l284 17v80q0 86 -55.5 132.5t-156.5 46.5q-84 0 -141 -40t-70 -107h-230q5 150 130.5 246.5t318.5 96.5
q205 0 327.5 -98t122.5 -261v-749h-239v176h-6q-45 -87 -137.5 -137.5t-202.5 -50.5z" />
    <glyph glyph-name="b" unicode="b" horiz-adv-x="1223" 
d="M710 -12q-119 0 -209 51.5t-138 146.5h-6v-186h-243v1510h249v-601h6q47 93 136.5 144.5t205.5 51.5q207 0 329.5 -151t122.5 -408q0 -256 -122.5 -407t-330.5 -151zM636 898q-123 0 -198.5 -97t-75.5 -255t75.5 -254.5t198.5 -96.5q124 0 198 95.5t74 255.5t-74.5 256
t-197.5 96z" />
    <glyph glyph-name="c" unicode="c" horiz-adv-x="1112" 
d="M1063 706h-235q-14 89 -78 144t-166 55q-123 0 -197 -97t-74 -261q0 -168 74 -264t198 -96q100 0 163.5 50t80.5 143h235q-16 -180 -146.5 -288t-334.5 -108q-239 0 -381 151.5t-142 411.5q0 256 142 408.5t379 152.5q209 0 339 -114t143 -288z" />
    <glyph glyph-name="d" unicode="d" horiz-adv-x="1221" 
d="M515 -12q-205 0 -330 152.5t-125 406.5q0 253 125 405.5t329 152.5q117 0 206 -52t134 -144h6v601h249v-1510h-244v186h-5q-45 -92 -135.5 -145t-209.5 -53zM588 898q-124 0 -198.5 -96t-74.5 -256q0 -161 74.5 -256t198.5 -95t198.5 96t74.5 255q0 158 -75 255t-198 97z
" />
    <glyph glyph-name="e" unicode="e" horiz-adv-x="1135" 
d="M574 914q-109 0 -182 -72.5t-81 -189.5h518q-4 118 -74 190t-181 72zM830 325h234q-24 -152 -157 -246.5t-324 -94.5q-242 0 -382.5 150t-140.5 408t139.5 412t374.5 154q230 0 365 -146t135 -394v-82h-765v-15q0 -132 77 -212.5t202 -80.5q90 0 155 39.5t87 107.5z" />
    <glyph glyph-name="f" unicode="f" horiz-adv-x="696" 
d="M176 0v900h-149v193h149v98q0 156 77.5 225.5t253.5 69.5q68 0 121 -10v-181q-35 8 -80 8q-67 0 -96.5 -29t-29.5 -94v-87h207v-193h-204v-900h-249z" />
    <glyph glyph-name="g" unicode="g" horiz-adv-x="1215" 
d="M585 205q125 0 200 93.5t75 250.5q0 158 -75.5 253.5t-199.5 95.5q-123 0 -196.5 -94.5t-73.5 -254.5q0 -158 73.5 -251t196.5 -93zM585 -412q-198 0 -332.5 92t-154.5 237h248q21 -65 88 -104t159 -39q125 0 196 64.5t71 172.5v183h-6q-44 -88 -135 -139t-208 -51
q-204 0 -327.5 148.5t-123.5 397.5q0 254 123.5 404.5t332.5 150.5q116 0 206 -52t138 -144h5v184h244v-1075q0 -195 -143.5 -312.5t-380.5 -117.5z" />
    <glyph glyph-name="h" unicode="h" horiz-adv-x="1194" 
d="M114 0v1510h246v-607h5q98 203 345 203q179 0 281 -110t102 -298v-698h-249v648q0 117 -58 182t-170 65q-117 0 -185 -74.5t-68 -197.5v-623h-249z" />
    <glyph glyph-name="i" unicode="i" horiz-adv-x="475" 
d="M113 0v1093h249v-1093h-249zM237 1232q-58 0 -99 40t-41 97q0 58 41 97.5t99 39.5q59 0 99.5 -39.5t40.5 -97.5t-40.5 -97.5t-99.5 -39.5z" />
    <glyph glyph-name="j" unicode="j" horiz-adv-x="475" 
d="M362 1093v-1145q0 -331 -369 -331q-45 0 -61 2v191q2 0 16 -0.5t17 -0.5q80 0 114 33t34 110v1141h249zM237 1232q-58 0 -99 40t-41 97q0 58 41 97.5t99 39.5q59 0 99.5 -39.5t40.5 -97.5t-40.5 -97.5t-99.5 -39.5z" />
    <glyph glyph-name="k" unicode="k" horiz-adv-x="1090" 
d="M366 634l418 459h289l-442 -471l460 -622h-288l-352 471l-88 -89v-382h-249v1510h249v-876h3z" />
    <glyph glyph-name="l" unicode="l" horiz-adv-x="478" 
d="M114 0v1510h249v-1510h-249z" />
    <glyph glyph-name="m" unicode="m" horiz-adv-x="1771" 
d="M106 0v1093h239v-192h5q36 95 119.5 150t191.5 55q116 0 195.5 -56.5t110.5 -160.5h5q40 100 131.5 158.5t209.5 58.5q161 0 259 -99t98 -263v-744h-249v683q0 102 -52 157.5t-148 55.5q-94 0 -153 -63t-59 -163v-670h-242v697q0 92 -53 145.5t-144 53.5
q-94 0 -154.5 -65.5t-60.5 -166.5v-664h-249z" />
    <glyph glyph-name="n" unicode="n" horiz-adv-x="1174" 
d="M106 0v1093h239v-190h5q99 203 343 203q181 0 280.5 -107.5t99.5 -298.5v-700h-249v651q0 118 -56.5 181t-167.5 63q-114 0 -179.5 -73.5t-65.5 -194.5v-627h-249z" />
    <glyph glyph-name="o" unicode="o" horiz-adv-x="1173" 
d="M586 -16q-242 0 -384 151t-142 412q0 258 142.5 409.5t383.5 151.5q242 0 384.5 -151t142.5 -410q0 -261 -142 -412t-385 -151zM586 183q129 0 201.5 95.5t72.5 267.5q0 171 -72.5 267t-201.5 96q-128 0 -200.5 -96t-72.5 -267t72.5 -267t200.5 -96z" />
    <glyph glyph-name="p" unicode="p" horiz-adv-x="1215" 
d="M699 1105q209 0 332 -151t123 -408q0 -256 -122 -407t-329 -151q-117 0 -206.5 50.5t-136.5 142.5h-5v-541h-249v1453h243v-184h5q45 90 138 143t207 53zM626 195q124 0 198.5 95.5t74.5 255.5t-74.5 256t-198.5 96q-122 0 -197 -97t-75 -255t75 -254.5t197 -96.5z" />
    <glyph glyph-name="q" unicode="q" horiz-adv-x="1215" 
d="M516 1105q117 0 207.5 -52t136.5 -144h5v184h244v-1453h-249v541h-6q-44 -89 -135 -141t-208 -52q-205 0 -328 152t-123 407t124 406.5t332 151.5zM585 195q125 0 200 96t75 255q0 158 -75.5 255t-199.5 97q-123 0 -196.5 -95.5t-73.5 -256.5t73.5 -256t196.5 -95z" />
    <glyph glyph-name="r" unicode="r" horiz-adv-x="719" 
d="M106 0v1093h239v-190h5q26 96 95.5 149t166.5 53q48 0 80 -10v-226q-37 14 -103 14q-109 0 -171.5 -66.5t-62.5 -182.5v-634h-249z" />
    <glyph glyph-name="s" unicode="s" horiz-adv-x="1044" 
d="M87 777q0 149 121 240t318 91q189 0 309 -92.5t124 -241.5h-232q-6 69 -61.5 109.5t-144.5 40.5q-87 0 -139.5 -36.5t-52.5 -96.5q0 -91 159 -128l192 -44q165 -38 234.5 -106t69.5 -189q0 -152 -129 -246t-335 -94q-200 0 -324.5 92.5t-136.5 245.5h245
q11 -74 69.5 -114t156.5 -40q95 0 150.5 35.5t55.5 96.5q0 48 -33.5 76.5t-115.5 47.5l-198 48q-302 71 -302 305z" />
    <glyph glyph-name="t" unicode="t" horiz-adv-x="702" 
d="M176 1337h249v-244h207v-193h-207v-576q0 -133 132 -133q34 0 74 5v-191q-45 -10 -131 -10q-174 0 -249 68.5t-75 226.5v610h-149v193h149v244z" />
    <glyph glyph-name="u" unicode="u" horiz-adv-x="1174" 
d="M1068 1093v-1093h-239v191h-6q-92 -205 -335 -205q-179 0 -283 108.5t-104 297.5v701h249v-651q0 -120 57 -182.5t167 -62.5q113 0 179 73.5t66 195.5v627h249z" />
    <glyph glyph-name="v" unicode="v" horiz-adv-x="1075" 
d="M1061 1093l-386 -1093h-273l-388 1093h265l259 -859h5l258 859h260z" />
    <glyph glyph-name="w" unicode="w" horiz-adv-x="1602" 
d="M1579 1093l-297 -1093h-261l-218 803h-6l-217 -803h-259l-297 1093h249l188 -844h5l217 844h239l217 -844h5l189 844h246z" />
    <glyph glyph-name="x" unicode="x" horiz-adv-x="1063" 
d="M529 395h-6l-229 -395h-267l356 545l-352 548h280l225 -387h5l222 387h273l-353 -541l349 -552h-273z" />
    <glyph glyph-name="y" unicode="y" horiz-adv-x="1096" 
d="M228 -398q-73 0 -98 5v198q19 -4 68 -4q80 0 126.5 33.5t69.5 110.5l14 51l-391 1097h271l262 -878h5l261 878h263l-396 -1131q-70 -201 -170.5 -280.5t-284.5 -79.5z" />
    <glyph glyph-name="z" unicode="z" horiz-adv-x="1034" 
d="M84 0v152l571 741v5h-565v195h851v-166l-549 -728v-4h558v-195h-866z" />
    <glyph glyph-name="braceleft" unicode="{" horiz-adv-x="800" 
d="M342 597q198 -18 198 -244v-291q0 -117 49.5 -164.5t171.5 -47.5h45v-187h-88q-216 0 -315.5 89t-99.5 283v248q0 118 -37.5 163.5t-134.5 45.5v240q97 0 134.5 46t37.5 164v215q0 189 99 275.5t316 86.5h88v-186h-45q-124 0 -172.5 -47.5t-48.5 -166.5v-261
q0 -109 -48.5 -166t-149.5 -67v-28z" />
    <glyph glyph-name="bar" unicode="|" horiz-adv-x="546" 
d="M386 -305h-226v1748h226v-1748z" />
    <glyph glyph-name="braceright" unicode="}" horiz-adv-x="800" 
d="M458 597v28q-101 10 -149.5 67t-48.5 166v261q0 119 -49 166.5t-173 47.5h-44v186h88q217 0 315.5 -86.5t98.5 -275.5v-215q0 -118 38 -164t134 -46v-240q-97 0 -134.5 -45.5t-37.5 -163.5v-248q0 -194 -99 -283t-315 -89h-88v187h44q122 0 172 47.5t50 164.5v291
q0 226 198 244z" />
    <glyph glyph-name="asciitilde" unicode="~" horiz-adv-x="1214" 
d="M561 628q-49 49 -81.5 69t-66.5 20q-117 0 -125 -178h-203q-6 182 79 288.5t236 106.5q67 0 127.5 -30.5t128.5 -98.5q47 -48 79 -68t65 -20q118 0 126 179h202q6 -182 -78.5 -288.5t-235.5 -106.5q-66 0 -126 30t-127 97z" />
    <glyph glyph-name="nonbreakingspace" unicode="&#xa0;" horiz-adv-x="458" 
 />
    <glyph glyph-name="exclamdown" unicode="&#xa1;" horiz-adv-x="611" 
d="M177 -330l20 966h217l20 -966h-257zM305 852q-61 0 -103 41t-42 100q0 60 42 100.5t103 40.5q62 0 104 -40.5t42 -100.5q0 -59 -42.5 -100t-103.5 -41z" />
    <glyph glyph-name="cent" unicode="&#xa2;" horiz-adv-x="1294" 
d="M1180 540q-15 -157 -127.5 -263.5t-284.5 -129.5v-177h-217v181q-201 35 -319 185.5t-118 374.5q0 221 118.5 370t318.5 184v181h217v-178q171 -23 286.5 -134.5t125.5 -264.5h-236q-19 93 -93.5 148t-181.5 55q-134 0 -218.5 -99.5t-84.5 -261.5q0 -164 85 -265.5
t218 -101.5q237 0 275 196h236z" />
    <glyph glyph-name="sterling" unicode="&#xa3;" horiz-adv-x="1294" 
d="M464 214h740v-214h-1101v203q134 23 219.5 117t85.5 217q0 49 -13 104h-289v184h228q-60 157 -60 251q0 190 143 296.5t400 106.5q90 0 178 -14.5t141 -37.5v-208q-45 22 -128 37t-164 15q-147 0 -229 -58.5t-82 -163.5q0 -84 51 -224h434v-184h-376q10 -48 10 -89
q0 -108 -53.5 -195t-134.5 -137v-6z" />
    <glyph glyph-name="currency" unicode="&#xa4;" horiz-adv-x="1295" 
d="M403 652q0 -101 72 -173.5t173 -72.5t173 72.5t72 173.5t-72 173t-173 72q-100 0 -172.5 -72.5t-72.5 -172.5zM1170 1030l-156 -156q63 -102 63 -222t-63 -224l156 -156l-144 -144l-157 157q-103 -62 -221 -62q-120 0 -222 63l-157 -158l-144 144l157 158
q-62 103 -62 222t62 221l-157 157l144 144l157 -156q103 62 222 62t222 -62l156 156z" />
    <glyph glyph-name="yen" unicode="&#xa5;" horiz-adv-x="1294" 
d="M1050 233h-274v-233h-257v233h-273v155h273v147h-273v155h205l-438 753h283l348 -625h8l347 625h282l-437 -753h206v-155h-274v-147h274v-155z" />
    <glyph glyph-name="brokenbar" unicode="&#xa6;" horiz-adv-x="547" 
d="M387 774h-227v669h227v-669zM387 -305h-227v670h227v-670z" />
    <glyph glyph-name="section" unicode="&#xa7;" horiz-adv-x="992" 
d="M439 431l99 -29q71 4 119.5 50.5t48.5 109.5q0 54 -39 93t-112 58l-100 29q-71 -5 -120 -52t-49 -108q0 -53 40 -92.5t113 -58.5zM497 -274q-181 0 -299.5 88.5t-126.5 230.5h225q8 -61 65.5 -98.5t141.5 -37.5q86 0 140 39t54 101q0 48 -39.5 81t-127.5 58l-163 51
q-161 49 -234 119.5t-73 176.5q0 94 58 164t161 101v17q-109 47 -160 113.5t-51 160.5q0 147 117 237t308 90q178 0 291.5 -85t126.5 -228h-223q-8 59 -62.5 94.5t-135.5 35.5q-85 0 -137.5 -38.5t-52.5 -100.5q0 -49 38 -81.5t126 -58.5l160 -51q161 -49 234 -118.5
t73 -171.5q0 -100 -66 -177t-173 -103v-17q120 -38 177 -102t57 -161q0 -146 -119 -237.5t-310 -91.5z" />
    <glyph glyph-name="dieresis" unicode="&#xa8;" horiz-adv-x="1008" 
d="M299 1259q-53 0 -90 36.5t-37 87.5q0 52 37 88.5t90 36.5t90 -36.5t37 -88.5q0 -51 -37 -87.5t-90 -36.5zM709 1259q-53 0 -90 36.5t-37 87.5q0 52 37 88.5t90 36.5t89.5 -36.5t36.5 -88.5q0 -51 -36.5 -87.5t-89.5 -36.5z" />
    <glyph glyph-name="copyright" unicode="&#xa9;" horiz-adv-x="1700" 
d="M850 -150q-162 0 -308.5 61.5t-252 166.5t-167.5 252t-62 311q0 165 62 312t167.5 252t252 166t308.5 61q131 0 251.5 -39t217.5 -111t169.5 -169t112 -218.5t39.5 -253.5q0 -164 -61.5 -311t-167 -252t-252 -166.5t-309.5 -61.5zM850 5q131 0 248.5 49.5t202.5 133.5
t134.5 202.5t49.5 250.5q0 133 -49.5 251.5t-134.5 202.5t-202.5 133t-248.5 49q-174 0 -319.5 -83t-230 -229.5t-84.5 -323.5q0 -176 84.5 -322.5t230 -230t319.5 -83.5zM1221 763h-170q-13 61 -61.5 99.5t-122.5 38.5q-96 0 -152 -68.5t-56 -189.5q0 -123 56.5 -192.5
t151.5 -69.5q73 0 121.5 34.5t62.5 98.5h170q-15 -127 -109.5 -203.5t-244.5 -76.5q-178 0 -283 110t-105 299q0 186 105 295.5t282 109.5q149 0 244.5 -79.5t110.5 -205.5z" />
    <glyph glyph-name="ordfeminine" unicode="&#xaa;" horiz-adv-x="773" 
d="M351 847q68 0 113 37.5t45 94.5v53l-151 -10q-120 -9 -120 -90q0 -38 30.5 -61.5t82.5 -23.5zM284 702q-107 0 -176.5 61.5t-69.5 158.5q0 99 74 155.5t216 64.5l181 11v48q0 50 -33 77.5t-92 27.5q-51 0 -85 -24t-41 -64h-183q4 107 91 172.5t226 65.5q142 0 228 -66.5
t86 -176.5v-502h-194v111h-4q-29 -55 -90 -87.5t-134 -32.5z" />
    <glyph glyph-name="guillemotleft" unicode="&#xab;" horiz-adv-x="1336" 
d="M368 572v-12l348 -412h-249l-346 413v8l349 413h246zM867 572v-12l348 -412h-249l-346 413v8l349 413h246z" />
    <glyph glyph-name="logicalnot" unicode="&#xac;" horiz-adv-x="1294" 
d="M1152 688v-600h-217v389h-792v211h1009z" />
    <glyph glyph-name="registered" unicode="&#xae;" horiz-adv-x="1171" 
d="M586 575q-210 0 -354.5 142t-144.5 349q0 136 66 249t180.5 178t252.5 65t252.5 -65t180 -178t65.5 -249t-65.5 -249t-180 -177.5t-252.5 -64.5zM586 693q157 0 263.5 107.5t106.5 265.5q0 159 -106.5 266.5t-263.5 107.5t-264 -107.5t-107 -266.5q0 -158 107 -265.5
t264 -107.5zM506 844h-113v459h234q74 0 121 -40t47 -104q0 -53 -27.5 -89.5t-74.5 -47.5l125 -178h-137l-105 162h-70v-162zM506 1212v-122h97q71 0 71 62q0 60 -69 60h-99z" />
    <glyph glyph-name="macron" unicode="&#xaf;" horiz-adv-x="1000" 
d="M828 1436v-130h-656v130h656z" />
    <glyph glyph-name="degree" unicode="&#xb0;" horiz-adv-x="745" 
d="M372 801q-129 0 -217.5 89t-88.5 218q0 128 88.5 217t217.5 89t217.5 -89t88.5 -217q0 -129 -88.5 -218t-217.5 -89zM372 958q62 0 105.5 44.5t43.5 105.5q0 63 -43 106.5t-106 43.5q-60 0 -104.5 -44t-44.5 -106q0 -60 44.5 -105t104.5 -45z" />
    <glyph glyph-name="plusminus" unicode="&#xb1;" horiz-adv-x="1294" 
d="M1148 88h-1003v193h1003v-193zM753 655v-258h-212v258h-396v187h396v258h212v-258h397v-187h-397z" />
    <glyph glyph-name="two.sups" unicode="&#xb2;" horiz-adv-x="649" 
d="M36 1584q0 107 78 172t207 65q122 0 197.5 -57.5t75.5 -150.5q0 -55 -28 -102.5t-99 -110.5l-153 -135v-4h288v-155h-554v137l280 247q67 63 67 108q0 32 -23.5 52t-60.5 20t-62 -24.5t-25 -61.5v-5h-188v5z" />
    <glyph glyph-name="three.sups" unicode="&#xb3;" horiz-adv-x="676" 
d="M246 1394v135h85q39 0 62.5 20t23.5 52t-23.5 51t-64.5 19q-40 0 -65 -22.5t-27 -59.5h-184q0 106 77 169t205 63q123 0 197.5 -52.5t74.5 -138.5q0 -61 -40 -105t-105 -55v-5q79 -8 124.5 -52.5t45.5 -112.5q0 -97 -82 -155t-219 -58q-128 0 -207.5 64t-83.5 170h195
q2 -35 28 -55t69 -20q41 0 67 20.5t26 52.5q0 35 -25.5 55t-69.5 20h-84z" />
    <glyph glyph-name="acute" unicode="&#xb4;" horiz-adv-x="1008" 
d="M474 1258h-201l218 307h245z" />
    <glyph glyph-name="mugreek" unicode="&#x3bc;" horiz-adv-x="1278" 
d="M106 -360v1453h247v-646q0 -121 56.5 -184.5t166.5 -63.5q117 0 183 72t66 195v627h248v-774q0 -70 20.5 -99.5t67.5 -29.5q32 0 57 9l10 -189q-53 -15 -130 -15q-101 0 -161.5 38t-89.5 122q-3 11 -9 35h-4q-42 -96 -113 -150t-161 -54q-66 0 -121 29t-80 75h-4v-450
h-249z" />
    <glyph glyph-name="mugreek" unicode="&#xb5;" horiz-adv-x="1278" 
d="M106 -360v1453h247v-646q0 -121 56.5 -184.5t166.5 -63.5q117 0 183 72t66 195v627h248v-774q0 -70 20.5 -99.5t67.5 -29.5q32 0 57 9l10 -189q-53 -15 -130 -15q-101 0 -161.5 38t-89.5 122q-3 11 -9 35h-4q-42 -96 -113 -150t-161 -54q-66 0 -121 29t-80 75h-4v-450
h-249z" />
    <glyph glyph-name="paragraph" unicode="&#xb6;" horiz-adv-x="1374" 
d="M863 -242h-244v741h-20q-216 0 -360.5 134t-144.5 333q0 207 143 342t363 135h263v-1685zM1024 -242v1685h243v-1685h-243z" />
    <glyph glyph-name="periodcentered" unicode="&#xb7;" horiz-adv-x="591" 
d="M296 474q-61 0 -104 42.5t-43 103.5q0 62 42.5 104.5t104.5 42.5q61 0 103.5 -42.5t42.5 -104.5q0 -61 -42.5 -103.5t-103.5 -42.5z" />
    <glyph glyph-name="cedilla" unicode="&#xb8;" horiz-adv-x="1008" 
d="M368 -228v90l63 149h131v-11l-50 -125q94 0 144 -40.5t50 -115.5q0 -83 -63 -132.5t-170 -50.5q-87 0 -142 17v111q37 -14 115 -14q111 0 111 62q0 32 -31 46t-103 14h-55z" />
    <glyph glyph-name="one.sups" unicode="&#xb9;" horiz-adv-x="531" 
d="M238 1106v523h-4l-174 -115v172l175 116h203v-696h-200z" />
    <glyph glyph-name="ordmasculine" unicode="&#xba;" horiz-adv-x="808" 
d="M404 698q-169 0 -266 100.5t-97 278.5q0 175 98.5 277t264.5 102q167 0 265 -101.5t98 -277.5q0 -178 -97 -278.5t-266 -100.5zM404 851q75 0 117 59.5t42 166.5q0 106 -42.5 166t-116.5 60t-116.5 -60t-42.5 -166q0 -107 42 -166.5t117 -59.5z" />
    <glyph glyph-name="guillemotright" unicode="&#xbb;" horiz-adv-x="1336" 
d="M469 572l-348 410h246l349 -413v-8l-346 -413h-249l348 412v12zM968 572l-348 410h246l349 -413v-8l-346 -413h-249l348 412v12z" />
    <glyph glyph-name="onequarter" unicode="&#xbc;" horiz-adv-x="1565" 
d="M1253 0v103h-342v170q86 169 252 423h284v-436h83v-157h-83v-103h-194zM1081 256v-4h178v309h-4q-119 -196 -174 -305zM248 748v523h-4l-174 -115v172l175 116h203v-696h-200zM328 0h-218l1055 1443h216z" />
    <glyph glyph-name="onehalf" unicode="&#xbd;" horiz-adv-x="1564" 
d="M963 478q0 107 78 172t207 65q122 0 197.5 -57.5t75.5 -150.5q0 -55 -28 -102.5t-99 -110.5l-153 -135v-4h288v-155h-554v137l280 247q67 63 67 108q0 32 -23.5 52t-60.5 20t-62 -24.5t-25 -61.5v-5h-188v5zM248 748v523h-4l-174 -115v172l175 116h203v-696h-200zM328 0
h-218l1055 1443h216z" />
    <glyph glyph-name="threequarters" unicode="&#xbe;" horiz-adv-x="1663" 
d="M246 1036v135h85q39 0 62.5 20t23.5 52t-23.5 51t-64.5 19q-40 0 -65 -22.5t-27 -59.5h-184q0 106 77 169t205 63q123 0 197.5 -52.5t74.5 -138.5q0 -61 -40 -105t-105 -55v-5q79 -8 124.5 -52.5t45.5 -112.5q0 -97 -82 -155t-219 -58q-128 0 -207.5 64t-83.5 170h195
q2 -35 28 -55t69 -20q41 0 67 20.5t26 52.5q0 35 -25.5 55t-69.5 20h-84zM1350 0v103h-342v170q86 169 252 423h284v-436h83v-157h-83v-103h-194zM1178 256v-4h178v309h-4q-119 -196 -174 -305zM435 0h-218l1055 1443h216z" />
    <glyph glyph-name="questiondown" unicode="&#xbf;" horiz-adv-x="1060" 
d="M1006 63q-5 -182 -128 -295t-339 -113q-205 0 -331.5 106t-126.5 273q0 213 212 340q98 57 132.5 105t34.5 123v58h232l1 -70q7 -110 -37 -183.5t-149 -136.5q-94 -57 -130 -105.5t-36 -121.5q0 -81 58 -132t153 -51t154 54.5t65 148.5h235zM565 852q-60 0 -102.5 41
t-42.5 100q0 60 42.5 100.5t102.5 40.5q62 0 104 -40.5t42 -100.5q0 -59 -42.5 -100t-103.5 -41z" />
    <glyph glyph-name="Agrave" unicode="&#xc0;" horiz-adv-x="1369" 
d="M1070 0l-123 373h-531l-123 -373h-266l512 1443h291l512 -1443h-272zM678 1188l-202 -616h410l-201 616h-7zM587 1555l-279 306h246l231 -306h-198z" />
    <glyph glyph-name="Aacute" unicode="&#xc1;" horiz-adv-x="1369" 
d="M1070 0l-123 373h-531l-123 -373h-266l512 1443h291l512 -1443h-272zM678 1188l-202 -616h410l-201 616h-7zM781 1552h-198l231 306h246z" />
    <glyph glyph-name="Acircumflex" unicode="&#xc2;" horiz-adv-x="1369" 
d="M1070 0l-123 373h-531l-123 -373h-266l512 1443h291l512 -1443h-272zM678 1188l-202 -616h410l-201 616h-7zM586 1856h196l281 -310h-203l-174 198h-4l-174 -198h-203z" />
    <glyph glyph-name="Atilde" unicode="&#xc3;" horiz-adv-x="1369" 
d="M1070 0l-123 373h-531l-123 -373h-266l512 1443h291l512 -1443h-272zM678 1188l-202 -616h410l-201 616h-7zM819 1538q-37 0 -70 14.5t-56.5 35.5t-44 42t-42 35.5t-42.5 14.5q-32 0 -50 -33.5t-19 -92.5h-141q0 123 55 193.5t146 70.5q39 0 73 -14.5t58 -35.5t45 -42
t42 -35.5t40 -14.5q63 0 65 128h141q0 -121 -56 -193.5t-144 -72.5z" />
    <glyph glyph-name="Adieresis" unicode="&#xc4;" horiz-adv-x="1369" 
d="M1070 0l-123 373h-531l-123 -373h-266l512 1443h291l512 -1443h-272zM678 1188l-202 -616h410l-201 616h-7zM479 1569q-53 0 -90 36.5t-37 87.5q0 52 37 88.5t90 36.5t90 -36.5t37 -88.5q0 -51 -37 -87.5t-90 -36.5zM889 1569q-53 0 -90 36.5t-37 87.5q0 52 37 88.5
t90 36.5t89.5 -36.5t36.5 -88.5q0 -51 -36.5 -87.5t-89.5 -36.5z" />
    <glyph glyph-name="Aring" unicode="&#xc5;" horiz-adv-x="1369" 
d="M1070 0l-123 373h-531l-123 -373h-266l512 1443h291l512 -1443h-272zM678 1188l-202 -616h410l-201 616h-7zM684 1511q-84 0 -145 60t-61 143q0 84 61 144t145 60t144.5 -60t60.5 -144q0 -83 -60.5 -143t-144.5 -60zM684 1611q43 0 74 30t31 73t-31 73.5t-74 30.5
t-74 -30.5t-31 -73.5t31 -73t74 -30z" />
    <glyph glyph-name="AE" unicode="&#xc6;" horiz-adv-x="2015" 
d="M820 1240l-280 -636h425v636h-145zM965 0v404h-507l-180 -404h-259l641 1443h1223v-217h-677v-397h640v-206h-640v-406h677v-217h-918z" />
    <glyph glyph-name="Ccedilla" unicode="&#xc7;" horiz-adv-x="1439" 
d="M1371 948h-254q-25 136 -126.5 218t-241.5 82q-186 0 -296.5 -142.5t-110.5 -383.5q0 -243 110 -385t298 -142q143 0 240.5 73.5t127.5 203.5h253q-31 -216 -178.5 -346.5t-377.5 -147.5l-41 -103q94 0 144 -40.5t50 -115.5q0 -83 -63 -132.5t-170 -50.5q-87 0 -142 17
v111q37 -14 115 -14q111 0 111 62q0 32 -31 46t-103 14h-55v90l49 117q-279 23 -440 220t-161 523q0 344 181.5 544.5t489.5 200.5q252 0 425 -143.5t197 -375.5z" />
    <glyph glyph-name="Egrave" unicode="&#xc8;" horiz-adv-x="1158" 
d="M497 1555l-279 306h246l231 -306h-198zM1061 218v-218h-934v1443h934v-218h-676v-390h639v-205h-639v-412h676z" />
    <glyph glyph-name="Eacute" unicode="&#xc9;" horiz-adv-x="1158" 
d="M691 1552h-198l231 306h246zM1061 218v-218h-934v1443h934v-218h-676v-390h639v-205h-639v-412h676z" />
    <glyph glyph-name="Ecircumflex" unicode="&#xca;" horiz-adv-x="1158" 
d="M496 1856h196l281 -310h-203l-174 198h-4l-174 -198h-203zM1061 218v-218h-934v1443h934v-218h-676v-390h639v-205h-639v-412h676z" />
    <glyph glyph-name="Edieresis" unicode="&#xcb;" horiz-adv-x="1158" 
d="M389 1569q-53 0 -90 36.5t-37 87.5q0 52 37 88.5t90 36.5t90 -36.5t37 -88.5q0 -51 -37 -87.5t-90 -36.5zM799 1569q-53 0 -90 36.5t-37 87.5q0 52 37 88.5t90 36.5t89.5 -36.5t36.5 -88.5q0 -51 -36.5 -87.5t-89.5 -36.5zM1061 218v-218h-934v1443h934v-218h-676v-390
h639v-205h-639v-412h676z" />
    <glyph glyph-name="Igrave" unicode="&#xcc;" horiz-adv-x="512" 
d="M385 0h-258v1443h258v-1443zM159 1555l-279 306h246l231 -306h-198z" />
    <glyph glyph-name="Iacute" unicode="&#xcd;" horiz-adv-x="512" 
d="M385 0h-258v1443h258v-1443zM353 1552h-198l231 306h246z" />
    <glyph glyph-name="Icircumflex" unicode="&#xce;" horiz-adv-x="512" 
d="M385 0h-258v1443h258v-1443zM158 1856h196l281 -310h-203l-174 198h-4l-174 -198h-203z" />
    <glyph glyph-name="Idieresis" unicode="&#xcf;" horiz-adv-x="512" 
d="M385 0h-258v1443h258v-1443zM51 1569q-53 0 -90 36.5t-37 87.5q0 52 37 88.5t90 36.5t90 -36.5t37 -88.5q0 -51 -37 -87.5t-90 -36.5zM461 1569q-53 0 -90 36.5t-37 87.5q0 52 37 88.5t90 36.5t89.5 -36.5t36.5 -88.5q0 -51 -36.5 -87.5t-89.5 -36.5z" />
    <glyph glyph-name="Eth" unicode="&#xd0;" horiz-adv-x="1441" 
d="M402 218h249q218 0 334 130t116 376q0 242 -117 371.5t-333 129.5h-249v-388h263v-200h-263v-419zM144 1443h534q324 0 505 -188t181 -530q0 -343 -181 -534t-505 -191h-534v637h-109v200h109v606z" />
    <glyph glyph-name="Ntilde" unicode="&#xd1;" horiz-adv-x="1452" 
d="M861 1538q-37 0 -70 14.5t-56.5 35.5t-44 42t-42 35.5t-42.5 14.5q-32 0 -50 -33.5t-19 -92.5h-141q0 123 55 193.5t146 70.5q39 0 73 -14.5t58 -35.5t45 -42t42 -35.5t40 -14.5q63 0 65 128h141q0 -121 -56 -193.5t-144 -72.5zM376 0h-249v1443h224l716 -1011h9v1011
h248v-1443h-222l-717 1012h-9v-1012z" />
    <glyph glyph-name="Ograve" unicode="&#xd2;" horiz-adv-x="1525" 
d="M666 1555l-279 306h246l231 -306h-198zM763 1467q315 0 499.5 -201t184.5 -545t-184.5 -544.5t-499.5 -200.5q-316 0 -500.5 200.5t-184.5 544.5t184.5 545t500.5 201zM763 1247q-193 0 -307 -142t-114 -384q0 -241 114 -383t307 -142t307 142t114 383t-114 383.5
t-307 142.5z" />
    <glyph glyph-name="Oacute" unicode="&#xd3;" horiz-adv-x="1525" 
d="M860 1552h-198l231 306h246zM763 1467q315 0 499.5 -201t184.5 -545t-184.5 -544.5t-499.5 -200.5q-316 0 -500.5 200.5t-184.5 544.5t184.5 545t500.5 201zM763 1247q-193 0 -307 -142t-114 -384q0 -241 114 -383t307 -142t307 142t114 383t-114 383.5t-307 142.5z" />
    <glyph glyph-name="Ocircumflex" unicode="&#xd4;" horiz-adv-x="1525" 
d="M665 1856h196l281 -310h-203l-174 198h-4l-174 -198h-203zM763 1467q315 0 499.5 -201t184.5 -545t-184.5 -544.5t-499.5 -200.5q-316 0 -500.5 200.5t-184.5 544.5t184.5 545t500.5 201zM763 1247q-193 0 -307 -142t-114 -384q0 -241 114 -383t307 -142t307 142t114 383
t-114 383.5t-307 142.5z" />
    <glyph glyph-name="Otilde" unicode="&#xd5;" horiz-adv-x="1525" 
d="M763 1467q315 0 499.5 -201t184.5 -545t-184.5 -544.5t-499.5 -200.5q-316 0 -500.5 200.5t-184.5 544.5t184.5 545t500.5 201zM763 1247q-193 0 -307 -142t-114 -384q0 -241 114 -383t307 -142t307 142t114 383t-114 383.5t-307 142.5zM898 1538q-37 0 -70 14.5
t-56.5 35.5t-44 42t-42 35.5t-42.5 14.5q-32 0 -50 -33.5t-19 -92.5h-141q0 123 55 193.5t146 70.5q39 0 73 -14.5t58 -35.5t45 -42t42 -35.5t40 -14.5q63 0 65 128h141q0 -121 -56 -193.5t-144 -72.5z" />
    <glyph glyph-name="Odieresis" unicode="&#xd6;" horiz-adv-x="1525" 
d="M558 1569q-53 0 -90 36.5t-37 87.5q0 52 37 88.5t90 36.5t90 -36.5t37 -88.5q0 -51 -37 -87.5t-90 -36.5zM968 1569q-53 0 -90 36.5t-37 87.5q0 52 37 88.5t90 36.5t89.5 -36.5t36.5 -88.5q0 -51 -36.5 -87.5t-89.5 -36.5zM763 1467q315 0 499.5 -201t184.5 -545
t-184.5 -544.5t-499.5 -200.5q-316 0 -500.5 200.5t-184.5 544.5t184.5 545t500.5 201zM763 1247q-193 0 -307 -142t-114 -384q0 -241 114 -383t307 -142t307 142t114 383t-114 383.5t-307 142.5z" />
    <glyph glyph-name="multiply" unicode="&#xd7;" horiz-adv-x="1294" 
d="M648 433l-306 -305l-149 149l305 306l-305 305l149 149l306 -305l305 305l149 -149l-304 -305l304 -306l-149 -149z" />
    <glyph glyph-name="Oslash" unicode="&#xd8;" horiz-adv-x="1525" 
d="M1099 1063l-562 -801q97 -66 226 -66q193 0 307 142t114 383q0 206 -85 342zM448 348l570 811q-105 88 -255 88q-193 0 -307 -142t-114 -384q0 -231 106 -373zM1361 1436l-110 -157q196 -202 196 -558q0 -344 -184.5 -544.5t-499.5 -200.5q-209 0 -363 90l-88 -125
l-101 70l90 128q-108 98 -165.5 246t-57.5 336q0 344 184.5 545t500.5 201q228 0 394 -110l100 142z" />
    <glyph glyph-name="Ugrave" unicode="&#xd9;" horiz-adv-x="1441" 
d="M623 1555l-279 306h246l231 -306h-198zM385 1443v-911q0 -150 88.5 -240.5t246.5 -90.5t247 90.5t89 240.5v911h257v-934q0 -239 -160.5 -386t-432.5 -147q-271 0 -432 147t-161 386v934h258z" />
    <glyph glyph-name="Uacute" unicode="&#xda;" horiz-adv-x="1441" 
d="M817 1552h-198l231 306h246zM385 1443v-911q0 -150 88.5 -240.5t246.5 -90.5t247 90.5t89 240.5v911h257v-934q0 -239 -160.5 -386t-432.5 -147q-271 0 -432 147t-161 386v934h258z" />
    <glyph glyph-name="Ucircumflex" unicode="&#xdb;" horiz-adv-x="1441" 
d="M622 1856h196l281 -310h-203l-174 198h-4l-174 -198h-203zM385 1443v-911q0 -150 88.5 -240.5t246.5 -90.5t247 90.5t89 240.5v911h257v-934q0 -239 -160.5 -386t-432.5 -147q-271 0 -432 147t-161 386v934h258z" />
    <glyph glyph-name="Udieresis" unicode="&#xdc;" horiz-adv-x="1441" 
d="M515 1569q-53 0 -90 36.5t-37 87.5q0 52 37 88.5t90 36.5t90 -36.5t37 -88.5q0 -51 -37 -87.5t-90 -36.5zM925 1569q-53 0 -90 36.5t-37 87.5q0 52 37 88.5t90 36.5t89.5 -36.5t36.5 -88.5q0 -51 -36.5 -87.5t-89.5 -36.5zM385 1443v-911q0 -150 88.5 -240.5t246.5 -90.5
t247 90.5t89 240.5v911h257v-934q0 -239 -160.5 -386t-432.5 -147q-271 0 -432 147t-161 386v934h258z" />
    <glyph glyph-name="Yacute" unicode="&#xdd;" horiz-adv-x="1323" 
d="M790 0h-257v569l-506 874h283l350 -628h6l349 628h281l-506 -874v-569zM758 1552h-198l231 306h246z" />
    <glyph glyph-name="Thorn" unicode="&#xde;" horiz-adv-x="1294" 
d="M154 1443h259v-246h331q128 0 230.5 -51.5t164 -153.5t61.5 -237q0 -202 -133 -322.5t-333 -120.5h-322v-312h-258v1443zM412 986v-465h260q122 0 193.5 59.5t71.5 173.5q0 113 -71 172.5t-193 59.5h-261z" />
    <glyph glyph-name="germandbls" unicode="&#xdf;" horiz-adv-x="1315" 
d="M407 0h-247v1088q0 183 127.5 291t343.5 108q206 0 335.5 -105t129.5 -271q0 -124 -60 -214.5t-162 -120.5v-9q156 -17 245.5 -115.5t89.5 -252.5q0 -189 -128 -301.5t-345 -112.5q-98 0 -168 15v204q52 -16 130 -16q121 0 191 60t70 163q0 109 -79 170t-219 61h-68v213
h50q99 0 155.5 59t56.5 163q0 92 -60.5 148.5t-159.5 56.5q-109 0 -168.5 -62t-59.5 -175v-1045z" />
    <glyph glyph-name="agrave" unicode="&#xe0;" horiz-adv-x="1116" 
d="M501 179q114 0 190 64t76 163v83l-250 -16q-208 -14 -208 -150q0 -66 52.5 -105t139.5 -39zM428 -12q-162 0 -265.5 90t-103.5 235q0 146 108.5 228t315.5 95l284 17v80q0 86 -55.5 132.5t-156.5 46.5q-84 0 -141 -40t-70 -107h-230q5 150 130.5 246.5t318.5 96.5
q205 0 327.5 -98t122.5 -261v-749h-239v176h-6q-45 -87 -137.5 -137.5t-202.5 -50.5zM658 1258h-201l-262 307h246z" />
    <glyph glyph-name="aacute" unicode="&#xe1;" horiz-adv-x="1116" 
d="M501 179q114 0 190 64t76 163v83l-250 -16q-208 -14 -208 -150q0 -66 52.5 -105t139.5 -39zM428 -12q-162 0 -265.5 90t-103.5 235q0 146 108.5 228t315.5 95l284 17v80q0 86 -55.5 132.5t-156.5 46.5q-84 0 -141 -40t-70 -107h-230q5 150 130.5 246.5t318.5 96.5
q205 0 327.5 -98t122.5 -261v-749h-239v176h-6q-45 -87 -137.5 -137.5t-202.5 -50.5zM657 1258h-201l218 307h245z" />
    <glyph glyph-name="acircumflex" unicode="&#xe2;" horiz-adv-x="1116" 
d="M501 179q114 0 190 64t76 163v83l-250 -16q-208 -14 -208 -150q0 -66 52.5 -105t139.5 -39zM428 -12q-162 0 -265.5 90t-103.5 235q0 146 108.5 228t315.5 95l284 17v80q0 86 -55.5 132.5t-156.5 46.5q-84 0 -141 -40t-70 -107h-230q5 150 130.5 246.5t318.5 96.5
q205 0 327.5 -98t122.5 -261v-749h-239v176h-6q-45 -87 -137.5 -137.5t-202.5 -50.5zM651 1563l270 -311h-202l-157 192h-7l-157 -192h-202l270 311h185z" />
    <glyph glyph-name="atilde" unicode="&#xe3;" horiz-adv-x="1116" 
d="M501 179q114 0 190 64t76 163v83l-250 -16q-208 -14 -208 -150q0 -66 52.5 -105t139.5 -39zM428 -12q-162 0 -265.5 90t-103.5 235q0 146 108.5 228t315.5 95l284 17v80q0 86 -55.5 132.5t-156.5 46.5q-84 0 -141 -40t-70 -107h-230q5 150 130.5 246.5t318.5 96.5
q205 0 327.5 -98t122.5 -261v-749h-239v176h-6q-45 -87 -137.5 -137.5t-202.5 -50.5zM697 1258q-37 0 -70 14.5t-56.5 35.5t-44 42t-42 35.5t-42.5 14.5q-32 0 -50 -33.5t-19 -92.5h-141q0 123 55 193.5t146 70.5q39 0 73 -14.5t58 -35.5t45 -42t42 -35.5t40 -14.5
q63 0 65 128h141q0 -121 -56 -193.5t-144 -72.5z" />
    <glyph glyph-name="adieresis" unicode="&#xe4;" horiz-adv-x="1116" 
d="M501 179q114 0 190 64t76 163v83l-250 -16q-208 -14 -208 -150q0 -66 52.5 -105t139.5 -39zM428 -12q-162 0 -265.5 90t-103.5 235q0 146 108.5 228t315.5 95l284 17v80q0 86 -55.5 132.5t-156.5 46.5q-84 0 -141 -40t-70 -107h-230q5 150 130.5 246.5t318.5 96.5
q205 0 327.5 -98t122.5 -261v-749h-239v176h-6q-45 -87 -137.5 -137.5t-202.5 -50.5zM354 1259q-53 0 -90 36.5t-37 87.5q0 52 37 88.5t90 36.5t90 -36.5t37 -88.5q0 -51 -37 -87.5t-90 -36.5zM764 1259q-53 0 -90 36.5t-37 87.5q0 52 37 88.5t90 36.5t89.5 -36.5
t36.5 -88.5q0 -51 -36.5 -87.5t-89.5 -36.5z" />
    <glyph glyph-name="aring" unicode="&#xe5;" horiz-adv-x="1116" 
d="M501 179q114 0 190 64t76 163v83l-250 -16q-208 -14 -208 -150q0 -66 52.5 -105t139.5 -39zM428 -12q-162 0 -265.5 90t-103.5 235q0 146 108.5 228t315.5 95l284 17v80q0 86 -55.5 132.5t-156.5 46.5q-84 0 -141 -40t-70 -107h-230q5 150 130.5 246.5t318.5 96.5
q205 0 327.5 -98t122.5 -261v-749h-239v176h-6q-45 -87 -137.5 -137.5t-202.5 -50.5zM559 1201q-87 0 -150 62t-63 148q0 87 63 149t150 62t150 -62t63 -149q0 -86 -63 -148t-150 -62zM559 1305q44 0 75.5 31t31.5 75t-31.5 75t-75.5 31t-75.5 -31t-31.5 -75t31.5 -75
t75.5 -31z" />
    <glyph glyph-name="ae" unicode="&#xe6;" horiz-adv-x="1816" 
d="M1276 -16q-135 0 -239.5 56t-157.5 157h-10q-61 -101 -163.5 -155t-239.5 -54q-187 0 -297 88.5t-110 234.5q0 145 108.5 228.5t313.5 94.5l286 15v68q0 85 -62 140t-158 55q-91 0 -149 -40t-65 -107h-230q8 153 128.5 248t308.5 95q132 0 229 -49t140 -135h9
q113 184 364 184q216 0 345 -145.5t129 -394.5v-81h-753v-16q0 -133 76 -213t201 -80q87 0 148 39t84 108h234q-25 -153 -154 -247t-316 -94zM1266 914q-109 0 -181 -72t-80 -190h506q-4 121 -70 191.5t-175 70.5zM493 176q115 0 194.5 66.5t79.5 163.5v79l-257 -15
q-100 -6 -154 -44t-54 -104t53 -106t138 -40z" />
    <glyph glyph-name="ccedilla" unicode="&#xe7;" horiz-adv-x="1112" 
d="M829 380h235q-14 -163 -125 -268.5t-287 -124.5l-45 -112q94 0 144 -40.5t50 -115.5q0 -83 -63 -132.5t-170 -50.5q-87 0 -142 17v111q37 -14 115 -14q111 0 111 62q0 32 -31 46t-103 14h-55v90l53 125q-211 22 -333.5 170.5t-122.5 389.5q0 256 142 408.5t379 152.5
q209 0 339 -114t143 -288h-235q-14 89 -78 144t-166 55q-123 0 -197 -97t-74 -261q0 -168 74 -264t198 -96q100 0 163.5 50t80.5 143z" />
    <glyph glyph-name="egrave" unicode="&#xe8;" horiz-adv-x="1135" 
d="M672 1258h-201l-262 307h246zM574 914q-109 0 -182 -72.5t-81 -189.5h518q-4 118 -74 190t-181 72zM830 325h234q-24 -152 -157 -246.5t-324 -94.5q-242 0 -382.5 150t-140.5 408t139.5 412t374.5 154q230 0 365 -146t135 -394v-82h-765v-15q0 -132 77 -212.5t202 -80.5
q90 0 155 39.5t87 107.5z" />
    <glyph glyph-name="eacute" unicode="&#xe9;" horiz-adv-x="1135" 
d="M671 1258h-201l218 307h245zM574 914q-109 0 -182 -72.5t-81 -189.5h518q-4 118 -74 190t-181 72zM830 325h234q-24 -152 -157 -246.5t-324 -94.5q-242 0 -382.5 150t-140.5 408t139.5 412t374.5 154q230 0 365 -146t135 -394v-82h-765v-15q0 -132 77 -212.5t202 -80.5
q90 0 155 39.5t87 107.5z" />
    <glyph glyph-name="ecircumflex" unicode="&#xea;" horiz-adv-x="1135" 
d="M665 1563l270 -311h-202l-157 192h-7l-157 -192h-202l270 311h185zM574 914q-109 0 -182 -72.5t-81 -189.5h518q-4 118 -74 190t-181 72zM830 325h234q-24 -152 -157 -246.5t-324 -94.5q-242 0 -382.5 150t-140.5 408t139.5 412t374.5 154q230 0 365 -146t135 -394v-82
h-765v-15q0 -132 77 -212.5t202 -80.5q90 0 155 39.5t87 107.5z" />
    <glyph glyph-name="edieresis" unicode="&#xeb;" horiz-adv-x="1135" 
d="M574 914q-109 0 -182 -72.5t-81 -189.5h518q-4 118 -74 190t-181 72zM830 325h234q-24 -152 -157 -246.5t-324 -94.5q-242 0 -382.5 150t-140.5 408t139.5 412t374.5 154q230 0 365 -146t135 -394v-82h-765v-15q0 -132 77 -212.5t202 -80.5q90 0 155 39.5t87 107.5z
M368 1259q-53 0 -90 36.5t-37 87.5q0 52 37 88.5t90 36.5t90 -36.5t37 -88.5q0 -51 -37 -87.5t-90 -36.5zM778 1259q-53 0 -90 36.5t-37 87.5q0 52 37 88.5t90 36.5t89.5 -36.5t36.5 -88.5q0 -51 -36.5 -87.5t-89.5 -36.5z" />
    <glyph glyph-name="igrave" unicode="&#xec;" horiz-adv-x="475" 
d="M336 1258h-201l-262 307h246zM113 0v1093h249v-1093h-249z" />
    <glyph glyph-name="iacute" unicode="&#xed;" horiz-adv-x="475" 
d="M335 1258h-201l218 307h245zM113 0v1093h249v-1093h-249z" />
    <glyph glyph-name="icircumflex" unicode="&#xee;" horiz-adv-x="475" 
d="M329 1563l270 -311h-202l-157 192h-7l-157 -192h-202l270 311h185zM113 0v1093h249v-1093h-249z" />
    <glyph glyph-name="idieresis" unicode="&#xef;" horiz-adv-x="475" 
d="M113 0v1093h249v-1093h-249zM32 1259q-53 0 -90 36.5t-37 87.5q0 52 37 88.5t90 36.5t90 -36.5t37 -88.5q0 -51 -37 -87.5t-90 -36.5zM442 1259q-53 0 -90 36.5t-37 87.5q0 52 37 88.5t90 36.5t89.5 -36.5t36.5 -88.5q0 -51 -36.5 -87.5t-89.5 -36.5z" />
    <glyph glyph-name="eth" unicode="&#xf0;" horiz-adv-x="1212" 
d="M605 -18q-239 0 -381.5 148t-142.5 399q0 239 129.5 382.5t339.5 143.5q87 0 166 -40.5t117 -103.5h17q-22 75 -71.5 161t-104.5 150l-282 -93l-48 129l229 76q-70 70 -226 186h306q66 -52 128 -117l259 86l50 -131l-203 -65q240 -301 240 -703q0 -280 -142 -444
t-380 -164zM609 868q-125 0 -199 -92.5t-74 -247.5q0 -156 74 -248t199 -92q126 0 200.5 92t74.5 248q0 155 -75 247.5t-200 92.5z" />
    <glyph glyph-name="ntilde" unicode="&#xf1;" horiz-adv-x="1174" 
d="M727 1258q-37 0 -70 14.5t-56.5 35.5t-44 42t-42 35.5t-42.5 14.5q-32 0 -50 -33.5t-19 -92.5h-141q0 123 55 193.5t146 70.5q39 0 73 -14.5t58 -35.5t45 -42t42 -35.5t40 -14.5q63 0 65 128h141q0 -121 -56 -193.5t-144 -72.5zM106 0v1093h239v-190h5q99 203 343 203
q181 0 280.5 -107.5t99.5 -298.5v-700h-249v651q0 118 -56.5 181t-167.5 63q-114 0 -179.5 -73.5t-65.5 -194.5v-627h-249z" />
    <glyph glyph-name="ograve" unicode="&#xf2;" horiz-adv-x="1173" 
d="M685 1258h-201l-262 307h246zM586 -16q-242 0 -384 151t-142 412q0 258 142.5 409.5t383.5 151.5q242 0 384.5 -151t142.5 -410q0 -261 -142 -412t-385 -151zM586 183q129 0 201.5 95.5t72.5 267.5q0 171 -72.5 267t-201.5 96q-128 0 -200.5 -96t-72.5 -267t72.5 -267
t200.5 -96z" />
    <glyph glyph-name="oacute" unicode="&#xf3;" horiz-adv-x="1173" 
d="M684 1258h-201l218 307h245zM586 -16q-242 0 -384 151t-142 412q0 258 142.5 409.5t383.5 151.5q242 0 384.5 -151t142.5 -410q0 -261 -142 -412t-385 -151zM586 183q129 0 201.5 95.5t72.5 267.5q0 171 -72.5 267t-201.5 96q-128 0 -200.5 -96t-72.5 -267t72.5 -267
t200.5 -96z" />
    <glyph glyph-name="ocircumflex" unicode="&#xf4;" horiz-adv-x="1173" 
d="M678 1563l270 -311h-202l-157 192h-7l-157 -192h-202l270 311h185zM586 -16q-242 0 -384 151t-142 412q0 258 142.5 409.5t383.5 151.5q242 0 384.5 -151t142.5 -410q0 -261 -142 -412t-385 -151zM586 183q129 0 201.5 95.5t72.5 267.5q0 171 -72.5 267t-201.5 96
q-128 0 -200.5 -96t-72.5 -267t72.5 -267t200.5 -96z" />
    <glyph glyph-name="otilde" unicode="&#xf5;" horiz-adv-x="1173" 
d="M724 1258q-37 0 -70 14.5t-56.5 35.5t-44 42t-42 35.5t-42.5 14.5q-32 0 -50 -33.5t-19 -92.5h-141q0 123 55 193.5t146 70.5q39 0 73 -14.5t58 -35.5t45 -42t42 -35.5t40 -14.5q63 0 65 128h141q0 -121 -56 -193.5t-144 -72.5zM586 -16q-242 0 -384 151t-142 412
q0 258 142.5 409.5t383.5 151.5q242 0 384.5 -151t142.5 -410q0 -261 -142 -412t-385 -151zM586 183q129 0 201.5 95.5t72.5 267.5q0 171 -72.5 267t-201.5 96q-128 0 -200.5 -96t-72.5 -267t72.5 -267t200.5 -96z" />
    <glyph glyph-name="odieresis" unicode="&#xf6;" horiz-adv-x="1173" 
d="M381 1259q-53 0 -90 36.5t-37 87.5q0 52 37 88.5t90 36.5t90 -36.5t37 -88.5q0 -51 -37 -87.5t-90 -36.5zM791 1259q-53 0 -90 36.5t-37 87.5q0 52 37 88.5t90 36.5t89.5 -36.5t36.5 -88.5q0 -51 -36.5 -87.5t-89.5 -36.5zM586 -16q-242 0 -384 151t-142 412
q0 258 142.5 409.5t383.5 151.5q242 0 384.5 -151t142.5 -410q0 -261 -142 -412t-385 -151zM586 183q129 0 201.5 95.5t72.5 267.5q0 171 -72.5 267t-201.5 96q-128 0 -200.5 -96t-72.5 -267t72.5 -267t200.5 -96z" />
    <glyph glyph-name="divide" unicode="&#xf7;" horiz-adv-x="1294" 
d="M648 807q-67 0 -109.5 40.5t-42.5 105.5t42.5 105.5t109.5 40.5q66 0 108.5 -41t42.5 -105t-42.5 -105t-108.5 -41zM648 52q-67 0 -109.5 40.5t-42.5 105.5t42.5 106t109.5 41q66 0 108.5 -41.5t42.5 -105.5t-42.5 -105t-108.5 -41zM1175 479h-1056v193h1056v-193z" />
    <glyph glyph-name="oslash" unicode="&#xf8;" horiz-adv-x="1173" 
d="M812 774l-359 -556q58 -35 133 -35q129 0 201.5 95.5t72.5 267.5q0 137 -48 228zM366 309l363 559q-61 41 -143 41q-128 0 -200.5 -96t-72.5 -267q0 -143 53 -237zM1015 1089l-69 -108q167 -153 167 -434q0 -261 -142 -412t-385 -151q-141 0 -250 53l-61 -95l-104 66
l63 96q-174 152 -174 443q0 258 142.5 409.5t383.5 151.5q147 0 261 -58l64 99z" />
    <glyph glyph-name="ugrave" unicode="&#xf9;" horiz-adv-x="1174" 
d="M684 1258h-201l-262 307h246zM1068 1093v-1093h-239v191h-6q-92 -205 -335 -205q-179 0 -283 108.5t-104 297.5v701h249v-651q0 -120 57 -182.5t167 -62.5q113 0 179 73.5t66 195.5v627h249z" />
    <glyph glyph-name="uacute" unicode="&#xfa;" horiz-adv-x="1174" 
d="M683 1258h-201l218 307h245zM1068 1093v-1093h-239v191h-6q-92 -205 -335 -205q-179 0 -283 108.5t-104 297.5v701h249v-651q0 -120 57 -182.5t167 -62.5q113 0 179 73.5t66 195.5v627h249z" />
    <glyph glyph-name="ucircumflex" unicode="&#xfb;" horiz-adv-x="1174" 
d="M677 1563l270 -311h-202l-157 192h-7l-157 -192h-202l270 311h185zM1068 1093v-1093h-239v191h-6q-92 -205 -335 -205q-179 0 -283 108.5t-104 297.5v701h249v-651q0 -120 57 -182.5t167 -62.5q113 0 179 73.5t66 195.5v627h249z" />
    <glyph glyph-name="udieresis" unicode="&#xfc;" horiz-adv-x="1174" 
d="M1068 1093v-1093h-239v191h-6q-92 -205 -335 -205q-179 0 -283 108.5t-104 297.5v701h249v-651q0 -120 57 -182.5t167 -62.5q113 0 179 73.5t66 195.5v627h249zM380 1259q-53 0 -90 36.5t-37 87.5q0 52 37 88.5t90 36.5t90 -36.5t37 -88.5q0 -51 -37 -87.5t-90 -36.5z
M790 1259q-53 0 -90 36.5t-37 87.5q0 52 37 88.5t90 36.5t89.5 -36.5t36.5 -88.5q0 -51 -36.5 -87.5t-89.5 -36.5z" />
    <glyph glyph-name="yacute" unicode="&#xfd;" horiz-adv-x="1096" 
d="M228 -398q-73 0 -98 5v198q19 -4 68 -4q80 0 126.5 33.5t69.5 110.5l14 51l-391 1097h271l262 -878h5l261 878h263l-396 -1131q-70 -201 -170.5 -280.5t-284.5 -79.5zM647 1258h-201l218 307h245z" />
    <glyph glyph-name="thorn" unicode="&#xfe;" horiz-adv-x="1223" 
d="M712 1111q208 0 328.5 -151.5t120.5 -413.5q0 -260 -120.5 -412t-327.5 -152q-117 0 -205 48.5t-129 135.5h-17v-517h-248v1858h243v-595h17q47 93 136.5 146t201.5 53zM633 188q128 0 200.5 95t72.5 263t-72.5 263t-200.5 95q-127 0 -201 -96t-74 -262t74 -262t201 -96z
" />
    <glyph glyph-name="ydieresis" unicode="&#xff;" horiz-adv-x="1096" 
d="M228 -398q-73 0 -98 5v198q19 -4 68 -4q80 0 126.5 33.5t69.5 110.5l14 51l-391 1097h271l262 -878h5l261 878h263l-396 -1131q-70 -201 -170.5 -280.5t-284.5 -79.5zM344 1259q-53 0 -90 36.5t-37 87.5q0 52 37 88.5t90 36.5t90 -36.5t37 -88.5q0 -51 -37 -87.5
t-90 -36.5zM754 1259q-53 0 -90 36.5t-37 87.5q0 52 37 88.5t90 36.5t89.5 -36.5t36.5 -88.5q0 -51 -36.5 -87.5t-89.5 -36.5z" />
    <glyph glyph-name="Amacron" unicode="&#x100;" horiz-adv-x="1369" 
d="M1070 0l-123 373h-531l-123 -373h-266l512 1443h291l512 -1443h-272zM678 1188l-202 -616h410l-201 616h-7zM1019 1760v-129h-670v129h670z" />
    <glyph glyph-name="amacron" unicode="&#x101;" horiz-adv-x="1116" 
d="M501 179q114 0 190 64t76 163v83l-250 -16q-208 -14 -208 -150q0 -66 52.5 -105t139.5 -39zM428 -12q-162 0 -265.5 90t-103.5 235q0 146 108.5 228t315.5 95l284 17v80q0 86 -55.5 132.5t-156.5 46.5q-84 0 -141 -40t-70 -107h-230q5 150 130.5 246.5t318.5 96.5
q205 0 327.5 -98t122.5 -261v-749h-239v176h-6q-45 -87 -137.5 -137.5t-202.5 -50.5zM887 1436v-130h-656v130h656z" />
    <glyph glyph-name="Abreve" unicode="&#x102;" horiz-adv-x="1369" 
d="M1070 0l-123 373h-531l-123 -373h-266l512 1443h291l512 -1443h-272zM678 1188l-202 -616h410l-201 616h-7zM347 1856h156q1 -78 52 -129.5t129 -51.5t129 51.5t52 129.5h156q-2 -136 -94 -223t-243 -87t-243 87t-94 223z" />
    <glyph glyph-name="abreve" unicode="&#x103;" horiz-adv-x="1116" 
d="M501 179q114 0 190 64t76 163v83l-250 -16q-208 -14 -208 -150q0 -66 52.5 -105t139.5 -39zM428 -12q-162 0 -265.5 90t-103.5 235q0 146 108.5 228t315.5 95l284 17v80q0 86 -55.5 132.5t-156.5 46.5q-84 0 -141 -40t-70 -107h-230q5 150 130.5 246.5t318.5 96.5
q205 0 327.5 -98t122.5 -261v-749h-239v176h-6q-45 -87 -137.5 -137.5t-202.5 -50.5zM213 1563h159q1 -79 53.5 -132.5t132.5 -53.5t132.5 53.5t53.5 132.5h159q-2 -140 -96 -229t-249 -89t-249 89t-96 229z" />
    <glyph glyph-name="Aogonek" unicode="&#x104;" horiz-adv-x="1369" 
d="M678 1188l-202 -616h410l-201 616h-7zM1294 -433q-51 -19 -125 -19q-115 0 -189 61t-74 156q0 140 162 239l-121 369h-531l-123 -373h-266l512 1443h291l512 -1443l-32 -3q-86 -22 -142.5 -75t-56.5 -112q0 -44 31.5 -70.5t83.5 -26.5q47 0 68 7v-153z" />
    <glyph glyph-name="aogonek" unicode="&#x105;" horiz-adv-x="1116" 
d="M501 179q114 0 190 64t76 163v83l-250 -16q-208 -14 -208 -150q0 -66 52.5 -105t139.5 -39zM987 -433q-51 -19 -125 -19q-116 0 -189.5 60.5t-73.5 155.5q0 74 48.5 139.5t126.5 98.5v174h-6q-45 -87 -137.5 -137.5t-202.5 -50.5q-162 0 -265.5 90t-103.5 235
q0 146 108.5 228t315.5 95l284 17v80q0 86 -55.5 132.5t-156.5 46.5q-84 0 -141 -40t-70 -107h-230q5 150 130.5 246.5t318.5 96.5q205 0 327.5 -98t122.5 -261v-749l-27 -6q-82 -26 -132 -76.5t-50 -107.5q0 -43 31 -70t85 -27q46 0 67 7v-153z" />
    <glyph glyph-name="Cacute" unicode="&#x106;" horiz-adv-x="1439" 
d="M838 1553h-198l231 306h246zM749 -24q-310 0 -490.5 200t-180.5 546q0 344 181.5 544.5t489.5 200.5q252 0 425 -143.5t197 -375.5h-254q-25 136 -126.5 218t-241.5 82q-186 0 -296.5 -142.5t-110.5 -383.5q0 -243 110 -385t298 -142q143 0 240.5 73.5t127.5 203.5h253
q-34 -232 -200 -364t-422 -132z" />
    <glyph glyph-name="cacute" unicode="&#x107;" horiz-adv-x="1112" 
d="M1063 706h-235q-14 89 -78 144t-166 55q-123 0 -197 -97t-74 -261q0 -168 74 -264t198 -96q100 0 163.5 50t80.5 143h235q-16 -180 -146.5 -288t-334.5 -108q-239 0 -381 151.5t-142 411.5q0 256 142 408.5t379 152.5q209 0 339 -114t143 -288zM671 1258h-201l218 307
h245z" />
    <glyph glyph-name="Ccircumflex" unicode="&#x108;" horiz-adv-x="1439" 
d="M749 -24q-310 0 -490.5 200t-180.5 546q0 344 181.5 544.5t489.5 200.5q252 0 425 -143.5t197 -375.5h-254q-25 136 -126.5 218t-241.5 82q-186 0 -296.5 -142.5t-110.5 -383.5q0 -243 110 -385t298 -142q143 0 240.5 73.5t127.5 203.5h253q-34 -232 -200 -364t-422 -132
zM643 1857h196l281 -310h-203l-174 198h-4l-174 -198h-203z" />
    <glyph glyph-name="ccircumflex" unicode="&#x109;" horiz-adv-x="1112" 
d="M665 1563l270 -311h-202l-157 192h-7l-157 -192h-202l270 311h185zM1063 706h-235q-14 89 -78 144t-166 55q-123 0 -197 -97t-74 -261q0 -168 74 -264t198 -96q100 0 163.5 50t80.5 143h235q-16 -180 -146.5 -288t-334.5 -108q-239 0 -381 151.5t-142 411.5
q0 256 142 408.5t379 152.5q209 0 339 -114t143 -288z" />
    <glyph glyph-name="Cdotaccent" unicode="&#x10a;" horiz-adv-x="1439" 
d="M741 1570q-58 0 -98.5 41t-40.5 98q0 58 40.5 98.5t98.5 40.5t98.5 -40.5t40.5 -98.5q0 -57 -40.5 -98t-98.5 -41zM749 -24q-310 0 -490.5 200t-180.5 546q0 344 181.5 544.5t489.5 200.5q252 0 425 -143.5t197 -375.5h-254q-25 136 -126.5 218t-241.5 82
q-186 0 -296.5 -142.5t-110.5 -383.5q0 -243 110 -385t298 -142q143 0 240.5 73.5t127.5 203.5h253q-34 -232 -200 -364t-422 -132z" />
    <glyph glyph-name="cdotaccent" unicode="&#x10b;" horiz-adv-x="1112" 
d="M1063 706h-235q-14 89 -78 144t-166 55q-123 0 -197 -97t-74 -261q0 -168 74 -264t198 -96q100 0 163.5 50t80.5 143h235q-16 -180 -146.5 -288t-334.5 -108q-239 0 -381 151.5t-142 411.5q0 256 142 408.5t379 152.5q209 0 339 -114t143 -288zM573 1262q-59 0 -100 41
t-41 99q0 57 41 98t100 41q58 0 99 -41t41 -98q0 -58 -41 -99t-99 -41z" />
    <glyph glyph-name="Ccaron" unicode="&#x10c;" horiz-adv-x="1439" 
d="M749 -24q-310 0 -490.5 200t-180.5 546q0 344 181.5 544.5t489.5 200.5q252 0 425 -143.5t197 -375.5h-254q-25 136 -126.5 218t-241.5 82q-186 0 -296.5 -142.5t-110.5 -383.5q0 -243 110 -385t298 -142q143 0 240.5 73.5t127.5 203.5h253q-34 -232 -200 -364t-422 -132
zM643 1547l-281 310h203l174 -198h4l174 198h203l-281 -310h-196z" />
    <glyph glyph-name="ccaron" unicode="&#x10d;" horiz-adv-x="1112" 
d="M665 1252h-185l-270 311h202l157 -191h7l157 191h202zM1063 706h-235q-14 89 -78 144t-166 55q-123 0 -197 -97t-74 -261q0 -168 74 -264t198 -96q100 0 163.5 50t80.5 143h235q-16 -180 -146.5 -288t-334.5 -108q-239 0 -381 151.5t-142 411.5q0 256 142 408.5
t379 152.5q209 0 339 -114t143 -288z" />
    <glyph glyph-name="Dcaron" unicode="&#x10e;" horiz-adv-x="1424" 
d="M512 1546l-281 310h203l174 -198h4l174 198h203l-281 -310h-196zM127 1443h534q324 0 505 -188t181 -530q0 -343 -181 -534t-505 -191h-534v1443zM385 1225v-1007h249q218 0 334 130t116 376q0 242 -117 371.5t-333 129.5h-249z" />
    <glyph glyph-name="dcaron" unicode="&#x10f;" horiz-adv-x="1397" 
d="M1260 1507h189l-36 -498h-153v498zM515 -12q-205 0 -330 152.5t-125 406.5q0 253 125 405.5t329 152.5q117 0 206 -52t134 -144h6v601h249v-1510h-244v186h-5q-45 -92 -135.5 -145t-209.5 -53zM588 898q-124 0 -198.5 -96t-74.5 -256q0 -161 74.5 -256t198.5 -95
t198.5 96t74.5 255q0 158 -75 255t-198 97z" />
    <glyph glyph-name="Dcroat" unicode="&#x110;" horiz-adv-x="1441" 
d="M402 218h249q218 0 334 130t116 376q0 242 -117 371.5t-333 129.5h-249v-388h263v-200h-263v-419zM144 1443h534q324 0 505 -188t181 -530q0 -343 -181 -534t-505 -191h-534v637h-109v200h109v606z" />
    <glyph glyph-name="dcroat" unicode="&#x111;" horiz-adv-x="1243" 
d="M588 195q124 0 198.5 96t74.5 255q0 158 -75 255t-198 97q-124 0 -198.5 -96t-74.5 -256q0 -161 74.5 -256t198.5 -95zM1222 1398v-141h-113v-1257h-244v186h-5q-45 -92 -135.5 -145t-209.5 -53q-205 0 -330 152.5t-125 406.5q0 253 125 405.5t329 152.5q117 0 206 -52
t134 -144h6v348h-227v141h227v112h249v-112h113z" />
    <glyph glyph-name="Emacron" unicode="&#x112;" horiz-adv-x="1158" 
d="M1061 218v-218h-934v1443h934v-218h-676v-390h639v-205h-639v-412h676zM929 1760v-129h-670v129h670z" />
    <glyph glyph-name="emacron" unicode="&#x113;" horiz-adv-x="1135" 
d="M574 914q-109 0 -182 -72.5t-81 -189.5h518q-4 118 -74 190t-181 72zM830 325h234q-24 -152 -157 -246.5t-324 -94.5q-242 0 -382.5 150t-140.5 408t139.5 412t374.5 154q230 0 365 -146t135 -394v-82h-765v-15q0 -132 77 -212.5t202 -80.5q90 0 155 39.5t87 107.5z
M901 1436v-130h-656v130h656z" />
    <glyph glyph-name="Ebreve" unicode="&#x114;" horiz-adv-x="1158" 
d="M1061 218v-218h-934v1443h934v-218h-676v-390h639v-205h-639v-412h676zM257 1856h156q1 -78 52 -129.5t129 -51.5t129 51.5t52 129.5h156q-2 -136 -94 -223t-243 -87t-243 87t-94 223z" />
    <glyph glyph-name="ebreve" unicode="&#x115;" horiz-adv-x="1135" 
d="M574 914q-109 0 -182 -72.5t-81 -189.5h518q-4 118 -74 190t-181 72zM830 325h234q-24 -152 -157 -246.5t-324 -94.5q-242 0 -382.5 150t-140.5 408t139.5 412t374.5 154q230 0 365 -146t135 -394v-82h-765v-15q0 -132 77 -212.5t202 -80.5q90 0 155 39.5t87 107.5z
M227 1563h159q1 -79 53.5 -132.5t132.5 -53.5t132.5 53.5t53.5 132.5h159q-2 -140 -96 -229t-249 -89t-249 89t-96 229z" />
    <glyph glyph-name="Edotaccent" unicode="&#x116;" horiz-adv-x="1158" 
d="M594 1569q-58 0 -98.5 41t-40.5 98q0 58 40.5 98.5t98.5 40.5t98.5 -40.5t40.5 -98.5q0 -57 -40.5 -98t-98.5 -41zM1061 218v-218h-934v1443h934v-218h-676v-390h639v-205h-639v-412h676z" />
    <glyph glyph-name="edotaccent" unicode="&#x117;" horiz-adv-x="1135" 
d="M573 1262q-59 0 -100 41t-41 99q0 57 41 98t100 41q58 0 99 -41t41 -98q0 -58 -41 -99t-99 -41zM574 914q-109 0 -182 -72.5t-81 -189.5h518q-4 118 -74 190t-181 72zM830 325h234q-24 -152 -157 -246.5t-324 -94.5q-242 0 -382.5 150t-140.5 408t139.5 412t374.5 154
q230 0 365 -146t135 -394v-82h-765v-15q0 -132 77 -212.5t202 -80.5q90 0 155 39.5t87 107.5z" />
    <glyph glyph-name="Eogonek" unicode="&#x118;" horiz-adv-x="1158" 
d="M884 -452q-115 0 -188.5 61t-73.5 156q0 69 40 130t110 101v4h-645v1443h934v-218h-676v-390h639v-205h-639v-412h676v-210l-46 -12q-78 -22 -133.5 -75t-55.5 -111q0 -44 32 -70.5t84 -26.5q45 0 68 7v-153q-52 -19 -126 -19z" />
    <glyph glyph-name="eogonek" unicode="&#x119;" horiz-adv-x="1135" 
d="M780 -452q-116 0 -189.5 60.5t-73.5 155.5q0 129 136 220v5q-37 -5 -70 -5q-242 0 -382.5 150t-140.5 408t139.5 412t374.5 154q230 0 365 -146t135 -394v-82h-765v-15q0 -132 77 -212.5t202 -80.5q90 0 155 39.5t87 107.5h234q-23 -148 -183 -274q-159 -127 -159 -238
q0 -46 31.5 -73t84.5 -27q45 0 68 7v-153q-52 -19 -126 -19zM574 914q-109 0 -182 -72.5t-81 -189.5h518q-4 118 -74 190t-181 72z" />
    <glyph glyph-name="Ecaron" unicode="&#x11a;" horiz-adv-x="1158" 
d="M496 1546l-281 310h203l174 -198h4l174 198h203l-281 -310h-196zM1061 218v-218h-934v1443h934v-218h-676v-390h639v-205h-639v-412h676z" />
    <glyph glyph-name="ecaron" unicode="&#x11b;" horiz-adv-x="1135" 
d="M665 1252h-185l-270 311h202l157 -191h7l157 191h202zM574 914q-109 0 -182 -72.5t-81 -189.5h518q-4 118 -74 190t-181 72zM830 325h234q-24 -152 -157 -246.5t-324 -94.5q-242 0 -382.5 150t-140.5 408t139.5 412t374.5 154q230 0 365 -146t135 -394v-82h-765v-15
q0 -132 77 -212.5t202 -80.5q90 0 155 39.5t87 107.5z" />
    <glyph glyph-name="Gcircumflex" unicode="&#x11c;" horiz-adv-x="1473" 
d="M650 1856h196l281 -310h-203l-174 198h-4l-174 -198h-203zM1390 602q0 -294 -166.5 -460t-462.5 -166q-316 0 -499.5 201.5t-183.5 549.5q0 343 182.5 541.5t495.5 198.5q246 0 417 -133t206 -350h-262q-37 124 -132 194t-228 70q-195 0 -305 -137t-110 -381
q0 -249 113.5 -392t308.5 -143q163 0 266.5 94t106.5 246l1 24h-348v197h600v-154z" />
    <glyph glyph-name="gcircumflex" unicode="&#x11d;" horiz-adv-x="1215" 
d="M681 1563l270 -311h-202l-157 192h-7l-157 -192h-202l270 311h185zM585 205q125 0 200 93.5t75 250.5q0 158 -75.5 253.5t-199.5 95.5q-123 0 -196.5 -94.5t-73.5 -254.5q0 -158 73.5 -251t196.5 -93zM585 -412q-198 0 -332.5 92t-154.5 237h248q21 -65 88 -104t159 -39
q125 0 196 64.5t71 172.5v183h-6q-44 -88 -135 -139t-208 -51q-204 0 -327.5 148.5t-123.5 397.5q0 254 123.5 404.5t332.5 150.5q116 0 206 -52t138 -144h5v184h244v-1075q0 -195 -143.5 -312.5t-380.5 -117.5z" />
    <glyph glyph-name="Gbreve" unicode="&#x11e;" horiz-adv-x="1473" 
d="M1390 602q0 -294 -166.5 -460t-462.5 -166q-316 0 -499.5 201.5t-183.5 549.5q0 343 182.5 541.5t495.5 198.5q246 0 417 -133t206 -350h-262q-37 124 -132 194t-228 70q-195 0 -305 -137t-110 -381q0 -249 113.5 -392t308.5 -143q163 0 266.5 94t106.5 246l1 24h-348
v197h600v-154zM411 1856h156q1 -78 52 -129.5t129 -51.5t129 51.5t52 129.5h156q-2 -136 -94 -223t-243 -87t-243 87t-94 223z" />
    <glyph glyph-name="gbreve" unicode="&#x11f;" horiz-adv-x="1215" 
d="M243 1563h159q1 -79 53.5 -132.5t132.5 -53.5t132.5 53.5t53.5 132.5h159q-2 -140 -96 -229t-249 -89t-249 89t-96 229zM585 205q125 0 200 93.5t75 250.5q0 158 -75.5 253.5t-199.5 95.5q-123 0 -196.5 -94.5t-73.5 -254.5q0 -158 73.5 -251t196.5 -93zM585 -412
q-198 0 -332.5 92t-154.5 237h248q21 -65 88 -104t159 -39q125 0 196 64.5t71 172.5v183h-6q-44 -88 -135 -139t-208 -51q-204 0 -327.5 148.5t-123.5 397.5q0 254 123.5 404.5t332.5 150.5q116 0 206 -52t138 -144h5v184h244v-1075q0 -195 -143.5 -312.5t-380.5 -117.5z
" />
    <glyph glyph-name="Gdotaccent" unicode="&#x120;" horiz-adv-x="1473" 
d="M748 1569q-58 0 -98.5 41t-40.5 98q0 58 40.5 98.5t98.5 40.5t98.5 -40.5t40.5 -98.5q0 -57 -40.5 -98t-98.5 -41zM1390 602q0 -294 -166.5 -460t-462.5 -166q-316 0 -499.5 201.5t-183.5 549.5q0 343 182.5 541.5t495.5 198.5q246 0 417 -133t206 -350h-262
q-37 124 -132 194t-228 70q-195 0 -305 -137t-110 -381q0 -249 113.5 -392t308.5 -143q163 0 266.5 94t106.5 246l1 24h-348v197h600v-154z" />
    <glyph glyph-name="gdotaccent" unicode="&#x121;" horiz-adv-x="1215" 
d="M589 1262q-59 0 -100 41t-41 99q0 57 41 98t100 41q58 0 99 -41t41 -98q0 -58 -41 -99t-99 -41zM585 205q125 0 200 93.5t75 250.5q0 158 -75.5 253.5t-199.5 95.5q-123 0 -196.5 -94.5t-73.5 -254.5q0 -158 73.5 -251t196.5 -93zM585 -412q-198 0 -332.5 92t-154.5 237
h248q21 -65 88 -104t159 -39q125 0 196 64.5t71 172.5v183h-6q-44 -88 -135 -139t-208 -51q-204 0 -327.5 148.5t-123.5 397.5q0 254 123.5 404.5t332.5 150.5q116 0 206 -52t138 -144h5v184h244v-1075q0 -195 -143.5 -312.5t-380.5 -117.5z" />
    <glyph glyph-name="Gcommaaccent" unicode="&#x122;" horiz-adv-x="1473" 
d="M728 -515h-183l110 354h219zM1390 602q0 -294 -166.5 -460t-462.5 -166q-316 0 -499.5 201.5t-183.5 549.5q0 343 182.5 541.5t495.5 198.5q246 0 417 -133t206 -350h-262q-37 124 -132 194t-228 70q-195 0 -305 -137t-110 -381q0 -249 113.5 -392t308.5 -143
q163 0 266.5 94t106.5 246l1 24h-348v197h600v-154z" />
    <glyph glyph-name="gcommaaccent" unicode="&#x123;" horiz-adv-x="1215" 
d="M648 1612h183l-110 -354h-219zM585 205q125 0 200 93.5t75 250.5q0 158 -75.5 253.5t-199.5 95.5q-123 0 -196.5 -94.5t-73.5 -254.5q0 -158 73.5 -251t196.5 -93zM585 -412q-198 0 -332.5 92t-154.5 237h248q21 -65 88 -104t159 -39q125 0 196 64.5t71 172.5v183h-6
q-44 -88 -135 -139t-208 -51q-204 0 -327.5 148.5t-123.5 397.5q0 254 123.5 404.5t332.5 150.5q116 0 206 -52t138 -144h5v184h244v-1075q0 -195 -143.5 -312.5t-380.5 -117.5z" />
    <glyph glyph-name="Hcircumflex" unicode="&#x124;" horiz-adv-x="1471" 
d="M1344 0h-257v626h-702v-626h-258v1443h258v-600h702v600h257v-1443zM638 1856h196l281 -310h-203l-174 198h-4l-174 -198h-203z" />
    <glyph glyph-name="hcircumflex" unicode="&#x125;" horiz-adv-x="1194" 
d="M114 0v1510h246v-607h5q98 203 345 203q179 0 281 -110t102 -298v-698h-249v648q0 117 -58 182t-170 65q-117 0 -185 -74.5t-68 -197.5v-623h-249zM141 1923h196l281 -310h-203l-174 198h-4l-174 -198h-203z" />
    <glyph glyph-name="Hbar" unicode="&#x126;" horiz-adv-x="1488" 
d="M1095 843v217h-702v-217h702zM1469 1246v-186h-117v-1060h-257v626h-702v-626h-258v1060h-115v186h115v197h258v-197h702v197h257v-197h117z" />
    <glyph glyph-name="hbar" unicode="&#x127;" horiz-adv-x="1194" 
d="M360 903h5q98 203 345 203q179 0 281 -110t102 -298v-698h-249v648q0 117 -58 182t-170 65q-117 0 -185 -74.5t-68 -197.5v-623h-249v1257h-93v141h93v112h246v-112h247v-141h-247v-354z" />
    <glyph glyph-name="Itilde" unicode="&#x128;" horiz-adv-x="512" 
d="M385 0h-258v1443h258v-1443zM391 1538q-37 0 -70 14.5t-56.5 35.5t-44 42t-42 35.5t-42.5 14.5q-32 0 -50 -33.5t-19 -92.5h-141q0 123 55 193.5t146 70.5q39 0 73 -14.5t58 -35.5t45 -42t42 -35.5t40 -14.5q63 0 65 128h141q0 -121 -56 -193.5t-144 -72.5z" />
    <glyph glyph-name="itilde" unicode="&#x129;" horiz-adv-x="475" 
d="M113 0v1093h249v-1093h-249zM375 1258q-37 0 -70 14.5t-56.5 35.5t-44 42t-42 35.5t-42.5 14.5q-32 0 -50 -33.5t-19 -92.5h-141q0 123 55 193.5t146 70.5q39 0 73 -14.5t58 -35.5t45 -42t42 -35.5t40 -14.5q63 0 65 128h141q0 -121 -56 -193.5t-144 -72.5z" />
    <glyph glyph-name="Imacron" unicode="&#x12a;" horiz-adv-x="512" 
d="M385 0h-258v1443h258v-1443zM591 1760v-129h-670v129h670z" />
    <glyph glyph-name="imacron" unicode="&#x12b;" horiz-adv-x="475" 
d="M113 0v1093h249v-1093h-249zM565 1436v-130h-656v130h656z" />
    <glyph glyph-name="Ibreve" unicode="&#x12c;" horiz-adv-x="512" 
d="M385 0h-258v1443h258v-1443zM-81 1856h156q1 -78 52 -129.5t129 -51.5t129 51.5t52 129.5h156q-2 -136 -94 -223t-243 -87t-243 87t-94 223z" />
    <glyph glyph-name="ibreve" unicode="&#x12d;" horiz-adv-x="475" 
d="M113 0v1093h249v-1093h-249zM-109 1563h159q1 -79 53.5 -132.5t132.5 -53.5t132.5 53.5t53.5 132.5h159q-2 -140 -96 -229t-249 -89t-249 89t-96 229z" />
    <glyph glyph-name="Iogonek" unicode="&#x12e;" horiz-adv-x="512" 
d="M127 -18v1461h258v-1443l-16 -5q-74 -36 -118.5 -83t-44.5 -99q0 -45 32.5 -72.5t87.5 -27.5q38 0 68 7v-153q-55 -19 -129 -19q-115 0 -188 60.5t-73 155.5q0 132 123 218z" />
    <glyph glyph-name="iogonek" unicode="&#x12f;" horiz-adv-x="475" 
d="M237 1232q-58 0 -99 40t-41 97q0 58 41 97.5t99 39.5q59 0 99.5 -39.5t40.5 -97.5t-40.5 -97.5t-99.5 -39.5zM113 -10v1103h249v-1093l-23 -5q-72 -33 -113.5 -80.5t-41.5 -101.5q0 -45 32 -72.5t87 -27.5q40 0 68 7v-153q-52 -19 -124 -19q-119 0 -192.5 61t-73.5 158
q0 64 35 123t97 100z" />
    <glyph glyph-name="Idotaccent" unicode="&#x130;" horiz-adv-x="512" 
d="M385 0h-258v1443h258v-1443zM256 1569q-58 0 -98.5 41t-40.5 98q0 58 40.5 98.5t98.5 40.5t98.5 -40.5t40.5 -98.5q0 -57 -40.5 -98t-98.5 -41z" />
    <glyph glyph-name="dotlessi" unicode="&#x131;" horiz-adv-x="475" 
d="M113 0v1093h249v-1093h-249z" />
    <glyph glyph-name="IJ" unicode="&#x132;" horiz-adv-x="1608" 
d="M385 0h-258v1443h258v-1443zM547 394h251q2 -89 58.5 -144t146.5 -55q104 0 158.5 61.5t54.5 178.5v1008h257v-1010q0 -220 -123.5 -342t-343.5 -122q-207 0 -333 116.5t-126 308.5z" />
    <glyph glyph-name="ij" unicode="&#x133;" horiz-adv-x="949" 
d="M113 0v1093h249v-1093h-249zM237 1232q-58 0 -99 40t-41 97q0 58 41 97.5t99 39.5q59 0 99.5 -39.5t40.5 -97.5t-40.5 -97.5t-99.5 -39.5zM837 1093v-1145q0 -331 -369 -331q-45 0 -61 2v191q2 0 16 -0.5t17 -0.5q80 0 114 33t34 110v1141h249zM712 1232q-58 0 -99 40
t-41 97q0 58 41 97.5t99 39.5q59 0 99.5 -39.5t40.5 -97.5t-40.5 -97.5t-99.5 -39.5z" />
    <glyph glyph-name="Jcircumflex" unicode="&#x134;" horiz-adv-x="1096" 
d="M35 394h251q2 -89 58.5 -144t146.5 -55q104 0 158.5 61.5t54.5 178.5v1008h257v-1010q0 -220 -123.5 -342t-343.5 -122q-207 0 -333 116.5t-126 308.5zM738 1856h196l281 -310h-203l-174 198h-4l-174 -198h-203z" />
    <glyph glyph-name="jcircumflex" unicode="&#x135;" horiz-adv-x="473" 
d="M362 1093v-1145q0 -331 -369 -331q-45 0 -61 2v191q2 0 16 -0.5t17 -0.5q80 0 114 33t34 110v1141h249zM329 1563l270 -311h-202l-157 192h-7l-157 -192h-202l270 311h185z" />
    <glyph glyph-name="Kcommaaccent" unicode="&#x136;" horiz-adv-x="1319" 
d="M385 0h-258v1443h258v-675h9l576 675h297l-556 -640l599 -803h-314l-469 630l-142 -166v-464zM625 -515h-183l110 354h219z" />
    <glyph glyph-name="kcommaaccent" unicode="&#x137;" horiz-adv-x="1090" 
d="M366 634l418 459h289l-442 -471l460 -622h-288l-352 471l-88 -89v-382h-249v1510h249v-876h3zM554 -515h-183l110 354h219z" />
    <glyph glyph-name="Lacute" unicode="&#x139;" horiz-adv-x="1098" 
d="M353 1552h-198l231 306h246zM1040 218v-218h-913v1443h258v-1225h655z" />
    <glyph glyph-name="lacute" unicode="&#x13a;" horiz-adv-x="478" 
d="M336 1619h-198l231 306h246zM114 0v1510h249v-1510h-249z" />
    <glyph glyph-name="Lcommaaccent" unicode="&#x13b;" horiz-adv-x="1098" 
d="M557 -515h-183l110 354h219zM1040 218v-218h-913v1443h258v-1225h655z" />
    <glyph glyph-name="lcommaaccent" unicode="&#x13c;" horiz-adv-x="478" 
d="M219 -515h-183l110 354h219zM114 0v1510h249v-1510h-249z" />
    <glyph glyph-name="Lcaron" unicode="&#x13d;" horiz-adv-x="1098" 
d="M643 1443h219l-50 -498h-169v498zM1040 218v-218h-913v1443h258v-1225h655z" />
    <glyph glyph-name="lcaron" unicode="&#x13e;" horiz-adv-x="660" 
d="M516 1507h188l-36 -498h-152v498zM114 0v1510h249v-1510h-249z" />
    <glyph glyph-name="Lslash" unicode="&#x141;" horiz-adv-x="1106" 
d="M393 218h655v-218h-913v660l-106 -52v179l106 52v604h258v-479l309 151v-179l-309 -151v-567z" />
    <glyph glyph-name="lslash" unicode="&#x142;" horiz-adv-x="511" 
d="M495 1049v-179l-115 -60v-810h-249v681l-115 -60v178l115 60v651h249v-521z" />
    <glyph glyph-name="Nacute" unicode="&#x143;" horiz-adv-x="1452" 
d="M823 1552h-198l231 306h246zM376 0h-249v1443h224l716 -1011h9v1011h248v-1443h-222l-717 1012h-9v-1012z" />
    <glyph glyph-name="nacute" unicode="&#x144;" horiz-adv-x="1174" 
d="M687 1258h-201l218 307h245zM106 0v1093h239v-190h5q99 203 343 203q181 0 280.5 -107.5t99.5 -298.5v-700h-249v651q0 118 -56.5 181t-167.5 63q-114 0 -179.5 -73.5t-65.5 -194.5v-627h-249z" />
    <glyph glyph-name="Ncommaaccent" unicode="&#x145;" horiz-adv-x="1452" 
d="M706 -515h-183l110 354h219zM376 0h-249v1443h224l716 -1011h9v1011h248v-1443h-222l-717 1012h-9v-1012z" />
    <glyph glyph-name="ncommaaccent" unicode="&#x146;" horiz-adv-x="1174" 
d="M576 -515h-183l110 354h219zM106 0v1093h239v-190h5q99 203 343 203q181 0 280.5 -107.5t99.5 -298.5v-700h-249v651q0 118 -56.5 181t-167.5 63q-114 0 -179.5 -73.5t-65.5 -194.5v-627h-249z" />
    <glyph glyph-name="Ncaron" unicode="&#x147;" horiz-adv-x="1452" 
d="M628 1546l-281 310h203l174 -198h4l174 198h203l-281 -310h-196zM376 0h-249v1443h224l716 -1011h9v1011h248v-1443h-222l-717 1012h-9v-1012z" />
    <glyph glyph-name="ncaron" unicode="&#x148;" horiz-adv-x="1174" 
d="M681 1252h-185l-270 311h202l157 -191h7l157 191h202zM106 0v1093h239v-190h5q99 203 343 203q181 0 280.5 -107.5t99.5 -298.5v-700h-249v651q0 118 -56.5 181t-167.5 63q-114 0 -179.5 -73.5t-65.5 -194.5v-627h-249z" />
    <glyph glyph-name="Omacron" unicode="&#x14c;" horiz-adv-x="1525" 
d="M763 1467q315 0 499.5 -201t184.5 -545t-184.5 -544.5t-499.5 -200.5q-316 0 -500.5 200.5t-184.5 544.5t184.5 545t500.5 201zM763 1247q-193 0 -307 -142t-114 -384q0 -241 114 -383t307 -142t307 142t114 383t-114 383.5t-307 142.5zM1098 1760v-129h-670v129h670z
" />
    <glyph glyph-name="omacron" unicode="&#x14d;" horiz-adv-x="1173" 
d="M914 1436v-130h-656v130h656zM586 -16q-242 0 -384 151t-142 412q0 258 142.5 409.5t383.5 151.5q242 0 384.5 -151t142.5 -410q0 -261 -142 -412t-385 -151zM586 183q129 0 201.5 95.5t72.5 267.5q0 171 -72.5 267t-201.5 96q-128 0 -200.5 -96t-72.5 -267t72.5 -267
t200.5 -96z" />
    <glyph glyph-name="Obreve" unicode="&#x14e;" horiz-adv-x="1525" 
d="M763 1467q315 0 499.5 -201t184.5 -545t-184.5 -544.5t-499.5 -200.5q-316 0 -500.5 200.5t-184.5 544.5t184.5 545t500.5 201zM763 1247q-193 0 -307 -142t-114 -384q0 -241 114 -383t307 -142t307 142t114 383t-114 383.5t-307 142.5zM426 1856h156q1 -78 52 -129.5
t129 -51.5t129 51.5t52 129.5h156q-2 -136 -94 -223t-243 -87t-243 87t-94 223z" />
    <glyph glyph-name="obreve" unicode="&#x14f;" horiz-adv-x="1173" 
d="M240 1563h159q1 -79 53.5 -132.5t132.5 -53.5t132.5 53.5t53.5 132.5h159q-2 -140 -96 -229t-249 -89t-249 89t-96 229zM586 -16q-242 0 -384 151t-142 412q0 258 142.5 409.5t383.5 151.5q242 0 384.5 -151t142.5 -410q0 -261 -142 -412t-385 -151zM586 183
q129 0 201.5 95.5t72.5 267.5q0 171 -72.5 267t-201.5 96q-128 0 -200.5 -96t-72.5 -267t72.5 -267t200.5 -96z" />
    <glyph glyph-name="Ohungarumlaut" unicode="&#x150;" horiz-adv-x="1525" 
d="M1039 1552h-192l231 306h239zM674 1552h-191l231 306h239zM763 1467q315 0 499.5 -201t184.5 -545t-184.5 -544.5t-499.5 -200.5q-316 0 -500.5 200.5t-184.5 544.5t184.5 545t500.5 201zM763 1247q-193 0 -307 -142t-114 -384q0 -241 114 -383t307 -142t307 142t114 383
t-114 383.5t-307 142.5z" />
    <glyph glyph-name="ohungarumlaut" unicode="&#x151;" horiz-adv-x="1173" 
d="M666 1258l192 307h231l-241 -307h-182zM315 1258l192 307h231l-241 -307h-182zM586 -16q-242 0 -384 151t-142 412q0 258 142.5 409.5t383.5 151.5q242 0 384.5 -151t142.5 -410q0 -261 -142 -412t-385 -151zM586 183q129 0 201.5 95.5t72.5 267.5q0 171 -72.5 267
t-201.5 96q-128 0 -200.5 -96t-72.5 -267t72.5 -267t200.5 -96z" />
    <glyph glyph-name="OE" unicode="&#x152;" horiz-adv-x="2216" 
d="M771 1249q-196 0 -311 -143t-115 -385t115 -384.5t311 -142.5q194 0 309.5 143t115.5 384t-115.5 384.5t-309.5 143.5zM1218 0v233q-61 -121 -190.5 -191.5t-287.5 -70.5q-297 0 -478 205t-181 545q0 341 181.5 546t479.5 205q160 0 284.5 -68.5t191.5 -194.5v234h901
v-218h-663v-390h625v-205h-625v-412h663v-218h-901z" />
    <glyph glyph-name="oe" unicode="&#x153;" horiz-adv-x="1928" 
d="M1392 -16q-132 0 -238.5 53.5t-163.5 148.5h-12q-134 -202 -398 -202q-238 0 -379 152.5t-141 408.5t141.5 409.5t377.5 153.5q265 0 399 -204h11q57 96 161.5 150t230.5 54q222 0 354.5 -147t132.5 -393v-82h-758v-21q0 -130 76.5 -208.5t202.5 -78.5q88 0 152 38.5
t83 102.5h234q-23 -146 -154 -240.5t-312 -94.5zM1621 652q-4 119 -72.5 190.5t-177.5 71.5q-110 0 -182 -72.5t-79 -189.5h511zM308 545q0 -168 72 -263t200 -95q129 0 200.5 95t71.5 264t-72 264t-200 95t-200 -95.5t-72 -264.5z" />
    <glyph glyph-name="Racute" unicode="&#x154;" horiz-adv-x="1287" 
d="M684 1552h-198l231 306h246zM385 1234v-493h298q123 0 190.5 65t67.5 182q0 114 -70.5 180t-193.5 66h-292zM385 543v-543h-258v1443h580q233 0 366 -120.5t133 -328.5q0 -145 -72 -255.5t-200 -156.5l315 -582h-295l-283 543h-286z" />
    <glyph glyph-name="racute" unicode="&#x155;" horiz-adv-x="719" 
d="M488 1258h-201l218 307h245zM106 0v1093h239v-190h5q26 96 95.5 149t166.5 53q48 0 80 -10v-226q-37 14 -103 14q-109 0 -171.5 -66.5t-62.5 -182.5v-634h-249z" />
    <glyph glyph-name="Rcommaaccent" unicode="&#x156;" horiz-adv-x="1287" 
d="M385 1234v-493h298q123 0 190.5 65t67.5 182q0 114 -70.5 180t-193.5 66h-292zM385 543v-543h-258v1443h580q233 0 366 -120.5t133 -328.5q0 -145 -72 -255.5t-200 -156.5l315 -582h-295l-283 543h-286zM567 -515h-183l110 354h219z" />
    <glyph glyph-name="rcommaaccent" unicode="&#x157;" horiz-adv-x="719" 
d="M106 0v1093h239v-190h5q26 96 95.5 149t166.5 53q48 0 80 -10v-226q-37 14 -103 14q-109 0 -171.5 -66.5t-62.5 -182.5v-634h-249zM212 -515h-183l110 354h219z" />
    <glyph glyph-name="Rcaron" unicode="&#x158;" horiz-adv-x="1287" 
d="M385 1234v-493h298q123 0 190.5 65t67.5 182q0 114 -70.5 180t-193.5 66h-292zM385 543v-543h-258v1443h580q233 0 366 -120.5t133 -328.5q0 -145 -72 -255.5t-200 -156.5l315 -582h-295l-283 543h-286zM489 1546l-281 310h203l174 -198h4l174 198h203l-281 -310h-196z
" />
    <glyph glyph-name="rcaron" unicode="&#x159;" horiz-adv-x="719" 
d="M482 1252h-185l-270 311h202l157 -191h7l157 191h202zM106 0v1093h239v-190h5q26 96 95.5 149t166.5 53q48 0 80 -10v-226q-37 14 -103 14q-109 0 -171.5 -66.5t-62.5 -182.5v-634h-249z" />
    <glyph glyph-name="Sacute" unicode="&#x15a;" horiz-adv-x="1265" 
d="M739 1552h-198l231 306h246zM68 406h250q12 -99 102 -159.5t223 -60.5q130 0 212.5 58t82.5 148q0 78 -60 126.5t-196 80.5l-187 44q-199 46 -295.5 143t-96.5 252q0 191 150 310t387 119q238 0 383.5 -117.5t150.5 -308.5h-246q-9 101 -87 158.5t-203 57.5
q-122 0 -197.5 -55t-75.5 -145q0 -72 58.5 -117t191.5 -77l166 -38q219 -50 318 -146t99 -257q0 -205 -153.5 -325.5t-415.5 -120.5q-250 0 -401.5 115.5t-159.5 314.5z" />
    <glyph glyph-name="sacute" unicode="&#x15b;" horiz-adv-x="1044" 
d="M87 777q0 149 121 240t318 91q189 0 309 -92.5t124 -241.5h-232q-6 69 -61.5 109.5t-144.5 40.5q-87 0 -139.5 -36.5t-52.5 -96.5q0 -91 159 -128l192 -44q165 -38 234.5 -106t69.5 -189q0 -152 -129 -246t-335 -94q-200 0 -324.5 92.5t-136.5 245.5h245
q11 -74 69.5 -114t156.5 -40q95 0 150.5 35.5t55.5 96.5q0 48 -33.5 76.5t-115.5 47.5l-198 48q-302 71 -302 305zM625 1258h-201l218 307h245z" />
    <glyph glyph-name="Scircumflex" unicode="&#x15c;" horiz-adv-x="1265" 
d="M68 406h250q12 -99 102 -159.5t223 -60.5q130 0 212.5 58t82.5 148q0 78 -60 126.5t-196 80.5l-187 44q-199 46 -295.5 143t-96.5 252q0 191 150 310t387 119q238 0 383.5 -117.5t150.5 -308.5h-246q-9 101 -87 158.5t-203 57.5q-122 0 -197.5 -55t-75.5 -145
q0 -72 58.5 -117t191.5 -77l166 -38q219 -50 318 -146t99 -257q0 -205 -153.5 -325.5t-415.5 -120.5q-250 0 -401.5 115.5t-159.5 314.5zM544 1856h196l281 -310h-203l-174 198h-4l-174 -198h-203z" />
    <glyph glyph-name="scircumflex" unicode="&#x15d;" horiz-adv-x="1044" 
d="M619 1563l270 -311h-202l-157 192h-7l-157 -192h-202l270 311h185zM87 777q0 149 121 240t318 91q189 0 309 -92.5t124 -241.5h-232q-6 69 -61.5 109.5t-144.5 40.5q-87 0 -139.5 -36.5t-52.5 -96.5q0 -91 159 -128l192 -44q165 -38 234.5 -106t69.5 -189
q0 -152 -129 -246t-335 -94q-200 0 -324.5 92.5t-136.5 245.5h245q11 -74 69.5 -114t156.5 -40q95 0 150.5 35.5t55.5 96.5q0 48 -33.5 76.5t-115.5 47.5l-198 48q-302 71 -302 305z" />
    <glyph glyph-name="Scedilla" unicode="&#x15e;" horiz-adv-x="1265" 
d="M615 863l166 -38q219 -50 318 -146t99 -257q0 -189 -131.5 -307.5t-360.5 -135.5l-42 -104q94 0 144 -40.5t50 -115.5q0 -83 -63 -132.5t-170 -50.5q-87 0 -142 17v111q37 -14 115 -14q111 0 111 62q0 32 -31 46t-103 14h-55v90l49 116q-225 14 -359.5 128t-141.5 300
h250q12 -99 102 -159.5t223 -60.5q130 0 212.5 58t82.5 148q0 78 -60 126.5t-196 80.5l-187 44q-199 46 -295.5 143t-96.5 252q0 191 150 310t387 119q238 0 383.5 -117.5t150.5 -308.5h-246q-9 101 -87 158.5t-203 57.5q-122 0 -197.5 -55t-75.5 -145q0 -72 58.5 -117
t191.5 -77z" />
    <glyph glyph-name="scedilla" unicode="&#x15f;" horiz-adv-x="1044" 
d="M488 663l192 -44q165 -38 234.5 -106t69.5 -189q0 -137 -106 -228t-282 -108l-45 -113q94 0 144 -40.5t50 -115.5q0 -83 -63 -132.5t-170 -50.5q-87 0 -142 17v111q37 -14 115 -14q111 0 111 62q0 32 -31 46t-103 14h-55v90l53 124q-175 14 -282.5 104.5t-118.5 231.5
h245q11 -74 69.5 -114t156.5 -40q95 0 150.5 35.5t55.5 96.5q0 48 -33.5 76.5t-115.5 47.5l-198 48q-302 71 -302 305q0 149 121 240t318 91q189 0 309 -92.5t124 -241.5h-232q-6 69 -61.5 109.5t-144.5 40.5q-87 0 -139.5 -36.5t-52.5 -96.5q0 -91 159 -128z" />
    <glyph glyph-name="Scaron" unicode="&#x160;" horiz-adv-x="1265" 
d="M68 406h250q12 -99 102 -159.5t223 -60.5q130 0 212.5 58t82.5 148q0 78 -60 126.5t-196 80.5l-187 44q-199 46 -295.5 143t-96.5 252q0 191 150 310t387 119q238 0 383.5 -117.5t150.5 -308.5h-246q-9 101 -87 158.5t-203 57.5q-122 0 -197.5 -55t-75.5 -145
q0 -72 58.5 -117t191.5 -77l166 -38q219 -50 318 -146t99 -257q0 -205 -153.5 -325.5t-415.5 -120.5q-250 0 -401.5 115.5t-159.5 314.5zM544 1546l-281 310h203l174 -198h4l174 198h203l-281 -310h-196z" />
    <glyph glyph-name="scaron" unicode="&#x161;" horiz-adv-x="1044" 
d="M619 1252h-185l-270 311h202l157 -191h7l157 191h202zM87 777q0 149 121 240t318 91q189 0 309 -92.5t124 -241.5h-232q-6 69 -61.5 109.5t-144.5 40.5q-87 0 -139.5 -36.5t-52.5 -96.5q0 -91 159 -128l192 -44q165 -38 234.5 -106t69.5 -189q0 -152 -129 -246t-335 -94
q-200 0 -324.5 92.5t-136.5 245.5h245q11 -74 69.5 -114t156.5 -40q95 0 150.5 35.5t55.5 96.5q0 48 -33.5 76.5t-115.5 47.5l-198 48q-302 71 -302 305z" />
    <glyph glyph-name="Tcedilla" unicode="&#x162;" horiz-adv-x="1230" 
d="M744 11v-11l-50 -125q94 0 144 -40.5t50 -115.5q0 -83 -63 -132.5t-170 -50.5q-87 0 -142 17v111q37 -14 115 -14q111 0 111 62q0 32 -31 46t-103 14h-55v90l58 138h-122v1225h-438v218h1134v-218h-438v-1214z" />
    <glyph glyph-name="tcedilla" unicode="&#x163;" horiz-adv-x="702" 
d="M491 -5l-48 -120q94 0 144 -40.5t50 -115.5q0 -83 -63 -132.5t-170 -50.5q-87 0 -142 17v111q37 -14 115 -14q111 0 111 62q0 32 -31 46t-103 14h-55v90l62 147q-98 24 -141.5 91.5t-43.5 189.5v610h-149v193h149v244h249v-244h207v-193h-207v-576q0 -133 132 -133
q34 0 74 5v-191q-45 -10 -131 -10h-9z" />
    <glyph glyph-name="Tcaron" unicode="&#x164;" horiz-adv-x="1230" 
d="M517 1546l-281 310h203l174 -198h4l174 198h203l-281 -310h-196zM744 0h-258v1225h-438v218h1134v-218h-438v-1225z" />
    <glyph glyph-name="tcaron" unicode="&#x165;" horiz-adv-x="820" 
d="M575 1735h189l-37 -497h-152v497zM176 1337h249v-244h207v-193h-207v-576q0 -133 132 -133q34 0 74 5v-191q-45 -10 -131 -10q-174 0 -249 68.5t-75 226.5v610h-149v193h149v244z" />
    <glyph glyph-name="Tbar" unicode="&#x166;" horiz-adv-x="1280" 
d="M1188 1225h-438v-428h310v-186h-310v-611h-258v611h-272v186h272v428h-438v218h1134v-218z" />
    <glyph glyph-name="tbar" unicode="&#x167;" horiz-adv-x="735" 
d="M650 493h-225v-169q0 -133 132 -133q34 0 74 5v-191q-45 -10 -131 -10q-174 0 -249 68.5t-75 226.5v203h-143v155h143v252h-149v193h149v244h249v-244h207v-193h-207v-252h225v-155z" />
    <glyph glyph-name="Utilde" unicode="&#x168;" horiz-adv-x="1441" 
d="M385 1443v-911q0 -150 88.5 -240.5t246.5 -90.5t247 90.5t89 240.5v911h257v-934q0 -239 -160.5 -386t-432.5 -147q-271 0 -432 147t-161 386v934h258zM855 1538q-37 0 -70 14.5t-56.5 35.5t-44 42t-42 35.5t-42.5 14.5q-32 0 -50 -33.5t-19 -92.5h-141q0 123 55 193.5
t146 70.5q39 0 73 -14.5t58 -35.5t45 -42t42 -35.5t40 -14.5q63 0 65 128h141q0 -121 -56 -193.5t-144 -72.5z" />
    <glyph glyph-name="utilde" unicode="&#x169;" horiz-adv-x="1174" 
d="M1068 1093v-1093h-239v191h-6q-92 -205 -335 -205q-179 0 -283 108.5t-104 297.5v701h249v-651q0 -120 57 -182.5t167 -62.5q113 0 179 73.5t66 195.5v627h249zM723 1258q-37 0 -70 14.5t-56.5 35.5t-44 42t-42 35.5t-42.5 14.5q-32 0 -50 -33.5t-19 -92.5h-141
q0 123 55 193.5t146 70.5q39 0 73 -14.5t58 -35.5t45 -42t42 -35.5t40 -14.5q63 0 65 128h141q0 -121 -56 -193.5t-144 -72.5z" />
    <glyph glyph-name="Umacron" unicode="&#x16a;" horiz-adv-x="1441" 
d="M385 1443v-911q0 -150 88.5 -240.5t246.5 -90.5t247 90.5t89 240.5v911h257v-934q0 -239 -160.5 -386t-432.5 -147q-271 0 -432 147t-161 386v934h258zM1055 1760v-129h-670v129h670z" />
    <glyph glyph-name="umacron" unicode="&#x16b;" horiz-adv-x="1174" 
d="M1068 1093v-1093h-239v191h-6q-92 -205 -335 -205q-179 0 -283 108.5t-104 297.5v701h249v-651q0 -120 57 -182.5t167 -62.5q113 0 179 73.5t66 195.5v627h249zM913 1436v-130h-656v130h656z" />
    <glyph glyph-name="Ubreve" unicode="&#x16c;" horiz-adv-x="1441" 
d="M385 1443v-911q0 -150 88.5 -240.5t246.5 -90.5t247 90.5t89 240.5v911h257v-934q0 -239 -160.5 -386t-432.5 -147q-271 0 -432 147t-161 386v934h258zM383 1856h156q1 -78 52 -129.5t129 -51.5t129 51.5t52 129.5h156q-2 -136 -94 -223t-243 -87t-243 87t-94 223z" />
    <glyph glyph-name="ubreve" unicode="&#x16d;" horiz-adv-x="1174" 
d="M1068 1093v-1093h-239v191h-6q-92 -205 -335 -205q-179 0 -283 108.5t-104 297.5v701h249v-651q0 -120 57 -182.5t167 -62.5q113 0 179 73.5t66 195.5v627h249zM239 1563h159q1 -79 53.5 -132.5t132.5 -53.5t132.5 53.5t53.5 132.5h159q-2 -140 -96 -229t-249 -89
t-249 89t-96 229z" />
    <glyph glyph-name="Uring" unicode="&#x16e;" horiz-adv-x="1441" 
d="M720 1511q-84 0 -145 60t-61 143q0 84 61 144t145 60t144.5 -60t60.5 -144q0 -83 -60.5 -143t-144.5 -60zM720 1611q43 0 74 30t31 73t-31 73.5t-74 30.5t-74 -30.5t-31 -73.5t31 -73t74 -30zM385 1443v-911q0 -150 88.5 -240.5t246.5 -90.5t247 90.5t89 240.5v911h257
v-934q0 -239 -160.5 -386t-432.5 -147q-271 0 -432 147t-161 386v934h258z" />
    <glyph glyph-name="uring" unicode="&#x16f;" horiz-adv-x="1174" 
d="M1068 1093v-1093h-239v191h-6q-92 -205 -335 -205q-179 0 -283 108.5t-104 297.5v701h249v-651q0 -120 57 -182.5t167 -62.5q113 0 179 73.5t66 195.5v627h249zM585 1201q-87 0 -150 62t-63 148q0 87 63 149t150 62t150 -62t63 -149q0 -86 -63 -148t-150 -62zM585 1305
q44 0 75.5 31t31.5 75t-31.5 75t-75.5 31t-75.5 -31t-31.5 -75t31.5 -75t75.5 -31z" />
    <glyph glyph-name="Uhungarumlaut" unicode="&#x170;" horiz-adv-x="1441" 
d="M385 1443v-911q0 -150 88.5 -240.5t246.5 -90.5t247 90.5t89 240.5v911h257v-934q0 -239 -160.5 -386t-432.5 -147q-271 0 -432 147t-161 386v934h258zM996 1552h-192l231 306h239zM631 1552h-191l231 306h239z" />
    <glyph glyph-name="uhungarumlaut" unicode="&#x171;" horiz-adv-x="1174" 
d="M665 1258l192 307h231l-241 -307h-182zM314 1258l192 307h231l-241 -307h-182zM1068 1093v-1093h-239v191h-6q-92 -205 -335 -205q-179 0 -283 108.5t-104 297.5v701h249v-651q0 -120 57 -182.5t167 -62.5q113 0 179 73.5t66 195.5v627h249z" />
    <glyph glyph-name="Uogonek" unicode="&#x172;" horiz-adv-x="1441" 
d="M966 -452q-116 0 -189.5 59.5t-73.5 153.5q0 129 140 227v6q-52 -18 -123 -18q-268 0 -430.5 146t-162.5 387v934h258v-911q0 -153 90 -242t245 -89t245.5 88.5t90.5 242.5v911h257v-934q0 -140 -58.5 -252t-183.5 -211q-163 -125 -163 -233q0 -45 32 -72.5t84 -27.5
q45 0 68 7v-153q-52 -19 -126 -19z" />
    <glyph glyph-name="uogonek" unicode="&#x173;" horiz-adv-x="1174" 
d="M1042 -433q-53 -19 -126 -19q-116 0 -189.5 60.5t-73.5 155.5q0 74 48.5 139.5t127.5 98.5v189h-6q-92 -205 -335 -205q-179 0 -283 108.5t-104 297.5v701h249v-651q0 -120 57 -182.5t167 -62.5q113 0 179 73.5t66 195.5v627h249v-1093l-28 -6q-81 -27 -131.5 -77
t-50.5 -107q0 -43 31.5 -70t84.5 -27q45 0 68 7v-153z" />
    <glyph glyph-name="Wcircumflex" unicode="&#x174;" horiz-adv-x="1946" 
d="M875 1856h196l281 -310h-203l-174 198h-4l-174 -198h-203zM968 1044l-295 -1044h-243l-387 1443h268l250 -1093h8l290 1093h228l290 -1093h8l250 1093h268l-387 -1443h-243l-295 1044h-10z" />
    <glyph glyph-name="wcircumflex" unicode="&#x175;" horiz-adv-x="1602" 
d="M893 1563l270 -311h-202l-157 192h-7l-157 -192h-202l270 311h185zM1579 1093l-297 -1093h-261l-218 803h-6l-217 -803h-259l-297 1093h249l188 -844h5l217 844h239l217 -844h5l189 844h246z" />
    <glyph glyph-name="Ycircumflex" unicode="&#x176;" horiz-adv-x="1323" 
d="M790 0h-257v569l-506 874h283l350 -628h6l349 628h281l-506 -874v-569zM563 1856h196l281 -310h-203l-174 198h-4l-174 -198h-203z" />
    <glyph glyph-name="ycircumflex" unicode="&#x177;" horiz-adv-x="1096" 
d="M228 -398q-73 0 -98 5v198q19 -4 68 -4q80 0 126.5 33.5t69.5 110.5l14 51l-391 1097h271l262 -878h5l261 878h263l-396 -1131q-70 -201 -170.5 -280.5t-284.5 -79.5zM641 1563l270 -311h-202l-157 192h-7l-157 -192h-202l270 311h185z" />
    <glyph glyph-name="Ydieresis" unicode="&#x178;" horiz-adv-x="1323" 
d="M790 0h-257v569l-506 874h283l350 -628h6l349 628h281l-506 -874v-569zM456 1569q-53 0 -90 36.5t-37 87.5q0 52 37 88.5t90 36.5t90 -36.5t37 -88.5q0 -51 -37 -87.5t-90 -36.5zM866 1569q-53 0 -90 36.5t-37 87.5q0 52 37 88.5t90 36.5t89.5 -36.5t36.5 -88.5
q0 -51 -36.5 -87.5t-89.5 -36.5z" />
    <glyph glyph-name="Zacute" unicode="&#x179;" horiz-adv-x="1281" 
d="M738 1552h-198l231 306h246zM92 0v172l766 1046v7h-745v218h1057v-172l-762 -1046v-7h781v-218h-1097z" />
    <glyph glyph-name="zacute" unicode="&#x17a;" horiz-adv-x="1034" 
d="M615 1258h-201l218 307h245zM84 0v152l571 741v5h-565v195h851v-166l-549 -728v-4h558v-195h-866z" />
    <glyph glyph-name="Zdotaccent" unicode="&#x17b;" horiz-adv-x="1281" 
d="M641 1569q-58 0 -98.5 41t-40.5 98q0 58 40.5 98.5t98.5 40.5t98.5 -40.5t40.5 -98.5q0 -57 -40.5 -98t-98.5 -41zM92 0v172l766 1046v7h-745v218h1057v-172l-762 -1046v-7h781v-218h-1097z" />
    <glyph glyph-name="zdotaccent" unicode="&#x17c;" horiz-adv-x="1034" 
d="M517 1262q-59 0 -100 41t-41 99q0 57 41 98t100 41q58 0 99 -41t41 -98q0 -58 -41 -99t-99 -41zM84 0v152l571 741v5h-565v195h851v-166l-549 -728v-4h558v-195h-866z" />
    <glyph glyph-name="Zcaron" unicode="&#x17d;" horiz-adv-x="1281" 
d="M92 0v172l766 1046v7h-745v218h1057v-172l-762 -1046v-7h781v-218h-1097zM543 1546l-281 310h203l174 -198h4l174 198h203l-281 -310h-196z" />
    <glyph glyph-name="zcaron" unicode="&#x17e;" horiz-adv-x="1034" 
d="M609 1252h-185l-270 311h202l157 -191h7l157 191h202zM84 0v152l571 741v5h-565v195h851v-166l-549 -728v-4h558v-195h-866z" />
    <glyph glyph-name="florin" unicode="&#x192;" horiz-adv-x="1294" 
d="M1239 1424v-205q-79 38 -177 38q-106 0 -164 -49.5t-74 -153.5l-27 -181h356v-186h-384l-48 -319q-30 -200 -141 -296t-307 -96q-131 0 -217 43v212q82 -47 187 -47q103 0 156.5 50t70.5 163l43 290h-324v186h352l31 205q30 194 144 289t317 95q125 0 206 -38z" />
    <glyph glyph-name="Ohorn" unicode="&#x1a0;" horiz-adv-x="1562" 
d="M763 -24q-317 0 -501 200.5t-184 544.5t184.5 545t500.5 201q83 0 215.5 -23t210.5 -23q58 0 83 21t25 70v154h205v-217q0 -89 -53 -141t-145 -52h-60v-6q87 -65 145 -216.5t58 -312.5q0 -344 -184 -544.5t-500 -200.5zM763 196q193 0 307 142t114 383q0 242 -114 384
t-307 142t-307 -142t-114 -384q0 -241 114 -383t307 -142z" />
    <glyph glyph-name="ohorn" unicode="&#x1a1;" horiz-adv-x="1242" 
d="M586 183q129 0 201.5 96t72.5 267t-72.5 267t-201.5 96q-128 0 -200.5 -96.5t-72.5 -266.5q0 -171 72.5 -267t200.5 -96zM1112 535q0 -250 -142.5 -400.5t-379.5 -150.5q-246 0 -388 151t-142 412q0 258 142 409.5t384 151.5q72 0 154.5 -16t132.5 -16q61 0 85 19.5
t24 68.5v142h205v-209q0 -82 -45 -130t-122 -48h-50v-5q68 -53 105 -152.5t37 -226.5z" />
    <glyph glyph-name="Uhorn" unicode="&#x1af;" horiz-adv-x="1637" 
d="M720 -25q-268 0 -430.5 146t-162.5 387v935h258v-912q0 -153 90 -241.5t245 -88.5t245.5 88.5t90.5 241.5v912h265q84 0 84 81v174h205v-221q0 -96 -58 -150t-160 -54h-79v-765q0 -241 -162 -387t-431 -146z" />
    <glyph glyph-name="uhorn" unicode="&#x1b0;" horiz-adv-x="1339" 
d="M823 191q-92 -205 -335 -205q-178 0 -282.5 108.5t-104.5 297.5v701h249v-651q0 -120 57.5 -182.5t166.5 -62.5q112 0 178.5 73t66.5 196v627h238q84 0 84 81v156h205v-204q0 -95 -58 -149t-160 -54h-60v-923h-239v191h-6z" />
    <glyph glyph-name="uni01C4" unicode="&#x1c4;" horiz-adv-x="2705" 
d="M127 1443h534q324 0 505 -188t181 -530q0 -343 -181 -534t-505 -191h-534v1443zM385 1225v-1007h249q218 0 334 130t116 376q0 242 -117 371.5t-333 129.5h-249zM1516 0v172l766 1046v7h-745v218h1057v-172l-762 -1046v-7h781v-218h-1097zM1967 1546l-281 310h203
l174 -198h4l174 198h203l-281 -310h-196z" />
    <glyph glyph-name="uni01C5" unicode="&#x1c5;" horiz-adv-x="2458" 
d="M127 1443h534q324 0 505 -188t181 -530q0 -343 -181 -534t-505 -191h-534v1443zM385 1225v-1007h249q218 0 334 130t116 376q0 242 -117 371.5t-333 129.5h-249zM2033 1252h-185l-270 311h202l157 -191h7l157 191h202zM1508 0v152l571 741v5h-565v195h851v-166l-549 -728
v-4h558v-195h-866z" />
    <glyph glyph-name="uni01C6" unicode="&#x1c6;" horiz-adv-x="2255" 
d="M515 -12q-205 0 -330 152.5t-125 406.5q0 253 125 405.5t329 152.5q117 0 206 -52t134 -144h6v601h249v-1510h-244v186h-5q-45 -92 -135.5 -145t-209.5 -53zM588 898q-124 0 -198.5 -96t-74.5 -256q0 -161 74.5 -256t198.5 -95t198.5 96t74.5 255q0 158 -75 255t-198 97z
M1830 1252h-185l-270 311h202l157 -191h7l157 191h202zM1305 0v152l571 741v5h-565v195h851v-166l-549 -728v-4h558v-195h-866z" />
    <glyph glyph-name="uni01C7" unicode="&#x1c7;" horiz-adv-x="2194" 
d="M1133 394h251q2 -89 58.5 -144t146.5 -55q104 0 158.5 61.5t54.5 178.5v1008h257v-1010q0 -220 -123.5 -342t-343.5 -122q-207 0 -333 116.5t-126 308.5zM1040 218v-218h-913v1443h258v-1225h655z" />
    <glyph glyph-name="uni01C8" unicode="&#x1c8;" horiz-adv-x="1573" 
d="M1460 1093v-1145q0 -331 -369 -331q-45 0 -61 2v191q2 0 16 -0.5t17 -0.5q80 0 114 33t34 110v1141h249zM1335 1232q-58 0 -99 40t-41 97q0 58 41 97.5t99 39.5q59 0 99.5 -39.5t40.5 -97.5t-40.5 -97.5t-99.5 -39.5zM1040 218v-218h-913v1443h258v-1225h655z" />
    <glyph glyph-name="uni01C9" unicode="&#x1c9;" horiz-adv-x="952" 
d="M840 1093v-1145q0 -331 -369 -331q-45 0 -61 2v191q2 0 16 -0.5t17 -0.5q80 0 114 33t34 110v1141h249zM715 1232q-58 0 -99 40t-41 97q0 58 41 97.5t99 39.5q59 0 99.5 -39.5t40.5 -97.5t-40.5 -97.5t-99.5 -39.5zM114 0v1510h249v-1510h-249z" />
    <glyph glyph-name="uni01CA" unicode="&#x1ca;" horiz-adv-x="2547" 
d="M1487 394h251q2 -89 58.5 -144t146.5 -55q104 0 158.5 61.5t54.5 178.5v1008h257v-1010q0 -220 -123.5 -342t-343.5 -122q-207 0 -333 116.5t-126 308.5zM376 0h-249v1443h224l716 -1011h9v1011h248v-1443h-222l-717 1012h-9v-1012z" />
    <glyph glyph-name="uni01CB" unicode="&#x1cb;" horiz-adv-x="1926" 
d="M1814 1093v-1145q0 -331 -369 -331q-45 0 -61 2v191q2 0 16 -0.5t17 -0.5q80 0 114 33t34 110v1141h249zM1689 1232q-58 0 -99 40t-41 97q0 58 41 97.5t99 39.5q59 0 99.5 -39.5t40.5 -97.5t-40.5 -97.5t-99.5 -39.5zM376 0h-249v1443h224l716 -1011h9v1011h248v-1443
h-222l-717 1012h-9v-1012z" />
    <glyph glyph-name="uni01CC" unicode="&#x1cc;" horiz-adv-x="1648" 
d="M1536 1093v-1145q0 -331 -369 -331q-45 0 -61 2v191q2 0 16 -0.5t17 -0.5q80 0 114 33t34 110v1141h249zM1411 1232q-58 0 -99 40t-41 97q0 58 41 97.5t99 39.5q59 0 99.5 -39.5t40.5 -97.5t-40.5 -97.5t-99.5 -39.5zM106 0v1093h239v-190h5q99 203 343 203
q181 0 280.5 -107.5t99.5 -298.5v-700h-249v651q0 118 -56.5 181t-167.5 63q-114 0 -179.5 -73.5t-65.5 -194.5v-627h-249z" />
    <glyph glyph-name="Acaron" unicode="&#x1cd;" horiz-adv-x="1369" 
d="M1070 0l-123 373h-531l-123 -373h-266l512 1443h291l512 -1443h-272zM678 1188l-202 -616h410l-201 616h-7zM586 1546l-281 310h203l174 -198h4l174 198h203l-281 -310h-196z" />
    <glyph glyph-name="acaron" unicode="&#x1ce;" horiz-adv-x="1116" 
d="M501 179q114 0 190 64t76 163v83l-250 -16q-208 -14 -208 -150q0 -66 52.5 -105t139.5 -39zM428 -12q-162 0 -265.5 90t-103.5 235q0 146 108.5 228t315.5 95l284 17v80q0 86 -55.5 132.5t-156.5 46.5q-84 0 -141 -40t-70 -107h-230q5 150 130.5 246.5t318.5 96.5
q205 0 327.5 -98t122.5 -261v-749h-239v176h-6q-45 -87 -137.5 -137.5t-202.5 -50.5zM651 1252h-185l-270 311h202l157 -191h7l157 191h202z" />
    <glyph glyph-name="Icaron" unicode="&#x1cf;" horiz-adv-x="512" 
d="M385 0h-258v1443h258v-1443zM158 1546l-281 310h203l174 -198h4l174 198h203l-281 -310h-196z" />
    <glyph glyph-name="icaron" unicode="&#x1d0;" horiz-adv-x="475" 
d="M329 1252h-185l-270 311h202l157 -191h7l157 191h202zM113 0v1093h249v-1093h-249z" />
    <glyph glyph-name="Ocaron" unicode="&#x1d1;" horiz-adv-x="1525" 
d="M665 1546l-281 310h203l174 -198h4l174 198h203l-281 -310h-196zM763 1467q315 0 499.5 -201t184.5 -545t-184.5 -544.5t-499.5 -200.5q-316 0 -500.5 200.5t-184.5 544.5t184.5 545t500.5 201zM763 1247q-193 0 -307 -142t-114 -384q0 -241 114 -383t307 -142t307 142
t114 383t-114 383.5t-307 142.5z" />
    <glyph glyph-name="ocaron" unicode="&#x1d2;" horiz-adv-x="1173" 
d="M678 1252h-185l-270 311h202l157 -191h7l157 191h202zM586 -16q-242 0 -384 151t-142 412q0 258 142.5 409.5t383.5 151.5q242 0 384.5 -151t142.5 -410q0 -261 -142 -412t-385 -151zM586 183q129 0 201.5 95.5t72.5 267.5q0 171 -72.5 267t-201.5 96q-128 0 -200.5 -96
t-72.5 -267t72.5 -267t200.5 -96z" />
    <glyph glyph-name="Ucaron" unicode="&#x1d3;" horiz-adv-x="1441" 
d="M622 1546l-281 310h203l174 -198h4l174 198h203l-281 -310h-196zM385 1443v-911q0 -150 88.5 -240.5t246.5 -90.5t247 90.5t89 240.5v911h257v-934q0 -239 -160.5 -386t-432.5 -147q-271 0 -432 147t-161 386v934h258z" />
    <glyph glyph-name="ucaron" unicode="&#x1d4;" horiz-adv-x="1174" 
d="M677 1252h-185l-270 311h202l157 -191h7l157 191h202zM1068 1093v-1093h-239v191h-6q-92 -205 -335 -205q-179 0 -283 108.5t-104 297.5v701h249v-651q0 -120 57 -182.5t167 -62.5q113 0 179 73.5t66 195.5v627h249z" />
    <glyph glyph-name="Udieresismacron" unicode="&#x1d5;" horiz-adv-x="1441" 
d="M385 1443v-911q0 -150 88.5 -240.5t246.5 -90.5t247 90.5t89 240.5v911h257v-934q0 -239 -160.5 -386t-432.5 -147q-271 0 -432 147t-161 386v934h258zM523 1805q49 0 83 -34t34 -82q0 -47 -34 -81t-83 -34q-50 0 -84 33.5t-34 81.5t34 82t84 34zM385 2055h670v-129h-670
v129zM917 1805q50 0 84 -34t34 -82t-34 -81.5t-84 -33.5q-49 0 -83 34t-34 81q0 48 34 82t83 34z" />
    <glyph glyph-name="udieresismacron" unicode="&#x1d6;" horiz-adv-x="1174" 
d="M1068 1093v-1093h-239v191h-6q-92 -205 -335 -205q-179 0 -283 108.5t-104 297.5v701h249v-651q0 -120 57 -182.5t167 -62.5q113 0 179 73.5t66 195.5v627h249zM384 1259q-50 0 -85 34.5t-35 83.5t35 83.5t85 34.5q51 0 86 -34t35 -84q0 -49 -35 -83.5t-86 -34.5z
M786 1259q-51 0 -86 34.5t-35 83.5q0 50 35 84t86 34t85.5 -34t34.5 -84q0 -49 -34.5 -83.5t-85.5 -34.5zM913 1789v-130h-656v130h656z" />
    <glyph glyph-name="Udieresisacute" unicode="&#x1d7;" horiz-adv-x="1441" 
d="M624 1873l190 229h230l-236 -229h-184zM523 1574q-50 0 -84 33.5t-34 81.5t34 82t84 34q49 0 83 -34t34 -82q0 -47 -34 -81t-83 -34zM917 1574q-49 0 -83 34t-34 81q0 48 34 82t83 34q50 0 84 -34t34 -82t-34 -81.5t-84 -33.5zM385 1443v-911q0 -150 88.5 -240.5
t246.5 -90.5t247 90.5t89 240.5v911h257v-934q0 -239 -160.5 -386t-432.5 -147q-271 0 -432 147t-161 386v934h258z" />
    <glyph glyph-name="udieresisacute" unicode="&#x1d8;" horiz-adv-x="1174" 
d="M489 1611l174 264h230l-211 -264h-193zM380 1259q-53 0 -90 36.5t-37 87.5q0 52 37 88.5t90 36.5t90 -36.5t37 -88.5q0 -51 -37 -87.5t-90 -36.5zM790 1259q-53 0 -90 36.5t-37 87.5q0 52 37 88.5t90 36.5t89.5 -36.5t36.5 -88.5q0 -51 -36.5 -87.5t-89.5 -36.5z
M1068 1093v-1093h-239v191h-6q-92 -205 -335 -205q-179 0 -283 108.5t-104 297.5v701h249v-651q0 -120 57 -182.5t167 -62.5q113 0 179 73.5t66 195.5v627h249z" />
    <glyph glyph-name="Udieresiscaron" unicode="&#x1d9;" horiz-adv-x="1441" 
d="M622 1873l-260 237h209l141 -130h16l141 130h209l-260 -237h-196zM523 1805q49 0 83 -34t34 -82q0 -47 -34 -81t-83 -34q-50 0 -84 33.5t-34 81.5t34 82t84 34zM917 1805q50 0 84 -34t34 -82t-34 -81.5t-84 -33.5q-49 0 -83 34t-34 81q0 48 34 82t83 34zM385 1443v-911
q0 -150 88.5 -240.5t246.5 -90.5t247 90.5t89 240.5v911h257v-934q0 -239 -160.5 -386t-432.5 -147q-271 0 -432 147t-161 386v934h258z" />
    <glyph glyph-name="udieresiscaron" unicode="&#x1da;" horiz-adv-x="1174" 
d="M384 1259q-52 0 -88 35.5t-36 85.5t36 86t88 36t88 -35.5t36 -86.5q0 -50 -36 -85.5t-88 -35.5zM786 1259q-52 0 -88 35.5t-36 85.5t36 86t88 36t88 -36t36 -86t-36 -85.5t-88 -35.5zM693 1599h-216l-259 282h200l164 -180h6l164 180h200zM1068 1093v-1093h-239v191h-6
q-92 -205 -335 -205q-179 0 -283 108.5t-104 297.5v701h249v-651q0 -120 57 -182.5t167 -62.5q113 0 179 73.5t66 195.5v627h249z" />
    <glyph glyph-name="Udieresisgrave" unicode="&#x1db;" horiz-adv-x="1441" 
d="M816 1873h-184l-236 229h230zM523 1574q-50 0 -84 33.5t-34 81.5t34 82t84 34q49 0 83 -34t34 -82q0 -47 -34 -81t-83 -34zM917 1574q-49 0 -83 34t-34 81q0 48 34 82t83 34q50 0 84 -34t34 -82t-34 -81.5t-84 -33.5zM385 1443v-911q0 -150 88.5 -240.5t246.5 -90.5
t247 90.5t89 240.5v911h257v-934q0 -239 -160.5 -386t-432.5 -147q-271 0 -432 147t-161 386v934h258z" />
    <glyph glyph-name="udieresisgrave" unicode="&#x1dc;" horiz-adv-x="1174" 
d="M684 1618h-191l-214 263h237zM380 1259q-53 0 -90 36.5t-37 87.5q0 52 37 88.5t90 36.5t90 -36.5t37 -88.5q0 -51 -37 -87.5t-90 -36.5zM790 1259q-53 0 -90 36.5t-37 87.5q0 52 37 88.5t90 36.5t89.5 -36.5t36.5 -88.5q0 -51 -36.5 -87.5t-89.5 -36.5zM1068 1093v-1093
h-239v191h-6q-92 -205 -335 -205q-179 0 -283 108.5t-104 297.5v701h249v-651q0 -120 57 -182.5t167 -62.5q113 0 179 73.5t66 195.5v627h249z" />
    <glyph glyph-name="Adieresismacron" unicode="&#x1de;" horiz-adv-x="1369" 
d="M1070 0l-123 373h-531l-123 -373h-266l512 1443h291l512 -1443h-272zM678 1188l-202 -616h410l-201 616h-7zM487 1805q49 0 83 -34t34 -82q0 -47 -34 -81t-83 -34q-50 0 -84 33.5t-34 81.5t34 82t84 34zM349 2055h670v-129h-670v129zM881 1805q50 0 84 -34t34 -82
t-34 -81.5t-84 -33.5q-49 0 -83 34t-34 81q0 48 34 82t83 34z" />
    <glyph glyph-name="adieresismacron" unicode="&#x1df;" horiz-adv-x="1116" 
d="M501 179q114 0 190 64t76 163v83l-250 -16q-208 -14 -208 -150q0 -66 52.5 -105t139.5 -39zM428 -12q-162 0 -265.5 90t-103.5 235q0 146 108.5 228t315.5 95l284 17v80q0 86 -55.5 132.5t-156.5 46.5q-84 0 -141 -40t-70 -107h-230q5 150 130.5 246.5t318.5 96.5
q205 0 327.5 -98t122.5 -261v-749h-239v176h-6q-45 -87 -137.5 -137.5t-202.5 -50.5zM358 1259q-50 0 -85 34.5t-35 83.5t35 83.5t85 34.5q51 0 86 -34t35 -84q0 -49 -35 -83.5t-86 -34.5zM760 1259q-51 0 -86 34.5t-35 83.5q0 50 35 84t86 34t85.5 -34t34.5 -84
q0 -49 -34.5 -83.5t-85.5 -34.5zM887 1789v-130h-656v130h656z" />
    <glyph glyph-name="Adotmacron" unicode="&#x1e0;" horiz-adv-x="1369" 
d="M1070 0l-123 373h-531l-123 -373h-266l512 1443h291l512 -1443h-272zM678 1188l-202 -616h410l-201 616h-7zM684 1562q-55 0 -92.5 37t-37.5 90t37.5 90t92.5 37t92.5 -37t37.5 -90t-37.5 -90t-92.5 -37zM1019 2055v-129h-670v129h670z" />
    <glyph glyph-name="adotmacron" unicode="&#x1e1;" horiz-adv-x="1116" 
d="M501 179q114 0 190 64t76 163v83l-250 -16q-208 -14 -208 -150q0 -66 52.5 -105t139.5 -39zM428 -12q-162 0 -265.5 90t-103.5 235q0 146 108.5 228t315.5 95l284 17v80q0 86 -55.5 132.5t-156.5 46.5q-84 0 -141 -40t-70 -107h-230q5 150 130.5 246.5t318.5 96.5
q205 0 327.5 -98t122.5 -261v-749h-239v176h-6q-45 -87 -137.5 -137.5t-202.5 -50.5zM559 1255q-58 0 -98.5 40.5t-40.5 97.5t41 97.5t98 40.5t98 -40.5t41 -97.5t-40.5 -97.5t-98.5 -40.5zM887 1792v-130h-656v130h656z" />
    <glyph glyph-name="AEmacron" unicode="&#x1e2;" horiz-adv-x="2015" 
d="M820 1240l-280 -636h425v636h-145zM965 0v404h-507l-180 -404h-259l641 1443h1223v-217h-677v-397h640v-206h-640v-406h677v-217h-918zM1765 1760v-129h-670v129h670z" />
    <glyph glyph-name="aemacron" unicode="&#x1e3;" horiz-adv-x="1816" 
d="M1276 -16q-135 0 -239.5 56t-157.5 157h-10q-61 -101 -163.5 -155t-239.5 -54q-187 0 -297 88.5t-110 234.5q0 145 108.5 228.5t313.5 94.5l286 15v68q0 85 -62 140t-158 55q-91 0 -149 -40t-65 -107h-230q8 153 128.5 248t308.5 95q132 0 229 -49t140 -135h9
q113 184 364 184q216 0 345 -145.5t129 -394.5v-81h-753v-16q0 -133 76 -213t201 -80q87 0 148 39t84 108h234q-25 -153 -154 -247t-316 -94zM1266 914q-109 0 -181 -72t-80 -190h506q-4 121 -70 191.5t-175 70.5zM493 176q115 0 194.5 66.5t79.5 163.5v79l-257 -15
q-100 -6 -154 -44t-54 -104t53 -106t138 -40zM1236 1436v-130h-656v130h656z" />
    <glyph glyph-name="Gcaron" unicode="&#x1e6;" horiz-adv-x="1473" 
d="M650 1546l-281 310h203l174 -198h4l174 198h203l-281 -310h-196zM1390 602q0 -294 -166.5 -460t-462.5 -166q-316 0 -499.5 201.5t-183.5 549.5q0 343 182.5 541.5t495.5 198.5q246 0 417 -133t206 -350h-262q-37 124 -132 194t-228 70q-195 0 -305 -137t-110 -381
q0 -249 113.5 -392t308.5 -143q163 0 266.5 94t106.5 246l1 24h-348v197h600v-154z" />
    <glyph glyph-name="gcaron" unicode="&#x1e7;" horiz-adv-x="1215" 
d="M681 1252h-185l-270 311h202l157 -191h7l157 191h202zM585 205q125 0 200 93.5t75 250.5q0 158 -75.5 253.5t-199.5 95.5q-123 0 -196.5 -94.5t-73.5 -254.5q0 -158 73.5 -251t196.5 -93zM585 -412q-198 0 -332.5 92t-154.5 237h248q21 -65 88 -104t159 -39
q125 0 196 64.5t71 172.5v183h-6q-44 -88 -135 -139t-208 -51q-204 0 -327.5 148.5t-123.5 397.5q0 254 123.5 404.5t332.5 150.5q116 0 206 -52t138 -144h5v184h244v-1075q0 -195 -143.5 -312.5t-380.5 -117.5z" />
    <glyph glyph-name="Kcaron" unicode="&#x1e8;" horiz-adv-x="1319" 
d="M385 0h-258v1443h258v-675h9l576 675h297l-556 -640l599 -803h-314l-469 630l-142 -166v-464zM547 1546l-281 310h203l174 -198h4l174 198h203l-281 -310h-196z" />
    <glyph glyph-name="kcaron" unicode="&#x1e9;" horiz-adv-x="1090" 
d="M366 634l418 459h289l-442 -471l460 -622h-288l-352 471l-88 -89v-382h-249v1510h249v-876h3zM140 1613l-281 310h203l174 -198h4l174 198h203l-281 -310h-196z" />
    <glyph glyph-name="Oogonek" unicode="&#x1ea;" horiz-adv-x="1525" 
d="M1027 -452q-116 0 -189.5 59.5t-73.5 153.5q0 63 36.5 122t103.5 105v6q-59 -18 -141 -18q-317 0 -501 200.5t-184 544.5t184.5 545t500.5 201t500 -201t184 -545q0 -214 -76 -378t-237 -296q-87 -69 -126 -124.5t-39 -109.5q0 -45 31.5 -72.5t83.5 -27.5q47 0 68 7v-153
q-52 -19 -125 -19zM763 1247q-193 0 -307 -142t-114 -384q0 -241 114 -383t307 -142t307 142t114 383q0 242 -114 384t-307 142z" />
    <glyph glyph-name="oogonek" unicode="&#x1eb;" horiz-adv-x="1173" 
d="M796 -452q-115 0 -187 60t-72 156q0 129 125 220v5q-32 -5 -76 -5q-242 0 -384 151t-142 412q0 258 142.5 409.5t383.5 151.5q242 0 384.5 -151t142.5 -410q0 -157 -58 -284.5t-165 -210.5q-152 -119 -152 -239q0 -46 31.5 -73t84.5 -27q45 0 68 7v-153q-52 -19 -126 -19
zM586 183q129 0 201.5 95.5t72.5 267.5q0 171 -72.5 267t-201.5 96q-128 0 -200.5 -96t-72.5 -267t72.5 -267t200.5 -96z" />
    <glyph glyph-name="Oogonekmacron" unicode="&#x1ec;" horiz-adv-x="1525" 
d="M1027 -452q-116 0 -189.5 59.5t-73.5 153.5q0 63 36.5 122t103.5 105v6q-59 -18 -141 -18q-317 0 -501 200.5t-184 544.5t184.5 545t500.5 201t500 -201t184 -545q0 -214 -76 -378t-237 -296q-87 -69 -126 -124.5t-39 -109.5q0 -45 31.5 -72.5t83.5 -27.5q47 0 68 7v-153
q-52 -19 -125 -19zM763 1247q-193 0 -307 -142t-114 -384q0 -241 114 -383t307 -142t307 142t114 383q0 242 -114 384t-307 142zM1098 1760v-129h-670v129h670z" />
    <glyph glyph-name="oogonekmacron" unicode="&#x1ed;" horiz-adv-x="1173" 
d="M914 1436v-130h-656v130h656zM796 -452q-115 0 -187 60t-72 156q0 129 125 220v5q-32 -5 -76 -5q-242 0 -384 151t-142 412q0 258 142.5 409.5t383.5 151.5q242 0 384.5 -151t142.5 -410q0 -157 -58 -284.5t-165 -210.5q-152 -119 -152 -239q0 -46 31.5 -73t84.5 -27
q45 0 68 7v-153q-52 -19 -126 -19zM586 183q129 0 201.5 95.5t72.5 267.5q0 171 -72.5 267t-201.5 96q-128 0 -200.5 -96t-72.5 -267t72.5 -267t200.5 -96z" />
    <glyph glyph-name="uni01F1" unicode="&#x1f1;" horiz-adv-x="2705" 
d="M1516 0v172l766 1046v7h-745v218h1057v-172l-762 -1046v-7h781v-218h-1097zM127 1443h534q324 0 505 -188t181 -530q0 -343 -181 -534t-505 -191h-534v1443zM385 1225v-1007h249q218 0 334 130t116 376q0 242 -117 371.5t-333 129.5h-249z" />
    <glyph glyph-name="uni01F2" unicode="&#x1f2;" horiz-adv-x="2458" 
d="M1508 0v152l571 741v5h-565v195h851v-166l-549 -728v-4h558v-195h-866zM127 1443h534q324 0 505 -188t181 -530q0 -343 -181 -534t-505 -191h-534v1443zM385 1225v-1007h249q218 0 334 130t116 376q0 242 -117 371.5t-333 129.5h-249z" />
    <glyph glyph-name="uni01F3" unicode="&#x1f3;" horiz-adv-x="2255" 
d="M1305 0v152l571 741v5h-565v195h851v-166l-549 -728v-4h558v-195h-866zM515 -12q-205 0 -330 152.5t-125 406.5q0 253 125 405.5t329 152.5q117 0 206 -52t134 -144h6v601h249v-1510h-244v186h-5q-45 -92 -135.5 -145t-209.5 -53zM588 898q-124 0 -198.5 -96t-74.5 -256
q0 -161 74.5 -256t198.5 -95t198.5 96t74.5 255q0 158 -75 255t-198 97z" />
    <glyph glyph-name="Gacute" unicode="&#x1f4;" horiz-adv-x="1473" 
d="M845 1552h-198l231 306h246zM1390 602q0 -294 -166.5 -460t-462.5 -166q-316 0 -499.5 201.5t-183.5 549.5q0 343 182.5 541.5t495.5 198.5q246 0 417 -133t206 -350h-262q-37 124 -132 194t-228 70q-195 0 -305 -137t-110 -381q0 -249 113.5 -392t308.5 -143
q163 0 266.5 94t106.5 246l1 24h-348v197h600v-154z" />
    <glyph glyph-name="gacute" unicode="&#x1f5;" horiz-adv-x="1215" 
d="M687 1258h-201l218 307h245zM585 205q125 0 200 93.5t75 250.5q0 158 -75.5 253.5t-199.5 95.5q-123 0 -196.5 -94.5t-73.5 -254.5q0 -158 73.5 -251t196.5 -93zM585 -412q-198 0 -332.5 92t-154.5 237h248q21 -65 88 -104t159 -39q125 0 196 64.5t71 172.5v183h-6
q-44 -88 -135 -139t-208 -51q-204 0 -327.5 148.5t-123.5 397.5q0 254 123.5 404.5t332.5 150.5q116 0 206 -52t138 -144h5v184h244v-1075q0 -195 -143.5 -312.5t-380.5 -117.5z" />
    <glyph glyph-name="Ngrave" unicode="&#x1f8;" horiz-adv-x="1452" 
d="M629 1555l-279 306h246l231 -306h-198zM376 0h-249v1443h224l716 -1011h9v1011h248v-1443h-222l-717 1012h-9v-1012z" />
    <glyph glyph-name="ngrave" unicode="&#x1f9;" horiz-adv-x="1174" 
d="M688 1258h-201l-262 307h246zM106 0v1093h239v-190h5q99 203 343 203q181 0 280.5 -107.5t99.5 -298.5v-700h-249v651q0 118 -56.5 181t-167.5 63q-114 0 -179.5 -73.5t-65.5 -194.5v-627h-249z" />
    <glyph glyph-name="Aringacute" unicode="&#x1fa;" horiz-adv-x="1369" 
d="M1070 0l-123 373h-531l-123 -373h-266l512 1443h291l512 -1443h-272zM678 1188l-202 -616h410l-201 616h-7zM684 1489q-85 0 -144.5 58.5t-59.5 142.5t59.5 142.5t144.5 58.5q86 0 144.5 -58t58.5 -143q0 -84 -59 -142.5t-144 -58.5zM684 1588q43 0 72.5 29.5t29.5 72.5
t-29.5 72.5t-72.5 29.5t-72.5 -29.5t-29.5 -72.5t29.5 -72.5t72.5 -29.5zM722 2129h222l-173 -191h-167z" />
    <glyph glyph-name="aringacute" unicode="&#x1fb;" horiz-adv-x="1116" 
d="M501 179q114 0 190 64t76 163v83l-250 -16q-208 -14 -208 -150q0 -66 52.5 -105t139.5 -39zM428 -12q-162 0 -265.5 90t-103.5 235q0 146 108.5 228t315.5 95l284 17v80q0 86 -55.5 132.5t-156.5 46.5q-84 0 -141 -40t-70 -107h-230q5 150 130.5 246.5t318.5 96.5
q205 0 327.5 -98t122.5 -261v-749h-239v176h-6q-45 -87 -137.5 -137.5t-202.5 -50.5zM560 1201q-89 0 -150 60t-61 147q0 88 61 148.5t150 60.5t150 -60.5t61 -148.5q0 -87 -61 -147t-150 -60zM456 1408q0 -43 30 -73t74 -30t74 30t30 73q0 44 -30 74t-74 30t-74 -30
t-30 -74zM478 1690l128 207h208l-169 -207h-167z" />
    <glyph glyph-name="AEacute" unicode="&#x1fc;" horiz-adv-x="2015" 
d="M1319 1552h-198l231 306h246zM820 1240l-280 -636h425v636h-145zM965 0v404h-507l-180 -404h-259l641 1443h1223v-217h-677v-397h640v-206h-640v-406h677v-217h-918z" />
    <glyph glyph-name="aeacute" unicode="&#x1fd;" horiz-adv-x="1816" 
d="M1006 1258h-201l218 307h245zM1276 -16q-135 0 -239.5 56t-157.5 157h-10q-61 -101 -163.5 -155t-239.5 -54q-187 0 -297 88.5t-110 234.5q0 145 108.5 228.5t313.5 94.5l286 15v68q0 85 -62 140t-158 55q-91 0 -149 -40t-65 -107h-230q8 153 128.5 248t308.5 95
q132 0 229 -49t140 -135h9q113 184 364 184q216 0 345 -145.5t129 -394.5v-81h-753v-16q0 -133 76 -213t201 -80q87 0 148 39t84 108h234q-25 -153 -154 -247t-316 -94zM1266 914q-109 0 -181 -72t-80 -190h506q-4 121 -70 191.5t-175 70.5zM493 176q115 0 194.5 66.5
t79.5 163.5v79l-257 -15q-100 -6 -154 -44t-54 -104t53 -106t138 -40z" />
    <glyph glyph-name="Oslashacute" unicode="&#x1fe;" horiz-adv-x="1525" 
d="M1165 1858l-279 -306h-198l231 306h246zM1099 1063l-562 -801q97 -66 226 -66q193 0 307 142t114 383q0 206 -85 342zM448 348l570 811q-105 88 -255 88q-193 0 -307 -142t-114 -384q0 -231 106 -373zM1361 1436l-110 -157q196 -202 196 -558q0 -344 -184.5 -544.5
t-499.5 -200.5q-209 0 -363 90l-88 -125l-101 70l90 128q-108 98 -165.5 246t-57.5 336q0 344 184.5 545t500.5 201q228 0 394 -110l100 142z" />
    <glyph glyph-name="oslashacute" unicode="&#x1ff;" horiz-adv-x="1173" 
d="M946 1565l-262 -307h-201l218 307h245zM812 774l-359 -556q58 -35 133 -35q129 0 201.5 95.5t72.5 267.5q0 137 -48 228zM366 309l363 559q-61 41 -143 41q-128 0 -200.5 -96t-72.5 -267q0 -143 53 -237zM1015 1089l-69 -108q167 -153 167 -434q0 -261 -142 -412
t-385 -151q-141 0 -250 53l-61 -95l-104 66l63 96q-174 152 -174 443q0 258 142.5 409.5t383.5 151.5q147 0 261 -58l64 99z" />
    <glyph glyph-name="Adblgrave" unicode="&#x200;" horiz-adv-x="1369" 
d="M1070 0l-123 373h-531l-123 -373h-266l512 1443h291l512 -1443h-272zM678 1188l-202 -616h410l-201 616h-7zM773 1552l-279 306h239l231 -306h-191zM408 1552l-278 306h239l231 -306h-192z" />
    <glyph glyph-name="adblgrave" unicode="&#x201;" horiz-adv-x="1116" 
d="M501 179q114 0 190 64t76 163v83l-250 -16q-208 -14 -208 -150q0 -66 52.5 -105t139.5 -39zM428 -12q-162 0 -265.5 90t-103.5 235q0 146 108.5 228t315.5 95l284 17v80q0 86 -55.5 132.5t-156.5 46.5q-84 0 -141 -40t-70 -107h-230q5 150 130.5 246.5t318.5 96.5
q205 0 327.5 -98t122.5 -261v-749h-239v176h-6q-45 -87 -137.5 -137.5t-202.5 -50.5zM479 1258h-182l-241 307h231zM830 1258h-182l-241 307h231z" />
    <glyph glyph-name="Ainvertedbreve" unicode="&#x202;" horiz-adv-x="1369" 
d="M1070 0l-123 373h-531l-123 -373h-266l512 1443h291l512 -1443h-272zM678 1188l-202 -616h410l-201 616h-7zM347 1546q2 135 94 222.5t243 87.5t243 -87.5t94 -222.5h-156q-1 77 -52 128.5t-129 51.5t-129 -51.5t-52 -128.5h-156z" />
    <glyph glyph-name="ainvertedbreve" unicode="&#x203;" horiz-adv-x="1116" 
d="M501 179q114 0 190 64t76 163v83l-250 -16q-208 -14 -208 -150q0 -66 52.5 -105t139.5 -39zM428 -12q-162 0 -265.5 90t-103.5 235q0 146 108.5 228t315.5 95l284 17v80q0 86 -55.5 132.5t-156.5 46.5q-84 0 -141 -40t-70 -107h-230q5 150 130.5 246.5t318.5 96.5
q205 0 327.5 -98t122.5 -261v-749h-239v176h-6q-45 -87 -137.5 -137.5t-202.5 -50.5zM214 1252q2 140 96 229t249 89t249 -89t96 -229h-159q-1 79 -53.5 132t-132.5 53t-132.5 -53t-53.5 -132h-159z" />
    <glyph glyph-name="Edblgrave" unicode="&#x204;" horiz-adv-x="1158" 
d="M683 1552l-279 306h239l231 -306h-191zM318 1552l-278 306h239l231 -306h-192zM1061 218v-218h-934v1443h934v-218h-676v-390h639v-205h-639v-412h676z" />
    <glyph glyph-name="edblgrave" unicode="&#x205;" horiz-adv-x="1135" 
d="M574 914q-109 0 -182 -72.5t-81 -189.5h518q-4 118 -74 190t-181 72zM830 325h234q-24 -152 -157 -246.5t-324 -94.5q-242 0 -382.5 150t-140.5 408t139.5 412t374.5 154q230 0 365 -146t135 -394v-82h-765v-15q0 -132 77 -212.5t202 -80.5q90 0 155 39.5t87 107.5z
M493 1258h-182l-241 307h231zM844 1258h-182l-241 307h231z" />
    <glyph glyph-name="Einvertedbreve" unicode="&#x206;" horiz-adv-x="1158" 
d="M1061 218v-218h-934v1443h934v-218h-676v-390h639v-205h-639v-412h676zM257 1546q2 135 94 222.5t243 87.5t243 -87.5t94 -222.5h-156q-1 77 -52 128.5t-129 51.5t-129 -51.5t-52 -128.5h-156z" />
    <glyph glyph-name="einvertedbreve" unicode="&#x207;" horiz-adv-x="1135" 
d="M574 914q-109 0 -182 -72.5t-81 -189.5h518q-4 118 -74 190t-181 72zM830 325h234q-24 -152 -157 -246.5t-324 -94.5q-242 0 -382.5 150t-140.5 408t139.5 412t374.5 154q230 0 365 -146t135 -394v-82h-765v-15q0 -132 77 -212.5t202 -80.5q90 0 155 39.5t87 107.5z
M228 1252q2 140 96 229t249 89t249 -89t96 -229h-159q-1 79 -53.5 132t-132.5 53t-132.5 -53t-53.5 -132h-159z" />
    <glyph glyph-name="Idblgrave" unicode="&#x208;" horiz-adv-x="512" 
d="M385 0h-258v1443h258v-1443zM345 1552l-279 306h239l231 -306h-191zM-20 1552l-278 306h239l231 -306h-192z" />
    <glyph glyph-name="idblgrave" unicode="&#x209;" horiz-adv-x="475" 
d="M113 0v1093h249v-1093h-249zM157 1258h-182l-241 307h231zM508 1258h-182l-241 307h231z" />
    <glyph glyph-name="Iinvertedbreve" unicode="&#x20a;" horiz-adv-x="512" 
d="M385 0h-258v1443h258v-1443zM-81 1546q2 135 94 222.5t243 87.5t243 -87.5t94 -222.5h-156q-1 77 -52 128.5t-129 51.5t-129 -51.5t-52 -128.5h-156z" />
    <glyph glyph-name="iinvertedbreve" unicode="&#x20b;" horiz-adv-x="475" 
d="M113 0v1093h249v-1093h-249zM-108 1252q2 140 96 229t249 89t249 -89t96 -229h-159q-1 79 -53.5 132t-132.5 53t-132.5 -53t-53.5 -132h-159z" />
    <glyph glyph-name="Odblgrave" unicode="&#x20c;" horiz-adv-x="1525" 
d="M852 1552l-279 306h239l231 -306h-191zM487 1552l-278 306h239l231 -306h-192zM763 1467q315 0 499.5 -201t184.5 -545t-184.5 -544.5t-499.5 -200.5q-316 0 -500.5 200.5t-184.5 544.5t184.5 545t500.5 201zM763 1247q-193 0 -307 -142t-114 -384q0 -241 114 -383
t307 -142t307 142t114 383t-114 383.5t-307 142.5z" />
    <glyph glyph-name="odblgrave" unicode="&#x20d;" horiz-adv-x="1173" 
d="M586 -16q-242 0 -384 151t-142 412q0 258 142.5 409.5t383.5 151.5q242 0 384.5 -151t142.5 -410q0 -261 -142 -412t-385 -151zM586 183q129 0 201.5 95.5t72.5 267.5q0 171 -72.5 267t-201.5 96q-128 0 -200.5 -96t-72.5 -267t72.5 -267t200.5 -96zM506 1258h-182
l-241 307h231zM857 1258h-182l-241 307h231z" />
    <glyph glyph-name="Oinvertedbreve" unicode="&#x20e;" horiz-adv-x="1525" 
d="M426 1546q2 135 94 222.5t243 87.5t243 -87.5t94 -222.5h-156q-1 77 -52 128.5t-129 51.5t-129 -51.5t-52 -128.5h-156zM763 1467q315 0 499.5 -201t184.5 -545t-184.5 -544.5t-499.5 -200.5q-316 0 -500.5 200.5t-184.5 544.5t184.5 545t500.5 201zM763 1247
q-193 0 -307 -142t-114 -384q0 -241 114 -383t307 -142t307 142t114 383t-114 383.5t-307 142.5z" />
    <glyph glyph-name="oinvertedbreve" unicode="&#x20f;" horiz-adv-x="1173" 
d="M586 -16q-242 0 -384 151t-142 412q0 258 142.5 409.5t383.5 151.5q242 0 384.5 -151t142.5 -410q0 -261 -142 -412t-385 -151zM586 183q129 0 201.5 95.5t72.5 267.5q0 171 -72.5 267t-201.5 96q-128 0 -200.5 -96t-72.5 -267t72.5 -267t200.5 -96zM241 1252
q2 140 96 229t249 89t249 -89t96 -229h-159q-1 79 -53.5 132t-132.5 53t-132.5 -53t-53.5 -132h-159z" />
    <glyph glyph-name="Rdblgrave" unicode="&#x210;" horiz-adv-x="1287" 
d="M676 1552l-279 306h239l231 -306h-191zM311 1552l-278 306h239l231 -306h-192zM385 1234v-493h298q123 0 190.5 65t67.5 182q0 114 -70.5 180t-193.5 66h-292zM385 543v-543h-258v1443h580q233 0 366 -120.5t133 -328.5q0 -145 -72 -255.5t-200 -156.5l315 -582h-295
l-283 543h-286z" />
    <glyph glyph-name="rdblgrave" unicode="&#x211;" horiz-adv-x="719" 
d="M106 0v1093h239v-190h5q26 96 95.5 149t166.5 53q48 0 80 -10v-226q-37 14 -103 14q-109 0 -171.5 -66.5t-62.5 -182.5v-634h-249zM310 1258h-182l-241 307h231zM661 1258h-182l-241 307h231z" />
    <glyph glyph-name="Rinvertedbreve" unicode="&#x212;" horiz-adv-x="1287" 
d="M385 1234v-493h298q123 0 190.5 65t67.5 182q0 114 -70.5 180t-193.5 66h-292zM385 543v-543h-258v1443h580q233 0 366 -120.5t133 -328.5q0 -145 -72 -255.5t-200 -156.5l315 -582h-295l-283 543h-286zM250 1546q2 135 94 222.5t243 87.5t243 -87.5t94 -222.5h-156
q-1 77 -52 128.5t-129 51.5t-129 -51.5t-52 -128.5h-156z" />
    <glyph glyph-name="rinvertedbreve" unicode="&#x213;" horiz-adv-x="719" 
d="M106 0v1093h239v-190h5q26 96 95.5 149t166.5 53q48 0 80 -10v-226q-37 14 -103 14q-109 0 -171.5 -66.5t-62.5 -182.5v-634h-249zM45 1252q2 140 96 229t249 89t249 -89t96 -229h-159q-1 79 -53.5 132t-132.5 53t-132.5 -53t-53.5 -132h-159z" />
    <glyph glyph-name="Udblgrave" unicode="&#x214;" horiz-adv-x="1441" 
d="M809 1552l-279 306h239l231 -306h-191zM444 1552l-278 306h239l231 -306h-192zM385 1443v-911q0 -150 88.5 -240.5t246.5 -90.5t247 90.5t89 240.5v911h257v-934q0 -239 -160.5 -386t-432.5 -147q-271 0 -432 147t-161 386v934h258z" />
    <glyph glyph-name="udblgrave" unicode="&#x215;" horiz-adv-x="1174" 
d="M1068 1093v-1093h-239v191h-6q-92 -205 -335 -205q-179 0 -283 108.5t-104 297.5v701h249v-651q0 -120 57 -182.5t167 -62.5q113 0 179 73.5t66 195.5v627h249zM505 1258h-182l-241 307h231zM856 1258h-182l-241 307h231z" />
    <glyph glyph-name="Uinvertedbreve" unicode="&#x216;" horiz-adv-x="1441" 
d="M385 1443v-911q0 -150 88.5 -240.5t246.5 -90.5t247 90.5t89 240.5v911h257v-934q0 -239 -160.5 -386t-432.5 -147q-271 0 -432 147t-161 386v934h258zM383 1546q2 135 94 222.5t243 87.5t243 -87.5t94 -222.5h-156q-1 77 -52 128.5t-129 51.5t-129 -51.5t-52 -128.5
h-156z" />
    <glyph glyph-name="uinvertedbreve" unicode="&#x217;" horiz-adv-x="1174" 
d="M1068 1093v-1093h-239v191h-6q-92 -205 -335 -205q-179 0 -283 108.5t-104 297.5v701h249v-651q0 -120 57 -182.5t167 -62.5q113 0 179 73.5t66 195.5v627h249zM240 1252q2 140 96 229t249 89t249 -89t96 -229h-159q-1 79 -53.5 132t-132.5 53t-132.5 -53t-53.5 -132
h-159z" />
    <glyph glyph-name="Scommaaccent" unicode="&#x218;" horiz-adv-x="1265" 
d="M68 406h250q12 -99 102 -159.5t223 -60.5q130 0 212.5 58t82.5 148q0 78 -60 126.5t-196 80.5l-187 44q-199 46 -295.5 143t-96.5 252q0 191 150 310t387 119q238 0 383.5 -117.5t150.5 -308.5h-246q-9 101 -87 158.5t-203 57.5q-122 0 -197.5 -55t-75.5 -145
q0 -72 58.5 -117t191.5 -77l166 -38q219 -50 318 -146t99 -257q0 -205 -153.5 -325.5t-415.5 -120.5q-250 0 -401.5 115.5t-159.5 314.5zM611 -515h-183l110 354h219z" />
    <glyph glyph-name="scommaaccent" unicode="&#x219;" horiz-adv-x="1044" 
d="M87 777q0 149 121 240t318 91q189 0 309 -92.5t124 -241.5h-232q-6 69 -61.5 109.5t-144.5 40.5q-87 0 -139.5 -36.5t-52.5 -96.5q0 -91 159 -128l192 -44q165 -38 234.5 -106t69.5 -189q0 -152 -129 -246t-335 -94q-200 0 -324.5 92.5t-136.5 245.5h245
q11 -74 69.5 -114t156.5 -40q95 0 150.5 35.5t55.5 96.5q0 48 -33.5 76.5t-115.5 47.5l-198 48q-302 71 -302 305zM498 -515h-183l110 354h219z" />
    <glyph glyph-name="Tcommaaccent" unicode="&#x21a;" horiz-adv-x="1230" 
d="M595 -515h-183l110 354h219zM744 0h-258v1225h-438v218h1134v-218h-438v-1225z" />
    <glyph glyph-name="tcommaaccent" unicode="&#x21b;" horiz-adv-x="702" 
d="M383 -515h-183l110 354h219zM176 1337h249v-244h207v-193h-207v-576q0 -133 132 -133q34 0 74 5v-191q-45 -10 -131 -10q-174 0 -249 68.5t-75 226.5v610h-149v193h149v244z" />
    <glyph glyph-name="Hcaron" unicode="&#x21e;" horiz-adv-x="1471" 
d="M1344 0h-257v626h-702v-626h-258v1443h258v-600h702v600h257v-1443zM638 1546l-281 310h203l174 -198h4l174 198h203l-281 -310h-196z" />
    <glyph glyph-name="hcaron" unicode="&#x21f;" horiz-adv-x="1194" 
d="M114 0v1510h246v-607h5q98 203 345 203q179 0 281 -110t102 -298v-698h-249v648q0 117 -58 182t-170 65q-117 0 -185 -74.5t-68 -197.5v-623h-249zM141 1613l-281 310h203l174 -198h4l174 198h203l-281 -310h-196z" />
    <glyph glyph-name="Adotaccent" unicode="&#x226;" horiz-adv-x="1369" 
d="M1070 0l-123 373h-531l-123 -373h-266l512 1443h291l512 -1443h-272zM678 1188l-202 -616h410l-201 616h-7zM684 1569q-58 0 -98.5 41t-40.5 98q0 58 40.5 98.5t98.5 40.5t98.5 -40.5t40.5 -98.5q0 -57 -40.5 -98t-98.5 -41z" />
    <glyph glyph-name="adotaccent" unicode="&#x227;" horiz-adv-x="1116" 
d="M501 179q114 0 190 64t76 163v83l-250 -16q-208 -14 -208 -150q0 -66 52.5 -105t139.5 -39zM428 -12q-162 0 -265.5 90t-103.5 235q0 146 108.5 228t315.5 95l284 17v80q0 86 -55.5 132.5t-156.5 46.5q-84 0 -141 -40t-70 -107h-230q5 150 130.5 246.5t318.5 96.5
q205 0 327.5 -98t122.5 -261v-749h-239v176h-6q-45 -87 -137.5 -137.5t-202.5 -50.5zM559 1262q-59 0 -100 41t-41 99q0 57 41 98t100 41q58 0 99 -41t41 -98q0 -58 -41 -99t-99 -41z" />
    <glyph glyph-name="Ecedilla" unicode="&#x228;" horiz-adv-x="1158" 
d="M1061 1225h-676v-390h639v-205h-639v-412h676v-218h-384l-50 -125q94 0 144 -40.5t50 -115.5q0 -83 -63 -132.5t-170 -50.5q-87 0 -142 17v111q37 -14 115 -14q111 0 111 62q0 32 -31 46t-103 14h-55v90l58 138h-414v1443h934v-218z" />
    <glyph glyph-name="ecedilla" unicode="&#x229;" horiz-adv-x="1135" 
d="M311 652h518q-4 118 -74 190t-181 72q-109 0 -182 -72.5t-81 -189.5zM1074 486h-765v-15q0 -132 77 -212.5t202 -80.5q90 0 155 39.5t87 107.5h234q-22 -136 -132.5 -227.5t-274.5 -109.5l-45 -113q94 0 144 -40.5t50 -115.5q0 -83 -63 -132.5t-170 -50.5q-87 0 -142 17
v111q37 -14 115 -14q111 0 111 62q0 32 -31 46t-103 14h-55v90l53 125q-215 20 -338 167.5t-123 387.5q0 258 139.5 412t374.5 154q230 0 365 -146t135 -394v-82z" />
    <glyph glyph-name="Odieresismacron" unicode="&#x22a;" horiz-adv-x="1525" 
d="M763 1467q315 0 499.5 -201t184.5 -545t-184.5 -544.5t-499.5 -200.5q-316 0 -500.5 200.5t-184.5 544.5t184.5 545t500.5 201zM763 1247q-193 0 -307 -142t-114 -384q0 -241 114 -383t307 -142t307 142t114 383t-114 383.5t-307 142.5zM566 1805q49 0 83 -34t34 -82
q0 -47 -34 -81t-83 -34q-50 0 -84 33.5t-34 81.5t34 82t84 34zM428 2055h670v-129h-670v129zM960 1805q50 0 84 -34t34 -82t-34 -81.5t-84 -33.5q-49 0 -83 34t-34 81q0 48 34 82t83 34z" />
    <glyph glyph-name="odieresismacron" unicode="&#x22b;" horiz-adv-x="1173" 
d="M385 1259q-50 0 -85 34.5t-35 83.5t35 83.5t85 34.5q51 0 86 -34t35 -84q0 -49 -35 -83.5t-86 -34.5zM787 1259q-51 0 -86 34.5t-35 83.5q0 50 35 84t86 34t85.5 -34t34.5 -84q0 -49 -34.5 -83.5t-85.5 -34.5zM914 1789v-130h-656v130h656zM586 -16q-242 0 -384 151
t-142 412q0 258 142.5 409.5t383.5 151.5q242 0 384.5 -151t142.5 -410q0 -261 -142 -412t-385 -151zM586 183q129 0 201.5 95.5t72.5 267.5q0 171 -72.5 267t-201.5 96q-128 0 -200.5 -96t-72.5 -267t72.5 -267t200.5 -96z" />
    <glyph glyph-name="Otildemacron" unicode="&#x22c;" horiz-adv-x="1525" 
d="M894 1535q-37 0 -70 14.5t-56.5 35.5t-44.5 42t-42.5 35.5t-42.5 14.5q-67 0 -69 -125h-142q0 123 55 193.5t146 70.5q47 0 89 -22.5t66.5 -49t52.5 -49t51 -22.5q63 0 65 128h141q0 -121 -55.5 -193.5t-143.5 -72.5zM1098 2055v-129h-670v129h670zM763 1467
q315 0 499.5 -201t184.5 -545t-184.5 -544.5t-499.5 -200.5q-316 0 -500.5 200.5t-184.5 544.5t184.5 545t500.5 201zM763 1247q-193 0 -307 -142t-114 -384q0 -241 114 -383t307 -142t307 142t114 383t-114 383.5t-307 142.5z" />
    <glyph glyph-name="otildemacron" unicode="&#x22d;" horiz-adv-x="1173" 
d="M724 1250q-37 0 -70 14.5t-56.5 35.5t-44 42t-42 35.5t-42.5 14.5q-32 0 -50 -33.5t-19 -92.5h-141q0 123 55 193.5t146 70.5q39 0 73 -14.5t58 -35.5t45 -42t42 -35.5t40 -14.5q63 0 65 128h141q0 -121 -56 -193.5t-144 -72.5zM914 1789v-130h-656v130h656zM586 -16
q-242 0 -384 151t-142 412q0 258 142.5 409.5t383.5 151.5q242 0 384.5 -151t142.5 -410q0 -261 -142 -412t-385 -151zM586 183q129 0 201.5 95.5t72.5 267.5q0 171 -72.5 267t-201.5 96q-128 0 -200.5 -96t-72.5 -267t72.5 -267t200.5 -96z" />
    <glyph glyph-name="Odotaccent" unicode="&#x22e;" horiz-adv-x="1525" 
d="M763 1569q-58 0 -98.5 41t-40.5 98q0 58 40.5 98.5t98.5 40.5t98.5 -40.5t40.5 -98.5q0 -57 -40.5 -98t-98.5 -41zM763 1467q315 0 499.5 -201t184.5 -545t-184.5 -544.5t-499.5 -200.5q-316 0 -500.5 200.5t-184.5 544.5t184.5 545t500.5 201zM763 1247
q-193 0 -307 -142t-114 -384q0 -241 114 -383t307 -142t307 142t114 383t-114 383.5t-307 142.5z" />
    <glyph glyph-name="odotaccent" unicode="&#x22f;" horiz-adv-x="1173" 
d="M586 1262q-59 0 -100 41t-41 99q0 57 41 98t100 41q58 0 99 -41t41 -98q0 -58 -41 -99t-99 -41zM586 -16q-242 0 -384 151t-142 412q0 258 142.5 409.5t383.5 151.5q242 0 384.5 -151t142.5 -410q0 -261 -142 -412t-385 -151zM586 183q129 0 201.5 95.5t72.5 267.5
q0 171 -72.5 267t-201.5 96q-128 0 -200.5 -96t-72.5 -267t72.5 -267t200.5 -96z" />
    <glyph glyph-name="Odotaccentmacron" unicode="&#x230;" horiz-adv-x="1525" 
d="M763 1562q-55 0 -92.5 37t-37.5 90t37.5 90t92.5 37t92.5 -37t37.5 -90t-37.5 -90t-92.5 -37zM1098 2055v-129h-670v129h670zM763 1467q315 0 499.5 -201t184.5 -545t-184.5 -544.5t-499.5 -200.5q-316 0 -500.5 200.5t-184.5 544.5t184.5 545t500.5 201zM763 1247
q-193 0 -307 -142t-114 -384q0 -241 114 -383t307 -142t307 142t114 383t-114 383.5t-307 142.5z" />
    <glyph glyph-name="odotaccentmacron" unicode="&#x231;" horiz-adv-x="1173" 
d="M586 -16q-242 0 -384 151t-142 412q0 258 142.5 409.5t383.5 151.5q242 0 384.5 -151t142.5 -410q0 -261 -142 -412t-385 -151zM586 183q129 0 201.5 95.5t72.5 267.5q0 171 -72.5 267t-201.5 96q-128 0 -200.5 -96t-72.5 -267t72.5 -267t200.5 -96zM586 1255
q-58 0 -98.5 40.5t-40.5 97.5t40.5 97.5t98.5 40.5t98.5 -40.5t40.5 -97.5t-40.5 -97.5t-98.5 -40.5zM914 1792v-130h-656v130h656z" />
    <glyph glyph-name="Ymacron" unicode="&#x232;" horiz-adv-x="1323" 
d="M790 0h-257v569l-506 874h283l350 -628h6l349 628h281l-506 -874v-569zM996 1760v-129h-670v129h670z" />
    <glyph glyph-name="ymacron" unicode="&#x233;" horiz-adv-x="1096" 
d="M228 -398q-73 0 -98 5v198q19 -4 68 -4q80 0 126.5 33.5t69.5 110.5l14 51l-391 1097h271l262 -878h5l261 878h263l-396 -1131q-70 -201 -170.5 -280.5t-284.5 -79.5zM877 1436v-130h-656v130h656z" />
    <glyph glyph-name="dotlessj" unicode="&#x237;" horiz-adv-x="475" 
d="M362 1093v-1145q0 -331 -369 -331q-45 0 -61 2v191q2 0 16 -0.5t17 -0.5q80 0 114 33t34 110v1141h249z" />
    <glyph glyph-name="quoteright" unicode="&#x2019;" horiz-adv-x="573" 
d="M346 900h-208l111 543h237z" />
    <glyph glyph-name="quoteright" unicode="&#x2bc;" horiz-adv-x="573" 
d="M346 900h-208l111 543h237z" />
    <glyph glyph-name="circumflex" unicode="&#x2c6;" horiz-adv-x="1009" 
d="M597 1563l270 -311h-202l-157 192h-7l-157 -192h-202l270 311h185z" />
    <glyph glyph-name="caron" unicode="&#x2c7;" horiz-adv-x="1009" 
d="M597 1252h-185l-270 311h202l157 -191h7l157 191h202z" />
    <glyph glyph-name="breve" unicode="&#x2d8;" horiz-adv-x="1000" 
d="M155 1563h159q1 -79 53.5 -132.5t132.5 -53.5t132.5 53.5t53.5 132.5h159q-2 -140 -96 -229t-249 -89t-249 89t-96 229z" />
    <glyph glyph-name="dotaccent" unicode="&#x2d9;" horiz-adv-x="930" 
d="M465 1262q-59 0 -100 41t-41 99q0 57 41 98t100 41q58 0 99 -41t41 -98q0 -58 -41 -99t-99 -41z" />
    <glyph glyph-name="ring" unicode="&#x2da;" horiz-adv-x="1038" 
d="M519 1202q-87 0 -150 62t-63 148q0 87 63 149t150 62t150 -62t63 -149q0 -86 -63 -148t-150 -62zM519 1306q44 0 75.5 31t31.5 75t-31.5 75t-75.5 31t-75.5 -31t-31.5 -75t31.5 -75t75.5 -31z" />
    <glyph glyph-name="ogonek" unicode="&#x2db;" horiz-adv-x="1000" 
d="M685 -307v-143q-55 -18 -131 -18q-103 0 -166 55t-63 144q0 154 170 269h139q-71 -55 -103 -105.5t-32 -106.5q0 -47 31.5 -75.5t83.5 -28.5q31 0 71 9z" />
    <glyph glyph-name="tilde" unicode="&#x2dc;" horiz-adv-x="1009" 
d="M637 1258q-37 0 -70 14.5t-56.5 35.5t-44 42t-42 35.5t-42.5 14.5q-32 0 -50 -33.5t-19 -92.5h-141q0 123 55 193.5t146 70.5q39 0 73 -14.5t58 -35.5t45 -42t42 -35.5t40 -14.5q63 0 65 128h141q0 -121 -56 -193.5t-144 -72.5z" />
    <glyph glyph-name="hungarumlaut" unicode="&#x2dd;" horiz-adv-x="1000" 
d="M469 1258l192 307h231l-241 -307h-182zM118 1258l192 307h231l-241 -307h-182z" />
    <glyph glyph-name="gravecmb" unicode="&#x300;" horiz-adv-x="0" 
d="M99 1258h-201l-262 307h246z" />
    <glyph glyph-name="acutecmb" unicode="&#x301;" horiz-adv-x="0" 
d="M98 1258h-201l218 307h245z" />
    <glyph glyph-name="circumflexcmb" unicode="&#x302;" horiz-adv-x="0" 
d="M92 1563l270 -311h-202l-157 192h-7l-157 -192h-202l270 311h185z" />
    <glyph glyph-name="tildecmb" unicode="&#x303;" horiz-adv-x="0" 
d="M138 1258q-37 0 -70 14.5t-56.5 35.5t-44 42t-42 35.5t-42.5 14.5q-32 0 -50 -33.5t-19 -92.5h-141q0 123 55 193.5t146 70.5q39 0 73 -14.5t58 -35.5t45 -42t42 -35.5t40 -14.5q63 0 65 128h141q0 -121 -56 -193.5t-144 -72.5z" />
    <glyph glyph-name="macroncmb" unicode="&#x304;" horiz-adv-x="0" 
d="M328 1436v-130h-656v130h656z" />
    <glyph glyph-name="brevecmb" unicode="&#x306;" horiz-adv-x="0" 
d="M-346 1563h159q1 -79 53.5 -132.5t132.5 -53.5t132.5 53.5t53.5 132.5h159q-2 -140 -96 -229t-249 -89t-249 89t-96 229z" />
    <glyph glyph-name="dotaccentcmb" unicode="&#x307;" horiz-adv-x="0" 
d="M0 1262q-59 0 -100 41t-41 99q0 57 41 98t100 41q58 0 99 -41t41 -98q0 -58 -41 -99t-99 -41z" />
    <glyph glyph-name="dieresiscmb" unicode="&#x308;" horiz-adv-x="0" 
d="M-205 1259q-53 0 -90 36.5t-37 87.5q0 52 37 88.5t90 36.5t90 -36.5t37 -88.5q0 -51 -37 -87.5t-90 -36.5zM205 1259q-53 0 -90 36.5t-37 87.5q0 52 37 88.5t90 36.5t89.5 -36.5t36.5 -88.5q0 -51 -36.5 -87.5t-89.5 -36.5z" />
    <glyph glyph-name="hookabovecmb" unicode="&#x309;" horiz-adv-x="0" 
d="M-138 1464v124q65 27 144 27q98 0 157 -53t59 -142q0 -68 -48 -126.5t-131 -92.5l-76 97q49 19 71.5 45.5t22.5 64.5q0 34 -27.5 56t-69.5 22q-52 0 -102 -22z" />
    <glyph glyph-name="ringcmb" unicode="&#x30a;" horiz-adv-x="0" 
d="M0 1201q-87 0 -150 62t-63 148q0 87 63 149t150 62t150 -62t63 -149q0 -86 -63 -148t-150 -62zM0 1305q44 0 75.5 31t31.5 75t-31.5 75t-75.5 31t-75.5 -31t-31.5 -75t31.5 -75t75.5 -31z" />
    <glyph glyph-name="hungarumlautcmb" unicode="&#x30b;" horiz-adv-x="0" 
d="M80 1258l192 307h231l-241 -307h-182zM-271 1258l192 307h231l-241 -307h-182z" />
    <glyph glyph-name="caroncmb" unicode="&#x30c;" horiz-adv-x="0" 
d="M92 1252h-185l-270 311h202l157 -191h7l157 191h202z" />
    <glyph glyph-name="dblgravecmb" unicode="&#x30f;" horiz-adv-x="0" 
d="M-80 1258h-182l-241 307h231zM271 1258h-182l-241 307h231z" />
    <glyph glyph-name="invertedbrevecmb" unicode="&#x311;" horiz-adv-x="0" 
d="M-345 1252q2 140 96 229t249 89t249 -89t96 -229h-159q-1 79 -53.5 132t-132.5 53t-132.5 -53t-53.5 -132h-159z" />
    <glyph glyph-name="horncmb" unicode="&#x31b;" horiz-adv-x="0" 
d="M0 941v174q34 -30 83 -30q50 2 72.5 35.5t22.5 108.5v153h199v-206q0 -122 -67 -195.5t-178 -73.5q-83 0 -132 34z" />
    <glyph glyph-name="dotbelowcmb" unicode="&#x323;" horiz-adv-x="0" 
d="M0 -434q-58 0 -98.5 41t-40.5 98q0 58 40.5 98.5t98.5 40.5t98.5 -40.5t40.5 -98.5q0 -57 -40.5 -98t-98.5 -41z" />
    <glyph glyph-name="dieresisbelowcmb" unicode="&#x324;" horiz-adv-x="0" 
d="M-205 -414q-53 0 -90 36.5t-37 87.5q0 52 37 88.5t90 36.5t90 -36.5t37 -88.5q0 -51 -37 -87.5t-90 -36.5zM205 -414q-53 0 -90 36.5t-37 87.5q0 52 37 88.5t90 36.5t89.5 -36.5t36.5 -88.5q0 -51 -36.5 -87.5t-89.5 -36.5z" />
    <glyph glyph-name="ringbelowcmb" unicode="&#x325;" horiz-adv-x="0" 
d="M0 -572q-87 0 -150 62t-63 148q0 87 63 149t150 62t150 -62t63 -149q0 -86 -63 -148t-150 -62zM0 -468q44 0 75.5 31t31.5 75t-31.5 75t-75.5 31t-75.5 -31t-31.5 -75t31.5 -75t75.5 -31z" />
    <glyph glyph-name="commabelowcmb" unicode="&#x326;" horiz-adv-x="0" 
d="M-20 -515h-183l110 354h219z" />
    <glyph glyph-name="cedillacmb" unicode="&#x327;" horiz-adv-x="0" 
d="M-111 -228v90l63 149h131v-11l-50 -125q94 0 144 -40.5t50 -115.5q0 -83 -63 -132.5t-170 -50.5q-87 0 -142 17v111q37 -14 115 -14q111 0 111 62q0 32 -31 46t-103 14h-55z" />
    <glyph glyph-name="ogonekcmb" unicode="&#x328;" horiz-adv-x="0" 
d="M154 -307v-143q-56 -18 -131 -18q-103 0 -166 55t-63 144q0 154 170 269h139q-71 -55 -103 -105.5t-32 -106.5q0 -47 31.5 -75.5t83.5 -28.5q31 0 71 9z" />
    <glyph glyph-name="circumflexbelowcmb" unicode="&#x32d;" horiz-adv-x="0" 
d="M-98 -162h196l281 -310h-203l-174 198h-4l-174 -198h-203z" />
    <glyph glyph-name="brevebelowcmb" unicode="&#x32e;" horiz-adv-x="0" 
d="M-337 -183h156q1 -78 52 -129.5t129 -51.5t129 51.5t52 129.5h156q-2 -136 -94 -223t-243 -87t-243 87t-94 223z" />
    <glyph glyph-name="tildebelowcmb" unicode="&#x330;" horiz-adv-x="0" 
d="M135 -429q-37 0 -70 14.5t-56.5 35.5t-44 42t-42 35.5t-42.5 14.5q-32 0 -50 -33.5t-19 -92.5h-141q0 123 55 193.5t146 70.5q39 0 73 -14.5t58 -35.5t45 -42t42 -35.5t40 -14.5q63 0 65 128h141q0 -121 -56 -193.5t-144 -72.5z" />
    <glyph glyph-name="macronbelowcmb" unicode="&#x331;" horiz-adv-x="0" 
d="M335 -226v-129h-670v129h670z" />
    <glyph glyph-name="greekquestionmark" unicode="&#x37e;" horiz-adv-x="551" 
d="M276 711q-61 0 -102.5 42t-41.5 102q0 61 41.5 102.5t102.5 41.5q60 0 101.5 -41.5t41.5 -102.5q0 -60 -41.5 -102t-101.5 -42zM247 -266h-189l87 511h244z" />
    <glyph glyph-name="tonosgreek" unicode="&#x384;" horiz-adv-x="900" 
d="M273 1258l80 320h276l-156 -320h-200z" />
    <glyph glyph-name="dieresistonosgreek" unicode="&#x385;" horiz-adv-x="1269" 
d="M316 1259q-53 0 -90 36.5t-37 87.5q0 52 37 88.5t90 36.5t89.5 -36.5t36.5 -88.5q0 -51 -36.5 -87.5t-89.5 -36.5zM953 1259q-52 0 -89 36.5t-37 87.5q0 52 37 88.5t89 36.5q54 0 90.5 -36.5t36.5 -88.5q0 -51 -37 -87.5t-90 -36.5zM681 1258h-171l27 320h263z" />
    <glyph glyph-name="Alphatonosgreek" unicode="&#x386;" horiz-adv-x="1425" 
d="M1126 0l-123 373h-531l-123 -373h-266l512 1443h291l512 -1443h-272zM734 1188l-202 -616h410l-201 616h-7zM94 1123l77 320h275l-158 -320h-194z" />
    <glyph glyph-name="anoteleia" unicode="&#x387;" horiz-adv-x="591" 
d="M296 805q-61 0 -102.5 41.5t-41.5 102.5t41.5 102.5t102.5 41.5q60 0 101.5 -41.5t41.5 -102.5t-41.5 -102.5t-101.5 -41.5z" />
    <glyph glyph-name="Epsilontonosgreek" unicode="&#x388;" horiz-adv-x="1554" 
d="M47 1123l77 320h275l-158 -320h-194zM1457 218v-218h-934v1443h934v-218h-676v-390h639v-205h-639v-412h676z" />
    <glyph glyph-name="Etatonosgreek" unicode="&#x389;" horiz-adv-x="1868" 
d="M47 1123l77 320h275l-158 -320h-194zM1740 0h-257v626h-702v-626h-258v1443h258v-600h702v600h257v-1443z" />
    <glyph glyph-name="Iotatonosgreek" unicode="&#x38a;" horiz-adv-x="908" 
d="M781 0h-258v1443h258v-1443zM47 1123l77 320h275l-158 -320h-194z" />
    <glyph glyph-name="Omicrontonosgreek" unicode="&#x38c;" horiz-adv-x="1752" 
d="M990 1467q315 0 499.5 -201t184.5 -545t-184.5 -544.5t-499.5 -200.5q-316 0 -500.5 200.5t-184.5 544.5t184.5 545t500.5 201zM990 1247q-193 0 -307 -142t-114 -384q0 -241 114 -383t307 -142t307 142t114 383t-114 383.5t-307 142.5zM31 1123l77 320h275l-158 -320
h-194z" />
    <glyph glyph-name="Upsilontonosgreek" unicode="&#x38e;" horiz-adv-x="1742" 
d="M33 1123l77 320h275l-158 -320h-194zM1210 0h-257v569l-506 874h283l350 -628h6l349 628h281l-506 -874v-569z" />
    <glyph glyph-name="Omegatonosgreek" unicode="&#x38f;" horiz-adv-x="1786" 
d="M1434 790q0 212 -114.5 334.5t-309.5 122.5t-309.5 -122.5t-114.5 -334.5q0 -176 73.5 -304.5t224.5 -225.5v-260h-558v211h299v7q-140 90 -219.5 243.5t-79.5 343.5q0 295 189 478.5t495 183.5t495.5 -183.5t189.5 -478.5q0 -190 -79.5 -343t-219.5 -244v-7h299v-211
h-559v260q151 97 224.5 225.5t73.5 304.5zM51 1123l77 320h275l-158 -320h-194z" />
    <glyph glyph-name="iotadieresistonosgreek" unicode="&#x390;" horiz-adv-x="609" 
d="M109 1093h249v-769q0 -68 32 -100.5t100 -32.5q30 0 73 5l10 -191q-45 -10 -140 -10q-174 0 -249 68t-75 227v803zM-56 1259q-53 0 -90 36.5t-37 87.5q0 52 37 88.5t90 36.5t89.5 -36.5t36.5 -88.5q0 -51 -36.5 -87.5t-89.5 -36.5zM581 1259q-52 0 -89 36.5t-37 87.5
q0 52 37 88.5t89 36.5q54 0 90.5 -36.5t36.5 -88.5q0 -51 -37 -87.5t-90 -36.5zM309 1258h-171l27 320h263z" />
    <glyph glyph-name="Alphagreek" unicode="&#x391;" horiz-adv-x="1369" 
d="M1070 0l-123 373h-531l-123 -373h-266l512 1443h291l512 -1443h-272zM678 1188l-202 -616h410l-201 616h-7z" />
    <glyph glyph-name="Betagreek" unicode="&#x392;" horiz-adv-x="1296" 
d="M744 0h-617v1443h611q197 0 314 -98t117 -262q0 -116 -76 -206t-187 -108v-8q148 -14 241 -111t93 -240q0 -191 -132.5 -300.5t-363.5 -109.5zM385 1242v-407h248q135 0 208 54.5t73 155.5q0 94 -62.5 145.5t-177.5 51.5h-289zM385 201h300q142 0 216.5 58t74.5 169
q0 110 -76.5 167t-224.5 57h-290v-451z" />
    <glyph glyph-name="Gammagreek" unicode="&#x393;" horiz-adv-x="1087" 
d="M385 0h-258v1443h900v-218h-642v-1225z" />
    <glyph glyph-name="Deltagreek" unicode="&#x394;" horiz-adv-x="1359" 
d="M1306 0h-1253v156l481 1287h291l481 -1287v-156zM329 225v-8h688v8l-340 972h-7z" />
    <glyph glyph-name="Epsilongreek" unicode="&#x395;" horiz-adv-x="1158" 
d="M1061 218v-218h-934v1443h934v-218h-676v-390h639v-205h-639v-412h676z" />
    <glyph glyph-name="Zetagreek" unicode="&#x396;" horiz-adv-x="1281" 
d="M92 0v172l766 1046v7h-745v218h1057v-172l-762 -1046v-7h781v-218h-1097z" />
    <glyph glyph-name="Etagreek" unicode="&#x397;" horiz-adv-x="1471" 
d="M1344 0h-257v626h-702v-626h-258v1443h258v-600h702v600h257v-1443z" />
    <glyph glyph-name="Thetagreek" unicode="&#x398;" horiz-adv-x="1557" 
d="M1051 616h-545v204h545v-204zM779 1467q330 0 515 -200.5t185 -545.5q0 -344 -186.5 -544.5t-513.5 -200.5t-514 200.5t-187 544.5t186.5 545t514.5 201zM779 1247q-206 0 -322.5 -140.5t-116.5 -385.5q0 -244 116.5 -384.5t322.5 -140.5t322.5 140.5t116.5 384.5
q0 245 -116.5 385.5t-322.5 140.5z" />
    <glyph glyph-name="Iotagreek" unicode="&#x399;" horiz-adv-x="512" 
d="M385 0h-258v1443h258v-1443z" />
    <glyph glyph-name="Kappagreek" unicode="&#x39a;" horiz-adv-x="1319" 
d="M385 0h-258v1443h258v-675h9l576 675h297l-556 -640l599 -803h-314l-469 630l-142 -166v-464z" />
    <glyph glyph-name="Lambdagreek" unicode="&#x39b;" horiz-adv-x="1335" 
d="M1030 0l-362 1175h-6l-363 -1175h-272l495 1443h291l495 -1443h-278z" />
    <glyph glyph-name="Mugreek" unicode="&#x39c;" horiz-adv-x="1744" 
d="M1616 0h-232v1024h-7l-417 -1012h-176l-417 1012h-7v-1024h-233v1443h299l442 -1089h8l442 1089h298v-1443z" />
    <glyph glyph-name="Nugreek" unicode="&#x39d;" horiz-adv-x="1452" 
d="M376 0h-249v1443h224l716 -1011h9v1011h248v-1443h-222l-717 1012h-9v-1012z" />
    <glyph glyph-name="Xigreek" unicode="&#x39e;" horiz-adv-x="1272" 
d="M97 1443h1077v-222h-1077v222zM1087 625h-903v210h903v-210zM97 222h1077v-222h-1077v222z" />
    <glyph glyph-name="Omicrongreek" unicode="&#x39f;" horiz-adv-x="1525" 
d="M763 1467q315 0 499.5 -201t184.5 -545t-184.5 -544.5t-499.5 -200.5q-316 0 -500.5 200.5t-184.5 544.5t184.5 545t500.5 201zM763 1247q-193 0 -307 -142t-114 -384q0 -241 114 -383t307 -142t307 142t114 383t-114 383.5t-307 142.5z" />
    <glyph glyph-name="Pigreek" unicode="&#x3a0;" horiz-adv-x="1451" 
d="M1324 0h-257v1226h-682v-1226h-258v1443h1197v-1443z" />
    <glyph glyph-name="Rhogreek" unicode="&#x3a1;" horiz-adv-x="1255" 
d="M127 1443h582q215 0 350 -134t135 -349t-138 -349t-358 -134h-313v-477h-258v1443zM385 1232v-547h255q139 0 215.5 72t76.5 203q0 130 -76 201t-215 71h-256z" />
    <glyph glyph-name="Sigmagreek" unicode="&#x3a3;" horiz-adv-x="1254" 
d="M407 225v-7h755v-218h-1070v163l396 561l-376 532v187h1024v-218h-703v-7l333 -479v-7z" />
    <glyph glyph-name="Taugreek" unicode="&#x3a4;" horiz-adv-x="1230" 
d="M744 0h-258v1225h-438v218h1134v-218h-438v-1225z" />
    <glyph glyph-name="Upsilongreek" unicode="&#x3a5;" horiz-adv-x="1323" 
d="M790 0h-257v569l-506 874h283l350 -628h6l349 628h281l-506 -874v-569z" />
    <glyph glyph-name="Phigreek" unicode="&#x3a6;" horiz-adv-x="1729" 
d="M1408 715q0 198 -112 316t-311 130v-891q199 12 311 129.5t112 315.5zM322 715q0 -198 111.5 -315.5t310.5 -129.5v891q-199 -12 -310.5 -129.5t-111.5 -316.5zM985 -88h-241v148q-307 14 -492.5 193t-185.5 462q0 284 185.5 463t492.5 193v150h241v-150
q307 -14 492.5 -193t185.5 -463q0 -283 -185.5 -462t-492.5 -193v-148z" />
    <glyph glyph-name="Chigreek" unicode="&#x3a7;" horiz-adv-x="1366" 
d="M44 0l470 723v7l-466 713h305l334 -542h8l338 542h289l-481 -719v-7l473 -717h-297l-340 530h-8l-344 -530h-281z" />
    <glyph glyph-name="Psigreek" unicode="&#x3a8;" horiz-adv-x="1645" 
d="M947 0h-248v320q-272 3 -432 161t-160 420v542h248v-541q0 -170 88 -263.5t256 -102.5v907h248v-907q168 9 255.5 102.5t87.5 263.5v541h248v-542q0 -262 -160.5 -420t-430.5 -161v-320z" />
    <glyph glyph-name="Omegagreek" unicode="&#x3a9;" horiz-adv-x="1552" 
d="M1200 790q0 212 -114.5 334.5t-309.5 122.5t-309.5 -122.5t-114.5 -334.5q0 -176 73.5 -304.5t224.5 -225.5v-260h-558v211h299v7q-140 90 -219.5 243.5t-79.5 343.5q0 295 189 478.5t495 183.5t495.5 -183.5t189.5 -478.5q0 -190 -79.5 -343t-219.5 -244v-7h299v-211
h-559v260q151 97 224.5 225.5t73.5 304.5z" />
    <glyph glyph-name="Iotadieresisgreek" unicode="&#x3aa;" horiz-adv-x="512" 
d="M385 0h-258v1443h258v-1443zM51 1569q-53 0 -90 36.5t-37 87.5q0 52 37 88.5t90 36.5t90 -36.5t37 -88.5q0 -51 -37 -87.5t-90 -36.5zM461 1569q-53 0 -90 36.5t-37 87.5q0 52 37 88.5t90 36.5t89.5 -36.5t36.5 -88.5q0 -51 -36.5 -87.5t-89.5 -36.5z" />
    <glyph glyph-name="Upsilondieresisgreek" unicode="&#x3ab;" horiz-adv-x="1323" 
d="M790 0h-257v569l-506 874h283l350 -628h6l349 628h281l-506 -874v-569zM456 1569q-53 0 -90 36.5t-37 87.5q0 52 37 88.5t90 36.5t90 -36.5t37 -88.5q0 -51 -37 -87.5t-90 -36.5zM866 1569q-53 0 -90 36.5t-37 87.5q0 52 37 88.5t90 36.5t89.5 -36.5t36.5 -88.5
q0 -51 -36.5 -87.5t-89.5 -36.5z" />
    <glyph glyph-name="alphatonosgreek" unicode="&#x3ac;" horiz-adv-x="1295" 
d="M569 196q124 0 199 96t75 255q0 157 -75 254.5t-196 97.5q-116 0 -186.5 -96.5t-70.5 -255.5q0 -162 68.5 -256.5t185.5 -94.5zM516 -11q-209 0 -332.5 151.5t-123.5 407.5q0 254 124 406t331 152q109 0 194 -51t135 -145h4v184h244v-774q0 -69 22 -99t70 -30q29 0 56 9
l10 -189q-58 -15 -126 -15q-217 0 -264 172q-1 2 -4 6.5t-4 6.5h-4q-48 -90 -136 -141t-196 -51zM484 1258l80 320h276l-156 -320h-200z" />
    <glyph glyph-name="epsilontonosgreek" unicode="&#x3ad;" horiz-adv-x="1125" 
d="M471 1258l80 320h276l-156 -320h-200zM541 -16q-220 0 -346 84.5t-126 227.5q0 92 52 157.5t146 94.5v5q-177 64 -177 237q0 144 127 231t342 87q229 0 357.5 -96.5t146.5 -273.5h-245q-19 89 -78.5 130t-188.5 42q-110 0 -164.5 -37.5t-54.5 -100.5q0 -64 52 -96
t167 -32h149v-186h-148q-111 0 -170 -36.5t-59 -99.5q0 -139 229 -139q239 0 279 175h252q-24 -170 -171 -272t-371 -102z" />
    <glyph glyph-name="etatonosgreek" unicode="&#x3ae;" horiz-adv-x="1296" 
d="M1191 -360h-249v999q0 129 -52.5 192.5t-172.5 63.5q-109 0 -173 -74t-64 -193v-628h-249v772q0 70 -23.5 100.5t-72.5 30.5q-30 0 -64 -9v189q62 14 132 14q199 0 254 -150q6 -15 13 -44h5q98 203 333 203q186 0 284.5 -107t98.5 -301v-1058zM480 1258l80 320h276
l-156 -320h-200z" />
    <glyph glyph-name="iotatonosgreek" unicode="&#x3af;" horiz-adv-x="609" 
d="M109 1094h249v-769q0 -68 32 -100.5t100 -32.5q30 0 73 5l10 -191q-45 -10 -140 -10q-174 0 -249 68t-75 227v803zM127 1258l80 320h276l-156 -320h-200z" />
    <glyph glyph-name="upsilondieresistonosgreek" unicode="&#x3b0;" horiz-adv-x="1127" 
d="M226 1259q-53 0 -90 36.5t-37 87.5q0 52 37 88.5t90 36.5t89.5 -36.5t36.5 -88.5q0 -51 -36.5 -87.5t-89.5 -36.5zM863 1259q-52 0 -89 36.5t-37 87.5q0 52 37 88.5t89 36.5q54 0 90.5 -36.5t36.5 -88.5q0 -51 -37 -87.5t-90 -36.5zM591 1258h-171l27 320h263zM556 -14
q-227 0 -341 117t-114 341v649h239v-630q0 -136 52 -200t163 -64q247 0 247 370q0 159 -21.5 275.5t-74.5 248.5h245q44 -94 70 -229t26 -278q0 -290 -126 -445t-365 -155z" />
    <glyph glyph-name="alphagreek" unicode="&#x3b1;" horiz-adv-x="1295" 
d="M569 195q124 0 199 96t75 255q0 157 -75 254.5t-196 97.5q-116 0 -186.5 -96.5t-70.5 -255.5q0 -162 68.5 -256.5t185.5 -94.5zM516 -12q-209 0 -332.5 151.5t-123.5 407.5q0 254 124 406t331 152q109 0 194 -51t135 -145h4v184h244v-774q0 -69 22 -99t70 -30q29 0 56 9
l10 -189q-58 -15 -126 -15q-217 0 -264 172q-1 2 -4 6.5t-4 6.5h-4q-48 -90 -136 -141t-196 -51z" />
    <glyph glyph-name="betagreek" unicode="&#x3b2;" horiz-adv-x="1213" 
d="M496 711v190h78q117 0 178.5 55t61.5 160q0 93 -60.5 147t-163.5 54q-237 0 -237 -304v-465q0 -170 73.5 -261.5t217.5 -91.5q118 0 186 67.5t68 177.5q0 130 -82.5 200.5t-241.5 70.5h-78zM106 996q0 256 123.5 390t361.5 134q213 0 334 -99.5t121 -276.5
q0 -109 -57.5 -191.5t-163.5 -123.5v-4q328 -75 328 -396q0 -198 -122.5 -319.5t-322.5 -121.5q-122 0 -211.5 50t-136.5 143h-5v-541h-249v1356z" />
    <glyph glyph-name="gammagreek" unicode="&#x3b3;" horiz-adv-x="1149" 
d="M1066 919q0 -163 -48 -319t-130.5 -298t-223.5 -336v-317h-245v305l-388 1139h260l270 -892h6q134 196 197.5 363t63.5 355q0 87 -11 174h238q11 -78 11 -174z" />
    <glyph glyph-name="deltagreek" unicode="&#x3b4;" horiz-adv-x="1158" 
d="M580 -16q-238 0 -379 138.5t-141 374.5q0 195 109 324t285 153v4q-221 103 -221 269q0 130 105.5 201.5t289.5 71.5q222 0 366 -69l-10 -190q-175 70 -335 70t-160 -97q0 -39 34.5 -70.5t140.5 -86.5q237 -128 334.5 -260.5t97.5 -307.5q0 -239 -142 -382t-374 -143z
M574 174q123 0 195 87.5t72 242.5q0 160 -72.5 246t-191.5 86q-128 0 -197 -92.5t-69 -244.5q0 -150 71 -237.5t192 -87.5z" />
    <glyph glyph-name="epsilongreek" unicode="&#x3b5;" horiz-adv-x="1125" 
d="M541 -16q-220 0 -346 84.5t-126 227.5q0 92 52 157.5t146 94.5v5q-177 64 -177 237q0 144 127 231t342 87q229 0 357.5 -96.5t146.5 -273.5h-245q-19 89 -78.5 130t-188.5 42q-110 0 -164.5 -37.5t-54.5 -100.5q0 -64 52 -96t167 -32h149v-186h-148q-111 0 -170 -36.5
t-59 -99.5q0 -139 229 -139q239 0 279 175h252q-24 -170 -171 -272t-371 -102z" />
    <glyph glyph-name="zetagreek" unicode="&#x3b6;" horiz-adv-x="943" 
d="M848 -364l-196 43q62 104 62 185q0 65 -43 104.5t-168 80.5q-246 80 -346 196t-100 312q0 199 130 392.5t366 351.5v6h-416v203h787v-183q-314 -191 -464.5 -371t-150.5 -372q0 -131 61.5 -199.5t238.5 -127.5q191 -65 264 -142t73 -203q0 -130 -98 -276z" />
    <glyph glyph-name="etagreek" unicode="&#x3b7;" horiz-adv-x="1292" 
d="M1191 -360h-249v999q0 129 -52.5 192.5t-172.5 63.5q-109 0 -173 -74t-64 -193v-628h-249v772q0 70 -23.5 100.5t-72.5 30.5q-30 0 -64 -9v189q62 14 132 14q199 0 254 -150q6 -15 13 -44h5q98 203 333 203q186 0 284.5 -107t98.5 -301v-1058z" />
    <glyph glyph-name="thetagreek" unicode="&#x3b8;" horiz-adv-x="1231" 
d="M616 -16q-264 0 -398 197t-134 576q0 373 136.5 568t395.5 195t395 -196t136 -569q0 -378 -135 -574.5t-396 -196.5zM616 179q139 0 207.5 118.5t73.5 369.5h-563q5 -251 73.5 -369.5t208.5 -118.5zM335 861h561q-15 465 -280 465q-266 0 -281 -465z" />
    <glyph glyph-name="iotagreek" unicode="&#x3b9;" horiz-adv-x="609" 
d="M109 1093h249v-769q0 -68 32 -100.5t100 -32.5q30 0 73 5l10 -191q-45 -10 -140 -10q-174 0 -249 68t-75 227v803z" />
    <glyph glyph-name="kappagreek" unicode="&#x3ba;" horiz-adv-x="1182" 
d="M114 0v1093h245v-534h4l304 354q93 109 155.5 146.5t151.5 37.5q71 0 118 -14v-189q-27 9 -74 9q-46 0 -81.5 -23t-97.5 -95l-128 -146l419 -639h-267l-314 487l-190 -207v-280h-245z" />
    <glyph glyph-name="lambdagreek" unicode="&#x3bb;" horiz-adv-x="1167" 
d="M27 0l434 1030l-42 114q-42 113 -80.5 147.5t-116.5 34.5q-39 0 -71 -10v190q61 14 120 14q101 0 163 -29.5t110 -102.5t98 -215l305 -867q24 -68 53 -92t82 -24q30 0 57 9l10 -189q-50 -15 -126 -15q-116 0 -179.5 47.5t-105.5 174.5l-175 518h-4l-285 -735h-247z" />
    <glyph glyph-name="nugreek" unicode="&#x3bd;" horiz-adv-x="1135" 
d="M403 0l-372 1093h260l270 -892h6q130 192 186 357.5t56 360.5q0 87 -11 174h243q11 -80 11 -174q0 -234 -81.5 -439t-281.5 -480h-286z" />
    <glyph glyph-name="xigreek" unicode="&#x3be;" horiz-adv-x="980" 
d="M854 -364l-196 43q62 104 62 187q0 65 -45.5 105t-181.5 84q-168 55 -264 116t-132.5 127t-36.5 157q0 120 75 204.5t214 114.5v4q-117 41 -171.5 105t-54.5 165q0 195 234 254v5h-230v203h794v-179l-120 -14q-237 -27 -338 -83t-101 -162q0 -89 76.5 -128t239.5 -39h167
v-196h-177q-356 0 -356 -209q0 -79 63.5 -131.5t242.5 -113.5q186 -62 260 -139.5t74 -203.5q0 -69 -23 -133t-75 -143z" />
    <glyph glyph-name="omicrongreek" unicode="&#x3bf;" horiz-adv-x="1166" 
d="M583 -16q-240 0 -381.5 152t-141.5 411t141 410t382 151t382 -151t141 -410t-141.5 -411t-381.5 -152zM583 187q127 0 197.5 94.5t70.5 264.5q0 167 -71.5 263t-196.5 96t-196.5 -96t-71.5 -263q0 -170 70.5 -264.5t197.5 -94.5z" />
    <glyph glyph-name="pigreek" unicode="&#x3c0;" horiz-adv-x="1422" 
d="M282 0v893h-217v200h1277v-200h-223v-580q0 -65 24 -94t76 -29q25 0 56 9l10 -189q-53 -15 -130 -15q-147 0 -210.5 65.5t-63.5 218.5v614h-361v-893h-238z" />
    <glyph glyph-name="rhogreek" unicode="&#x3c1;" horiz-adv-x="1203" 
d="M607 195q131 0 205.5 94.5t74.5 260.5q0 167 -73 261t-200 94q-128 0 -199.5 -94t-71.5 -260q0 -163 73 -259.5t191 -96.5zM94 -360v896q0 264 141.5 418t380.5 154q240 0 383 -151.5t143 -406.5q0 -259 -124 -410.5t-337 -151.5q-111 0 -199.5 51.5t-133.5 141.5h-5
v-541h-249z" />
    <glyph glyph-name="sigmafinalgreek" unicode="&#x3c2;" horiz-adv-x="1096" 
d="M854 -364l-196 43q62 105 62 183q0 66 -42.5 105.5t-167.5 81.5q-246 81 -348 201t-102 329q0 242 137 385.5t371 143.5q211 0 335.5 -104.5t144.5 -296.5h-236q-17 95 -77 147t-158 52q-125 0 -195 -84.5t-70 -227.5q0 -133 64.5 -205.5t238.5 -131.5
q192 -66 264.5 -142.5t72.5 -202.5q0 -130 -98 -276z" />
    <glyph glyph-name="sigmagreek" unicode="&#x3c3;" horiz-adv-x="1319" 
d="M580 -15q-237 0 -378.5 149t-141.5 397q0 255 153 408.5t408 153.5h631v-200h-302v-6q68 -55 107 -150.5t39 -207.5q0 -244 -140 -394t-376 -150zM579 185q125 0 198.5 95t73.5 258q0 160 -68.5 253t-186.5 93q-130 0 -205.5 -94.5t-75.5 -255.5q0 -160 72 -254.5
t192 -94.5z" />
    <glyph glyph-name="taugreek" unicode="&#x3c4;" horiz-adv-x="1078" 
d="M707 -5q-178 0 -251.5 69.5t-73.5 232.5v596h-328v200h945v-200h-368v-566q0 -68 31.5 -102t103.5 -34q23 0 71 5l10 -191q-54 -10 -140 -10z" />
    <glyph glyph-name="upsilongreek" unicode="&#x3c5;" horiz-adv-x="1127" 
d="M556 -14q-227 0 -341 117t-114 341v649h239v-630q0 -136 52 -200t163 -64q247 0 247 370q0 159 -21.5 275.5t-74.5 248.5h245q44 -94 70 -229t26 -278q0 -290 -126 -445t-365 -155z" />
    <glyph glyph-name="phigreek" unicode="&#x3c6;" horiz-adv-x="1517" 
d="M644 -360v345q-265 10 -427.5 161.5t-162.5 400.5q0 251 161.5 403.5t428.5 158.5v228h229v-228q267 -6 428.5 -158.5t161.5 -403.5q0 -249 -162.5 -400.5t-427.5 -161.5v-345h-229zM870 180q164 11 258 108t94 259q0 164 -92.5 262t-259.5 105v-734zM647 180v734
q-167 -7 -259.5 -105t-92.5 -262q0 -162 94 -259t258 -108z" />
    <glyph glyph-name="chigreek" unicode="&#x3c7;" horiz-adv-x="1206" 
d="M83 -360l406 722l-217 425q-37 70 -69 93t-88 23q-28 0 -60 -9v189q63 14 124 14q107 0 169 -42t120 -156l165 -327h4l273 521h251l-415 -738l213 -413q35 -68 63.5 -90t77.5 -22q36 0 58 9l10 -189q-45 -15 -114 -15q-116 0 -172.5 37t-113.5 147l-167 326h-4l-262 -505
h-252z" />
    <glyph glyph-name="psigreek" unicode="&#x3c8;" horiz-adv-x="1501" 
d="M624 -360v347q-250 1 -386.5 120.5t-136.5 336.5v649h239v-602q0 -153 68.5 -222.5t215.5 -69.5v1138h237v-1137q150 1 232 95t82 274q0 160 -21.5 276.5t-74.5 247.5h246q43 -95 69 -228t26 -275q0 -288 -146.5 -445.5t-412.5 -157.5v-347h-237z" />
    <glyph glyph-name="omegagreek" unicode="&#x3c9;" horiz-adv-x="1584" 
d="M475 -16q-197 0 -297.5 137t-100.5 394q0 154 42 310t113 268h255q-165 -282 -165 -581q0 -162 44 -238.5t136 -76.5q81 0 127.5 63t46.5 172v348h232v-348q0 -110 46 -172.5t128 -62.5q92 0 136 76.5t44 238.5q0 301 -164 581h254q71 -112 113 -268t42 -310
q0 -258 -100.5 -394.5t-297.5 -136.5q-222 0 -314 241h-6q-92 -241 -314 -241z" />
    <glyph glyph-name="iotadieresisgreek" unicode="&#x3ca;" horiz-adv-x="609" 
d="M33 1259q-53 0 -90 36.5t-37 87.5q0 52 37 88.5t90 36.5t90 -36.5t37 -88.5q0 -51 -37 -87.5t-90 -36.5zM443 1259q-53 0 -90 36.5t-37 87.5q0 52 37 88.5t90 36.5t89.5 -36.5t36.5 -88.5q0 -51 -36.5 -87.5t-89.5 -36.5zM109 1093h249v-769q0 -68 32 -100.5t100 -32.5
q30 0 73 5l10 -191q-45 -10 -140 -10q-174 0 -249 68t-75 227v803z" />
    <glyph glyph-name="upsilondieresisgreek" unicode="&#x3cb;" horiz-adv-x="1127" 
d="M347 1259q-53 0 -90 36.5t-37 87.5q0 52 37 88.5t90 36.5t90 -36.5t37 -88.5q0 -51 -37 -87.5t-90 -36.5zM757 1259q-53 0 -90 36.5t-37 87.5q0 52 37 88.5t90 36.5t89.5 -36.5t36.5 -88.5q0 -51 -36.5 -87.5t-89.5 -36.5zM556 -14q-227 0 -341 117t-114 341v649h239
v-630q0 -136 52 -200t163 -64q247 0 247 370q0 159 -21.5 275.5t-74.5 248.5h245q44 -94 70 -229t26 -278q0 -290 -126 -445t-365 -155z" />
    <glyph glyph-name="omicrontonosgreek" unicode="&#x3cc;" horiz-adv-x="1166" 
d="M583 -16q-240 0 -381.5 152t-141.5 411t141 410t382 151t382 -151t141 -410t-141.5 -411t-381.5 -152zM583 187q127 0 197.5 94.5t70.5 264.5q0 167 -71.5 263t-196.5 96t-196.5 -96t-71.5 -263q0 -170 70.5 -264.5t197.5 -94.5zM492 1258l80 320h276l-156 -320h-200z
" />
    <glyph glyph-name="upsilontonosgreek" unicode="&#x3cd;" horiz-adv-x="1127" 
d="M435 1258l80 320h276l-156 -320h-200zM556 -14q-227 0 -341 117t-114 341v649h239v-630q0 -136 52 -200t163 -64q247 0 247 370q0 159 -21.5 275.5t-74.5 248.5h245q44 -94 70 -229t26 -278q0 -290 -126 -445t-365 -155z" />
    <glyph glyph-name="omegatonosgreek" unicode="&#x3ce;" horiz-adv-x="1584" 
d="M475 -16q-197 0 -297.5 137t-100.5 394q0 154 42 310t113 268h255q-165 -282 -165 -581q0 -162 44 -238.5t136 -76.5q81 0 127.5 63t46.5 172v348h232v-348q0 -110 46 -172.5t128 -62.5q92 0 136 76.5t44 238.5q0 301 -164 581h254q71 -112 113 -268t42 -310
q0 -258 -100.5 -394.5t-297.5 -136.5q-222 0 -314 241h-6q-92 -241 -314 -241zM693 1258l80 320h276l-156 -320h-200z" />
    <glyph glyph-name="uni0400" unicode="&#x400;" horiz-adv-x="1179" 
d="M507 1555l-279 306h246l231 -306h-198zM1071 218v-218h-934v1443h934v-218h-676v-390h639v-205h-639v-412h676z" />
    <glyph glyph-name="Iocyrillic" unicode="&#x401;" horiz-adv-x="1179" 
d="M399 1569q-53 0 -90 36.5t-37 87.5q0 52 37 88.5t90 36.5t90 -36.5t37 -88.5q0 -51 -37 -87.5t-90 -36.5zM809 1569q-53 0 -90 36.5t-37 87.5q0 52 37 88.5t90 36.5t89.5 -36.5t36.5 -88.5q0 -51 -36.5 -87.5t-89.5 -36.5zM1071 218v-218h-934v1443h934v-218h-676v-390
h639v-205h-639v-412h676z" />
    <glyph glyph-name="Djecyrillic" unicode="&#x402;" horiz-adv-x="1713" 
d="M1124 -48q-100 0 -141 17v209q40 -14 122 -14q114 0 179.5 68.5t65.5 189.5q0 119 -74.5 190.5t-200.5 71.5q-104 0 -193.5 -51t-127.5 -129v-504h-257v1226h-439v217h1135v-217h-439v-450h8q133 131 355 131q227 0 359.5 -131.5t132.5 -341.5q0 -219 -131 -350.5
t-354 -131.5z" />
    <glyph glyph-name="Gjecyrillic" unicode="&#x403;" horiz-adv-x="1104" 
d="M702 1542h-198l231 306h246zM396 0h-259v1443h903v-219h-644v-1224z" />
    <glyph glyph-name="Ecyrillic" unicode="&#x404;" horiz-adv-x="1456" 
d="M1378 447q-41 -222 -205.5 -349t-413.5 -127q-309 0 -490 202t-181 549q0 345 181.5 547.5t489.5 202.5q244 0 415 -137.5t203 -359.5h-255q-32 125 -131 199t-232 74q-164 0 -274 -111t-127 -299h593v-208h-596q13 -200 123.5 -317.5t281.5 -117.5q136 0 231.5 66.5
t130.5 185.5h256z" />
    <glyph glyph-name="Dzecyrillic" unicode="&#x405;" horiz-adv-x="1284" 
d="M77 406h250q12 -99 102 -159.5t223 -60.5q130 0 212.5 58t82.5 148q0 78 -60 126.5t-196 80.5l-187 44q-199 46 -295.5 143t-96.5 252q0 191 150 310t387 119q238 0 383.5 -117.5t150.5 -308.5h-246q-9 101 -87 158.5t-203 57.5q-122 0 -197.5 -55t-75.5 -145
q0 -72 58.5 -117t191.5 -77l166 -38q219 -50 318 -146t99 -257q0 -205 -153.5 -325.5t-415.5 -120.5q-250 0 -401.5 115.5t-159.5 314.5z" />
    <glyph glyph-name="Icyrillic" unicode="&#x406;" horiz-adv-x="532" 
d="M395 0h-258v1443h258v-1443z" />
    <glyph glyph-name="Yicyrillic" unicode="&#x407;" horiz-adv-x="532" 
d="M395 0h-258v1443h258v-1443zM61 1569q-53 0 -90 36.5t-37 87.5q0 52 37 88.5t90 36.5t90 -36.5t37 -88.5q0 -51 -37 -87.5t-90 -36.5zM471 1569q-53 0 -90 36.5t-37 87.5q0 52 37 88.5t90 36.5t89.5 -36.5t36.5 -88.5q0 -51 -36.5 -87.5t-89.5 -36.5z" />
    <glyph glyph-name="Jecyrillic" unicode="&#x408;" horiz-adv-x="1116" 
d="M45 394h251q2 -89 58.5 -144t146.5 -55q104 0 158.5 61.5t54.5 178.5v1008h257v-1010q0 -220 -123.5 -342t-343.5 -122q-207 0 -333 116.5t-126 308.5z" />
    <glyph glyph-name="Ljecyrillic" unicode="&#x409;" horiz-adv-x="2176" 
d="M547 559q-8 -137 -32.5 -238.5t-71.5 -178t-122.5 -115t-179.5 -38.5q-58 0 -94 12v226q30 -7 62 -7q45 0 78.5 18t54.5 47.5t35 76.5t20.5 96.5t10.5 115.5l47 869h948v-503h306q220 0 358.5 -130.5t138.5 -339.5q0 -210 -135 -340t-351 -130h-575v1226h-459zM1303 212
h249q138 0 214 67t76 191q0 125 -76 192.5t-215 67.5h-248v-518z" />
    <glyph glyph-name="Njecyrillic" unicode="&#x40a;" horiz-adv-x="2193" 
d="M395 635v-635h-258v1443h258v-593h668v593h258v-593h306q220 0 358 -116t138 -302q0 -193 -134.5 -312.5t-351.5 -119.5h-574v635h-668zM1321 212h258q136 0 209.5 57.5t73.5 163.5q0 100 -74 154t-210 54h-257v-429z" />
    <glyph glyph-name="Tshecyrillic" unicode="&#x40b;" horiz-adv-x="1729" 
d="M1064 684q-100 0 -185.5 -50.5t-124.5 -129.5v-504h-257v1226h-439v217h1135v-217h-439v-448h8q132 129 348 129q229 0 359 -139.5t130 -373.5v-394h-258v378q0 146 -72.5 226t-204.5 80z" />
    <glyph glyph-name="Kjecyrillic" unicode="&#x40c;" horiz-adv-x="1341" 
d="M1036 1848l-279 -306h-198l231 306h246zM648 757l673 -757h-330l-588 658h-8v-658h-258v1443h258v-631h8l565 631h298z" />
    <glyph glyph-name="uni040D" unicode="&#x40d;" horiz-adv-x="1495" 
d="M676 1552l-279 306h246l231 -306h-198zM1101 0v1038h-13l-701 -1038h-250v1443h257v-1041h13l700 1041h250v-1443h-256z" />
    <glyph glyph-name="Ushortcyrillic" unicode="&#x40e;" horiz-adv-x="1293" 
d="M325 1843h156q2 -79 51 -129.5t126 -50.5t126 50.5t51 129.5h156q0 -137 -92.5 -221.5t-240.5 -84.5t-240.5 84.5t-92.5 221.5zM329 -12q-78 0 -109 14v215q37 -8 85 -8q74 0 125.5 28.5t90.5 93.5l-484 1112h273l342 -850h13l328 850h271l-442 -1030
q-67 -156 -133.5 -246t-153 -134.5t-206.5 -44.5z" />
    <glyph glyph-name="Dzhecyrillic" unicode="&#x40f;" horiz-adv-x="1474" 
d="M616 0h-479v1443h258v-1226h684v1226h258v-1443h-479v-285h-242v285z" />
    <glyph glyph-name="Acyrillic" unicode="&#x410;" horiz-adv-x="1389" 
d="M1080 0l-123 373h-531l-123 -373h-266l512 1443h291l512 -1443h-272zM688 1188l-202 -616h410l-201 616h-7z" />
    <glyph glyph-name="Becyrillic" unicode="&#x411;" horiz-adv-x="1288" 
d="M1191 447q0 -200 -135 -323.5t-351 -123.5h-568v1443h917v-217h-659v-337h302q219 0 356.5 -122.5t137.5 -319.5zM395 212h245q137 0 212 61t75 174q0 114 -75 175t-213 61h-244v-471z" />
    <glyph glyph-name="Vecyrillic" unicode="&#x412;" horiz-adv-x="1316" 
d="M754 0h-617v1443h611q197 0 314 -98t117 -262q0 -116 -76 -206t-187 -108v-8q148 -14 241 -111t93 -240q0 -191 -132.5 -300.5t-363.5 -109.5zM395 1242v-407h248q135 0 208 54.5t73 155.5q0 94 -62.5 145.5t-177.5 51.5h-289zM395 201h300q142 0 216.5 58t74.5 169
q0 110 -76.5 167t-224.5 57h-290v-451z" />
    <glyph glyph-name="Gecyrillic" unicode="&#x413;" horiz-adv-x="1104" 
d="M396 0h-259v1443h903v-219h-644v-1224z" />
    <glyph glyph-name="Decyrillic" unicode="&#x414;" horiz-adv-x="1532" 
d="M515 578q-9 -133 -30 -214.5t-68 -137.5v-8h630v1008h-491zM262 0v-285h-235v503h103q73 46 105 134.5t41 241.5l52 849h976v-1225h180v-503h-234v285h-988z" />
    <glyph glyph-name="Iecyrillic" unicode="&#x415;" horiz-adv-x="1179" 
d="M1071 218v-218h-934v1443h934v-218h-676v-390h639v-205h-639v-412h676z" />
    <glyph glyph-name="Zhecyrillic" unicode="&#x416;" horiz-adv-x="2029" 
d="M1384 756l626 -756h-323l-541 658h-8v-658h-252v658h-8l-545 -658h-315l621 753l-578 690h300l517 -631h8v631h252v-631h8l518 631h295z" />
    <glyph glyph-name="Zecyrillic" unicode="&#x417;" horiz-adv-x="1249" 
d="M425 633v208h192q118 0 191 61t73 159q0 97 -68.5 153.5t-187.5 56.5q-120 0 -194 -59t-82 -161h-241q10 197 151 312.5t373 115.5q221 0 360 -108.5t139 -280.5q0 -121 -75 -213t-195 -119v-8q145 -17 230 -113t85 -242q0 -185 -156.5 -308t-392.5 -123
q-241 0 -392.5 119t-161.5 315h248q8 -101 91.5 -160.5t215.5 -59.5q127 0 205 64t78 168q0 105 -76.5 164t-212.5 59h-197z" />
    <glyph glyph-name="Iicyrillic" unicode="&#x418;" horiz-adv-x="1495" 
d="M1101 0v1038h-13l-701 -1038h-250v1443h257v-1041h13l700 1041h250v-1443h-256z" />
    <glyph glyph-name="Iishortcyrillic" unicode="&#x419;" horiz-adv-x="1495" 
d="M414 1842h156q2 -79 51 -129.5t126 -50.5t126 50.5t51 129.5h156q0 -137 -92.5 -221.5t-240.5 -84.5t-240.5 84.5t-92.5 221.5zM1101 0v1038h-13l-701 -1038h-250v1443h257v-1041h13l700 1041h250v-1443h-256z" />
    <glyph glyph-name="Kacyrillic" unicode="&#x41a;" horiz-adv-x="1341" 
d="M648 757l673 -757h-330l-588 658h-8v-658h-258v1443h258v-631h8l565 631h298z" />
    <glyph glyph-name="Elcyrillic" unicode="&#x41b;" horiz-adv-x="1440" 
d="M1303 0h-258v1226h-459l-39 -667q-17 -289 -113 -429.5t-293 -140.5q-56 0 -94 12v226q30 -7 62 -7q99 0 144 84.5t55 269.5l47 869h948v-1443z" />
    <glyph glyph-name="Emcyrillic" unicode="&#x41c;" horiz-adv-x="1764" 
d="M1626 0h-232v1024h-7l-417 -1012h-176l-417 1012h-7v-1024h-233v1443h299l442 -1089h8l442 1089h298v-1443z" />
    <glyph glyph-name="Encyrillic" unicode="&#x41d;" horiz-adv-x="1491" 
d="M1354 0h-257v626h-702v-626h-258v1443h258v-600h702v600h257v-1443z" />
    <glyph glyph-name="Ocyrillic" unicode="&#x41e;" horiz-adv-x="1545" 
d="M773 1467q315 0 499.5 -201t184.5 -545t-184.5 -544.5t-499.5 -200.5q-316 0 -500.5 200.5t-184.5 544.5t184.5 545t500.5 201zM773 1247q-193 0 -307 -142t-114 -384q0 -241 114 -383t307 -142t307 142t114 383t-114 383.5t-307 142.5z" />
    <glyph glyph-name="Pecyrillic" unicode="&#x41f;" horiz-adv-x="1474" 
d="M1337 0h-257v1224h-684v-1224h-259v1443h1200v-1443z" />
    <glyph glyph-name="Ercyrillic" unicode="&#x420;" horiz-adv-x="1282" 
d="M137 1443h582q215 0 350 -134t135 -349t-138 -349t-358 -134h-313v-477h-258v1443zM395 1232v-547h255q139 0 215.5 72t76.5 203q0 130 -76 201t-215 71h-256z" />
    <glyph glyph-name="Escyrillic" unicode="&#x421;" horiz-adv-x="1456" 
d="M759 -29q-309 0 -490 202t-181 549q0 345 181.5 547.5t489.5 202.5q244 0 415 -137.5t203 -359.5h-255q-32 125 -131 199t-232 74q-186 0 -296.5 -142.5t-110.5 -383.5q0 -243 110 -385t298 -142q136 0 231.5 66.5t130.5 185.5h256q-41 -222 -205.5 -349t-413.5 -127z
" />
    <glyph glyph-name="Tecyrillic" unicode="&#x422;" horiz-adv-x="1250" 
d="M754 0h-258v1225h-438v218h1134v-218h-438v-1225z" />
    <glyph glyph-name="Ucyrillic" unicode="&#x423;" horiz-adv-x="1293" 
d="M329 -12q-78 0 -109 14v215q37 -8 85 -8q74 0 125.5 28.5t90.5 93.5l-484 1112h273l342 -850h13l328 850h271l-442 -1030q-67 -156 -133.5 -246t-153 -134.5t-206.5 -44.5z" />
    <glyph glyph-name="Efcyrillic" unicode="&#x424;" horiz-adv-x="1714" 
d="M733 339v771q-184 -8 -291 -111t-107 -274q0 -172 107 -275t291 -111zM1379 724q0 173 -107 276t-290 110v-771q183 8 290 111.5t107 273.5zM730 127q-300 8 -477.5 168t-177.5 430q0 269 177.5 429t477.5 169v146h254v-146q300 -8 477 -168.5t177 -430.5
q0 -268 -177 -428t-477 -169v-153h-254v153z" />
    <glyph glyph-name="Xacyrillic" unicode="&#x425;" horiz-adv-x="1386" 
d="M54 0l470 723v7l-466 713h305l334 -542h8l338 542h289l-481 -719v-7l473 -717h-297l-340 530h-8l-344 -530h-281z" />
    <glyph glyph-name="Tsecyrillic" unicode="&#x426;" horiz-adv-x="1565" 
d="M1517 -285h-234v285h-1146v1443h258v-1226h685v1226h257v-1226h180v-502z" />
    <glyph glyph-name="Checyrillic" unicode="&#x427;" horiz-adv-x="1411" 
d="M1274 0h-258v613h-13q-50 -40 -138 -70.5t-200 -30.5q-174 0 -300.5 70.5t-188.5 189.5t-62 273v398h257v-384q0 -152 85.5 -237t243.5 -85q109 0 189 33t127 80v593h258v-1443z" />
    <glyph glyph-name="Shacyrillic" unicode="&#x428;" horiz-adv-x="1949" 
d="M137 0v1443h258v-1226h451v1226h257v-1226h451v1226h258v-1443h-1675z" />
    <glyph glyph-name="Shchacyrillic" unicode="&#x429;" horiz-adv-x="2039" 
d="M1992 -285h-235v285h-1620v1443h258v-1226h451v1226h257v-1226h451v1226h258v-1226h180v-502z" />
    <glyph glyph-name="Hardsigncyrillic" unicode="&#x42a;" horiz-adv-x="1522" 
d="M966 0h-574v1226h-334v217h591v-503h306q220 0 358.5 -130.5t138.5 -339.5q0 -210 -135 -340t-351 -130zM649 212h249q138 0 214 67t76 191q0 125 -76 192.5t-215 67.5h-248v-518z" />
    <glyph glyph-name="Yericyrillic" unicode="&#x42b;" horiz-adv-x="1763" 
d="M1626 0h-258v1443h258v-1443zM137 0v1443h258v-503h306q220 0 358.5 -130.5t138.5 -339.5q0 -210 -135 -340t-351 -130h-575zM395 212h249q138 0 214 67t76 191q0 125 -76 192.5t-215 67.5h-248v-518z" />
    <glyph glyph-name="Softsigncyrillic" unicode="&#x42c;" horiz-adv-x="1268" 
d="M137 0v1443h258v-503h306q220 0 358.5 -130.5t138.5 -339.5q0 -210 -135 -340t-351 -130h-575zM395 212h249q138 0 214 67t76 191q0 125 -76 192.5t-215 67.5h-248v-518z" />
    <glyph glyph-name="Ereversedcyrillic" unicode="&#x42d;" horiz-adv-x="1456" 
d="M703 -29q-250 0 -416.5 127t-208.5 349h256q35 -119 132.5 -185.5t235.5 -66.5q170 0 279 117.5t120 317.5h-596v208h593q-16 189 -124 299.5t-271 110.5q-135 0 -235.5 -74.5t-132.5 -198.5h-256q32 222 205 359.5t419 137.5q306 0 485.5 -202.5t179.5 -547.5
q0 -347 -179 -549t-486 -202z" />
    <glyph glyph-name="IUcyrillic" unicode="&#x42e;" horiz-adv-x="2053" 
d="M1294 -36q-289 0 -466 177t-202 485h-231v-626h-258v1443h258v-600h233q32 297 208.5 466.5t457.5 169.5q310 0 490.5 -203.5t180.5 -553.5q0 -349 -180 -553.5t-491 -204.5zM1293 1256q-188 0 -299 -144.5t-111 -389.5t110 -390t300 -145q188 0 298.5 145t110.5 390
t-110.5 389.5t-298.5 144.5z" />
    <glyph glyph-name="IAcyrillic" unicode="&#x42f;" horiz-adv-x="1339" 
d="M946 735v498h-275q-133 0 -207.5 -65.5t-74.5 -183.5t74 -183.5t208 -65.5h275zM708 533l-363 -533h-290l392 568q-146 41 -233.5 152.5t-87.5 264.5q0 205 137.5 331.5t363.5 126.5h575v-1443h-256v533h-238z" />
    <glyph glyph-name="acyrillic" unicode="&#x430;" horiz-adv-x="1136" 
d="M511 179q114 0 190 64t76 163v83l-250 -16q-208 -14 -208 -150q0 -66 52.5 -105t139.5 -39zM438 -12q-162 0 -265.5 90t-103.5 235q0 146 108.5 228t315.5 95l284 17v80q0 86 -55.5 132.5t-156.5 46.5q-84 0 -141 -40t-70 -107h-230q5 150 130.5 246.5t318.5 96.5
q205 0 327.5 -98t122.5 -261v-749h-239v176h-6q-45 -87 -137.5 -137.5t-202.5 -50.5z" />
    <glyph glyph-name="becyrillic" unicode="&#x431;" horiz-adv-x="1211" 
d="M613 -22q-260 0 -397 166.5t-137 487.5q0 304 64.5 492.5t194 277.5t337.5 96l108 4q90 3 171.5 17.5t114.5 32.5v-200q-20 -18 -96.5 -34.5t-175.5 -20.5l-103 -3q-208 -7 -298 -106.5t-120 -331.5h8q52 97 147 149t225 52q222 0 353.5 -142t131.5 -382
q0 -257 -141.5 -406t-386.5 -149zM610 181q131 0 203.5 90.5t72.5 256.5q0 159 -72.5 246.5t-203.5 87.5t-203.5 -87.5t-72.5 -246.5q0 -166 72.5 -256.5t203.5 -90.5z" />
    <glyph glyph-name="vecyrillic" unicode="&#x432;" horiz-adv-x="1103" 
d="M573 921h-213v-275h192q183 0 183 139q0 65 -42 100.5t-120 35.5zM568 484h-208v-312h229q92 0 141 39.5t49 115.5q0 157 -211 157zM116 0v1093h514q163 0 256 -74t93 -204q0 -86 -54.5 -153.5t-135.5 -81.5v-8q107 -14 173 -84.5t66 -172.5q0 -144 -105.5 -229.5
t-285.5 -85.5h-521z" />
    <glyph glyph-name="gecyrillic" unicode="&#x433;" horiz-adv-x="919" 
d="M853 899h-489v-899h-248v1093h737v-194z" />
    <glyph glyph-name="decyrillic" unicode="&#x434;" horiz-adv-x="1289" 
d="M845 193v707h-363l-28 -394q-15 -206 -84 -305v-8h475zM248 -285h-228v478h87q106 64 124 326l38 574h823v-900h167v-478h-228v285h-783v-285z" />
    <glyph glyph-name="iecyrillic" unicode="&#x435;" horiz-adv-x="1155" 
d="M584 914q-109 0 -182 -72.5t-81 -189.5h518q-4 118 -74 190t-181 72zM840 325h234q-24 -152 -157 -246.5t-324 -94.5q-242 0 -382.5 150t-140.5 408t139.5 412t374.5 154q230 0 365 -146t135 -394v-82h-765v-15q0 -132 77 -212.5t202 -80.5q90 0 155 39.5t87 107.5z" />
    <glyph glyph-name="zhecyrillic" unicode="&#x436;" horiz-adv-x="1656" 
d="M1188 581l451 -581h-303l-379 492h-8v-492h-246v492h-8l-379 -492h-299l448 577l-435 516h292l373 -458h8v458h246v-458h8l373 458h290z" />
    <glyph glyph-name="zecyrillic" unicode="&#x437;" horiz-adv-x="1058" 
d="M525 -21q-199 0 -324.5 91.5t-140.5 249.5h242q18 -70 75.5 -107.5t147.5 -37.5q100 0 155.5 41.5t55.5 111.5q0 148 -210 148h-157v174h152q181 0 181 135q0 62 -45.5 99t-132.5 37q-86 0 -140.5 -36t-64.5 -100h-237q17 153 134.5 241t306.5 88q202 0 312 -81.5
t110 -222.5q0 -84 -47 -147.5t-125 -83.5v-8q102 -25 156 -89t54 -157q0 -158 -124 -252t-334 -94z" />
    <glyph glyph-name="iicyrillic" unicode="&#x438;" horiz-adv-x="1211" 
d="M360 0h-244v1093h244v-738h8l482 738h245v-1093h-245v743h-8z" />
    <glyph glyph-name="iishortcyrillic" unicode="&#x439;" horiz-adv-x="1211" 
d="M262 1574h160q1 -85 50.5 -139t130.5 -54t130.5 54t50.5 139h160q0 -145 -94 -234t-247 -89t-247 89t-94 234zM360 0h-244v1093h244v-738h8l482 738h245v-1093h-245v743h-8z" />
    <glyph glyph-name="kacyrillic" unicode="&#x43a;" horiz-adv-x="1108" 
d="M603 582l488 -582h-307l-412 492h-8v-492h-248v1093h248v-458h8l407 458h291z" />
    <glyph glyph-name="elcyrillic" unicode="&#x43b;" horiz-adv-x="1177" 
d="M469 506q-8 -124 -29 -214.5t-61 -161t-106 -106t-159 -35.5q-51 0 -82 12v215q27 -8 60 -8q51 0 84 41t48 106t21 164l35 574h781v-1093h-248v899h-317z" />
    <glyph glyph-name="emcyrillic" unicode="&#x43c;" horiz-adv-x="1525" 
d="M353 0h-237v1093h316l329 -772h8l330 772h310v-1093h-238v749h-8l-312 -700h-178l-312 700h-8v-749z" />
    <glyph glyph-name="encyrillic" unicode="&#x43d;" horiz-adv-x="1197" 
d="M834 0v466h-470v-466h-248v1093h248v-433h470v433h247v-1093h-247z" />
    <glyph glyph-name="ocyrillic" unicode="&#x43e;" horiz-adv-x="1193" 
d="M596 -16q-242 0 -384 151t-142 412q0 258 142.5 409.5t383.5 151.5q242 0 384.5 -151t142.5 -410q0 -261 -142 -412t-385 -151zM596 183q129 0 201.5 95.5t72.5 267.5q0 171 -72.5 267t-201.5 96q-128 0 -200.5 -96t-72.5 -267t72.5 -267t200.5 -96z" />
    <glyph glyph-name="pecyrillic" unicode="&#x43f;" horiz-adv-x="1187" 
d="M824 0v899h-460v-899h-248v1093h955v-1093h-247z" />
    <glyph glyph-name="ercyrillic" unicode="&#x440;" horiz-adv-x="1236" 
d="M709 1105q209 0 332 -151t123 -408q0 -256 -122 -407t-329 -151q-117 0 -206.5 50.5t-136.5 142.5h-5v-541h-249v1453h243v-184h5q45 90 138 143t207 53zM636 195q124 0 198.5 95.5t74.5 255.5t-74.5 256t-198.5 96q-122 0 -197 -97t-75 -255t75 -254.5t197 -96.5z" />
    <glyph glyph-name="escyrillic" unicode="&#x441;" horiz-adv-x="1126" 
d="M1066 735h-237q-20 77 -81.5 123.5t-155.5 46.5q-123 0 -197 -97t-74 -261q0 -169 74 -264.5t199 -95.5q92 0 153.5 43.5t83.5 125.5h237q-23 -170 -152 -271t-325 -101q-238 0 -379.5 151.5t-141.5 411.5q0 256 141.5 408.5t377.5 152.5q199 0 327 -105t150 -268z" />
    <glyph glyph-name="tecyrillic" unicode="&#x442;" horiz-adv-x="1009" 
d="M965 1093v-194h-337v-899h-248v899h-337v194h922z" />
    <glyph glyph-name="ucyrillic" unicode="&#x443;" horiz-adv-x="1116" 
d="M238 -398q-73 0 -98 5v198q19 -4 68 -4q80 0 126.5 33.5t69.5 110.5l14 51l-391 1097h271l262 -878h5l261 878h263l-396 -1131q-70 -201 -170.5 -280.5t-284.5 -79.5z" />
    <glyph glyph-name="efcyrillic" unicode="&#x444;" horiz-adv-x="1543" 
d="M652 180v732q-152 -4 -241.5 -101.5t-89.5 -264.5t89 -264t242 -102zM1222 546q0 168 -89 265t-242 101v-732q152 4 241.5 101.5t89.5 264.5zM651 -15q-266 6 -423.5 156.5t-157.5 405.5q0 253 158 404t423 156v337h242v-337q266 -5 423 -155.5t157 -405.5
q0 -253 -158 -404.5t-422 -156.5v-345h-242v345z" />
    <glyph glyph-name="hacyrillic" unicode="&#x445;" horiz-adv-x="1083" 
d="M539 395h-6l-229 -395h-267l356 545l-352 548h280l225 -387h5l222 387h273l-353 -541l349 -552h-273z" />
    <glyph glyph-name="tsecyrillic" unicode="&#x446;" horiz-adv-x="1263" 
d="M1233 -285h-229v285h-888v1093h248v-900h453v900h247v-900h169v-478z" />
    <glyph glyph-name="checyrillic" unicode="&#x447;" horiz-adv-x="1143" 
d="M1027 0h-248v461h-13q-98 -98 -273 -98q-189 0 -295 107.5t-106 290.5v332h248v-306q0 -101 53.5 -157.5t151.5 -56.5q157 0 234 94v426h248v-1093z" />
    <glyph glyph-name="shacyrillic" unicode="&#x448;" horiz-adv-x="1667" 
d="M116 0v1093h248v-900h346v900h247v-900h346v900h248v-1093h-1435z" />
    <glyph glyph-name="shchacyrillic" unicode="&#x449;" horiz-adv-x="1745" 
d="M1715 -285h-228v285h-1371v1093h248v-900h346v900h247v-900h346v900h248v-900h164v-478z" />
    <glyph glyph-name="hardsigncyrillic" unicode="&#x44a;" horiz-adv-x="1270" 
d="M788 0h-458v899h-287v194h535v-330h210q191 0 304.5 -103.5t113.5 -278.5t-113.5 -278t-304.5 -103zM758 573h-180v-381h180q92 0 146.5 52t54.5 138t-55 138.5t-146 52.5z" />
    <glyph glyph-name="yericyrillic" unicode="&#x44b;" horiz-adv-x="1474" 
d="M1111 0v1093h247v-1093h-247zM544 573h-180v-381h180q92 0 146.5 52t54.5 138t-55 138.5t-146 52.5zM116 0v1093h248v-330h210q191 0 304.5 -103.5t113.5 -278.5t-113.5 -278t-304.5 -103h-458z" />
    <glyph glyph-name="softsigncyrillic" unicode="&#x44c;" horiz-adv-x="1056" 
d="M544 573h-180v-381h180q92 0 146.5 52t54.5 138t-55 138.5t-146 52.5zM116 0v1093h248v-330h210q191 0 304.5 -103.5t113.5 -278.5t-113.5 -278t-304.5 -103h-458z" />
    <glyph glyph-name="ereversedcyrillic" unicode="&#x44d;" horiz-adv-x="1126" 
d="M295 355q22 -81 84 -124.5t156 -43.5q112 0 185.5 77t82.5 212h-436v174h432q-16 118 -88 186.5t-174 68.5q-95 0 -157.5 -46.5t-82.5 -123.5h-237q22 163 151 268t329 105q235 0 375.5 -152.5t140.5 -408.5q0 -260 -140.5 -411.5t-377.5 -151.5q-198 0 -327 100.5
t-153 270.5h237z" />
    <glyph glyph-name="iucyrillic" unicode="&#x44e;" horiz-adv-x="1642" 
d="M1053 -22q-222 0 -358 129t-157 359h-174v-466h-248v1093h248v-433h177q30 214 164.5 334t347.5 120q241 0 380 -151t139 -416q0 -267 -138.5 -418t-380.5 -151zM1052 181q126 0 195.5 95.5t69.5 269.5t-69.5 269.5t-195.5 95.5t-195.5 -95.5t-69.5 -269.5t69 -269.5
t196 -95.5z" />
    <glyph glyph-name="iacyrillic" unicode="&#x44f;" horiz-adv-x="1095" 
d="M544 552h191v349h-191q-91 0 -144.5 -48.5t-53.5 -130.5q0 -76 54.5 -123t143.5 -47zM735 0v368h-151l-257 -368h-279l295 408q-114 34 -178.5 115.5t-64.5 196.5q0 172 115.5 272.5t310.5 100.5h453v-1093h-244z" />
    <glyph glyph-name="uni0450" unicode="&#x450;" horiz-adv-x="1155" 
d="M682 1258h-201l-262 307h246zM584 914q-109 0 -182 -72.5t-81 -189.5h518q-4 118 -74 190t-181 72zM840 325h234q-24 -152 -157 -246.5t-324 -94.5q-242 0 -382.5 150t-140.5 408t139.5 412t374.5 154q230 0 365 -146t135 -394v-82h-765v-15q0 -132 77 -212.5t202 -80.5
q90 0 155 39.5t87 107.5z" />
    <glyph glyph-name="iocyrillic" unicode="&#x451;" horiz-adv-x="1155" 
d="M584 914q-109 0 -182 -72.5t-81 -189.5h518q-4 118 -74 190t-181 72zM840 325h234q-24 -152 -157 -246.5t-324 -94.5q-242 0 -382.5 150t-140.5 408t139.5 412t374.5 154q230 0 365 -146t135 -394v-82h-765v-15q0 -132 77 -212.5t202 -80.5q90 0 155 39.5t87 107.5z
M378 1259q-53 0 -90 36.5t-37 87.5q0 52 37 88.5t90 36.5t90 -36.5t37 -88.5q0 -51 -37 -87.5t-90 -36.5zM788 1259q-53 0 -90 36.5t-37 87.5q0 52 37 88.5t90 36.5t89.5 -36.5t36.5 -88.5q0 -51 -36.5 -87.5t-89.5 -36.5z" />
    <glyph glyph-name="djecyrillic" unicode="&#x452;" horiz-adv-x="1214" 
d="M370 903h5q98 203 345 203q179 0 281 -110t102 -298v-742q0 -329 -370 -329q-45 0 -61 2v191q4 -1 33 -1q82 0 115.5 32.5t33.5 109.5v687q0 117 -58 182t-170 65q-117 0 -185 -74.5t-68 -197.5v-623h-249v1257h-93v141h93v112h246v-112h247v-141h-247v-354z" />
    <glyph glyph-name="gjecyrillic" unicode="&#x453;" horiz-adv-x="922" 
d="M572 1258h-201l218 307h245zM853 899h-489v-899h-248v1093h737v-194z" />
    <glyph glyph-name="ecyrillic" unicode="&#x454;" horiz-adv-x="1126" 
d="M831 355h237q-24 -170 -152.5 -270.5t-324.5 -100.5q-238 0 -379.5 151.5t-141.5 411.5q0 256 141.5 408.5t377.5 152.5q199 0 327 -105t150 -268h-237q-20 77 -82 123.5t-156 46.5q-104 0 -175.5 -68.5t-87.5 -186.5h430v-174h-435q10 -135 83.5 -212t185.5 -77
q94 0 155.5 43t83.5 125z" />
    <glyph glyph-name="dzecyrillic" unicode="&#x455;" horiz-adv-x="1063" 
d="M97 777q0 149 121 240t318 91q189 0 309 -92.5t124 -241.5h-232q-6 69 -61.5 109.5t-144.5 40.5q-87 0 -139.5 -36.5t-52.5 -96.5q0 -91 159 -128l192 -44q165 -38 234.5 -106t69.5 -189q0 -152 -129 -246t-335 -94q-200 0 -324.5 92.5t-136.5 245.5h245
q11 -74 69.5 -114t156.5 -40q95 0 150.5 35.5t55.5 96.5q0 48 -33.5 76.5t-115.5 47.5l-198 48q-302 71 -302 305z" />
    <glyph glyph-name="icyrillic" unicode="&#x456;" horiz-adv-x="495" 
d="M123 0v1093h249v-1093h-249zM247 1232q-58 0 -99 40t-41 97q0 58 41 97.5t99 39.5q59 0 99.5 -39.5t40.5 -97.5t-40.5 -97.5t-99.5 -39.5z" />
    <glyph glyph-name="yicyrillic" unicode="&#x457;" horiz-adv-x="481" 
d="M71 1247q-53 0 -90 37.5t-37 89.5q0 53 37 90t90 37q54 0 90.5 -37t36.5 -90q0 -52 -37 -89.5t-90 -37.5zM414 1247q-53 0 -89.5 37.5t-36.5 89.5q0 53 36.5 90t89.5 37q54 0 90.5 -37t36.5 -90q0 -52 -37 -89.5t-90 -37.5zM116 0v1093h249v-1093h-249z" />
    <glyph glyph-name="jecyrillic" unicode="&#x458;" horiz-adv-x="504" 
d="M372 1093v-1145q0 -331 -369 -331q-45 0 -61 2v191q2 0 16 -0.5t17 -0.5q80 0 114 33t34 110v1141h249zM247 1232q-58 0 -99 40t-41 97q0 58 41 97.5t99 39.5q59 0 99.5 -39.5t40.5 -97.5t-40.5 -97.5t-99.5 -39.5z" />
    <glyph glyph-name="ljecyrillic" unicode="&#x459;" horiz-adv-x="1757" 
d="M469 506q-8 -124 -29 -214.5t-61 -161t-106 -106t-159 -35.5q-51 0 -82 12v215q27 -8 60 -8q51 0 84 41t48 106t21 164l35 574h785v-330h210q191 0 304.5 -103.5t113.5 -278.5t-113.5 -278t-304.5 -103h-458v899h-321zM1245 573h-180v-381h180q92 0 146.5 52t54.5 138
t-55 138.5t-146 52.5z" />
    <glyph glyph-name="njecyrillic" unicode="&#x45a;" horiz-adv-x="1756" 
d="M1261 508h-197v-318h197q85 0 136 44t51 115t-51.5 115t-135.5 44zM817 0v502h-453v-502h-248v1093h248v-400h453v400h247v-397h217q188 0 300 -94t112 -254t-112 -254t-300 -94h-464z" />
    <glyph glyph-name="tshecyrillic" unicode="&#x45b;" horiz-adv-x="1214" 
d="M370 903h5q98 203 345 203q179 0 281 -110t102 -298v-698h-249v648q0 117 -58 182t-170 65q-117 0 -185 -74.5t-68 -197.5v-623h-249v1257h-93v141h93v112h246v-112h247v-141h-247v-354z" />
    <glyph glyph-name="kjecyrillic" unicode="&#x45c;" horiz-adv-x="1108" 
d="M923 1565l-262 -307h-201l218 307h245zM603 582l488 -582h-307l-412 492h-8v-492h-248v1093h248v-458h8l407 458h291z" />
    <glyph glyph-name="uni045D" unicode="&#x45d;" horiz-adv-x="1211" 
d="M720 1258h-201l-262 307h246zM360 0h-244v1093h244v-738h8l482 738h245v-1093h-245v743h-8z" />
    <glyph glyph-name="ushortcyrillic" unicode="&#x45e;" horiz-adv-x="1116" 
d="M220 1574h160q1 -85 50.5 -139t130.5 -54t130.5 54t50.5 139h160q0 -145 -94 -234t-247 -89t-247 89t-94 234zM238 -398q-73 0 -98 5v198q19 -4 68 -4q80 0 126.5 33.5t69.5 110.5l14 51l-391 1097h271l262 -878h5l261 878h263l-396 -1131q-70 -201 -170.5 -280.5
t-284.5 -79.5z" />
    <glyph glyph-name="dzhecyrillic" unicode="&#x45f;" horiz-adv-x="1190" 
d="M1074 0h-365v-285h-228v285h-365v1093h248v-900h463v900h247v-1093z" />
    <glyph glyph-name="uni0462" unicode="&#x462;" horiz-adv-x="1473" 
d="M601 212h252q137 0 212 65.5t75 186.5q0 122 -75.5 187.5t-212.5 65.5h-251v-505zM601 927h309q218 0 355.5 -128.5t137.5 -335.5t-134 -335t-348 -128h-578v1145h-330v193h330v178h258v-178h393v-193h-393v-218z" />
    <glyph glyph-name="uni0463" unicode="&#x463;" horiz-adv-x="1236" 
d="M538 193h187q91 0 146 52t55 137q0 86 -55 137.5t-146 51.5h-187v-378zM538 763h216q192 0 305.5 -103.5t113.5 -278.5t-113.5 -278t-305.5 -103h-464v938h-272v155h272v417h248v-417h412v-155h-412v-175z" />
    <glyph glyph-name="uni0472" unicode="&#x472;" horiz-adv-x="1540" 
d="M771 186q175 0 285.5 121.5t129.5 331.5q-76 -62 -191 -62q-68 0 -136 16t-113.5 35t-103.5 35t-110 16q-120 0 -176 -63q23 -200 132.5 -315t282.5 -115zM771 1257q-174 0 -284.5 -118t-131.5 -323q75 59 183 59q85 0 166.5 -25.5t156.5 -51t143 -25.5q123 0 179 65
q-26 196 -134.5 307.5t-277.5 111.5zM771 1479q315 0 498 -203.5t183 -553.5t-182.5 -554t-498.5 -204q-317 0 -500 204t-183 554q0 349 184.5 553t498.5 204z" />
    <glyph glyph-name="uni0473" unicode="&#x473;" horiz-adv-x="1193" 
d="M596 180q116 0 185.5 75.5t83.5 215.5q-51 -46 -138 -46q-63 0 -149 32t-140 32q-36 0 -65.5 -13t-41.5 -31q19 -127 87 -196t178 -69zM596 913q-119 0 -189 -81.5t-81 -229.5q54 54 139 54q63 1 149.5 -30t143.5 -31q78 0 106 40q-17 133 -86.5 205.5t-181.5 72.5z
M596 1114q245 0 386 -151.5t141 -415.5q0 -266 -140.5 -417.5t-386.5 -151.5q-245 0 -385.5 151.5t-140.5 417.5q0 264 141 415.5t385 151.5z" />
    <glyph glyph-name="uni0474" unicode="&#x474;" horiz-adv-x="1528" 
d="M838 0h-297l-504 1443h285l363 -1148h17l266 825q33 114 70.5 181.5t88.5 106.5q71 53 182 53q51 0 108 -14.5t98 -38.5l-71 -205q-52 19 -93 19q-43 0 -73 -28q-32 -30 -67 -129z" />
    <glyph glyph-name="uni0475" unicode="&#x475;" horiz-adv-x="1213" 
d="M1233 1067l-66 -188q-46 18 -87 18q-40 0 -67 -27q-31 -32 -61 -118l-268 -752h-272l-389 1093h266l253 -833h17l168 542q30 105 64 166t81 96q66 50 168 50q104 0 193 -47z" />
    <glyph glyph-name="uni048A" unicode="&#x48a;" horiz-adv-x="1557" 
d="M924 1842h156q0 -137 -92.5 -221.5t-240.5 -84.5t-240.5 84.5t-92.5 221.5h156q2 -79 51 -129.5t126 -50.5t126 50.5t51 129.5zM1357 217h180v-58l-116 -444h-230l79 285h-169v217v821h-13l-701 -1038h-250v1443h257v-1041h13l700 1041h250v-1226z" />
    <glyph glyph-name="uni048B" unicode="&#x48b;" horiz-adv-x="1280" 
d="M784 1574h160q0 -145 -94 -234t-247 -89t-247 89t-94 234h160q1 -85 50.5 -139t130.5 -54t130.5 54t50.5 139zM1095 193h178v-61l-102 -417h-230l74 285h-165v193v550h-8l-482 -743h-244v1093h244v-738h8l482 738h245v-900z" />
    <glyph glyph-name="uni048C" unicode="&#x48c;" horiz-adv-x="1473" 
d="M601 212h252q137 0 212 65.5t75 186.5q0 122 -75.5 187.5t-212.5 65.5h-251v-505zM601 927h309q218 0 355.5 -128.5t137.5 -335.5t-134 -335t-348 -128h-578v1145h-330v193h330v178h258v-178h393v-193h-393v-218z" />
    <glyph glyph-name="uni048D" unicode="&#x48d;" horiz-adv-x="1236" 
d="M538 193h187q91 0 146 52t55 137q0 86 -55 137.5t-146 51.5h-187v-378zM538 763h216q192 0 305.5 -103.5t113.5 -278.5t-113.5 -278t-305.5 -103h-464v938h-272v155h272v417h248v-417h412v-155h-412v-175z" />
    <glyph glyph-name="uni048E" unicode="&#x48e;" horiz-adv-x="1275" 
d="M388 683h255q29 0 54 3l-118 186l137 89l139 -212q82 71 82 208q0 134 -76 204.5t-217 70.5h-256v-549zM130 1443h582q216 0 351 -134.5t135 -351.5q0 -124 -53.5 -225t-151.5 -165l139 -209l-170 -116l-159 249q-68 -14 -143 -14h-272v-477h-258v1443z" />
    <glyph glyph-name="uni048F" unicode="&#x48f;" horiz-adv-x="1235" 
d="M712 491l131 -201q65 94 65 256q0 167 -72.5 262.5t-200.5 95.5q-127 0 -201 -96.5t-74 -261.5q0 -166 74 -263t200 -97q39 0 72 9l-131 208zM358 906h14q48 96 138 150.5t203 54.5q208 0 329 -151.5t121 -413.5q0 -150 -43.5 -267.5t-123.5 -190.5l119 -180l-169 -117
l-130 203q-50 -12 -104 -12q-115 0 -203.5 50.5t-131.5 139.5h-13v-532h-248v1453h242v-187z" />
    <glyph glyph-name="Geupturncyrillic" unicode="&#x490;" horiz-adv-x="1104" 
d="M396 1224v-1224h-259v1443h662v285h241v-504h-644z" />
    <glyph glyph-name="geupturncyrillic" unicode="&#x491;" horiz-adv-x="919" 
d="M853 899h-489v-899h-248v1093h509v285h228v-479z" />
    <glyph glyph-name="uni0492" unicode="&#x492;" horiz-adv-x="1119" 
d="M1055 1224h-644v-428h475v-185h-475v-611h-259v611h-109v185h109v647h903v-219z" />
    <glyph glyph-name="uni0493" unicode="&#x493;" horiz-adv-x="980" 
d="M914 899h-489v-282h359v-154h-359v-463h-248v463h-110v154h110v476h737v-194z" />
    <glyph glyph-name="uni0494" unicode="&#x494;" horiz-adv-x="1353" 
d="M1006 1443v-217h-611v-450h17q62 62 152 96.5t193 34.5q227 0 359.5 -131.5t132.5 -341.5q0 -219 -131 -350.5t-354 -131.5q-101 0 -140 17v209q40 -14 122 -14q114 0 179.5 68.5t65.5 189.5q0 120 -75 191t-201 71q-104 0 -193 -50.5t-127 -129.5v-504h-258v1443h869z
" />
    <glyph glyph-name="uni0495" unicode="&#x495;" horiz-adv-x="1169" 
d="M364 523h10q117 108 283 108q205 0 326 -129t121 -336q0 -229 -131.5 -361.5t-354.5 -132.5q-95 0 -143 17v194q35 -9 122 -9q120 0 187.5 70.5t67.5 208.5q0 115 -65.5 189t-171.5 74q-89 0 -152.5 -41t-98.5 -107v-268h-248v1093h753v-194h-505v-376z" />
    <glyph glyph-name="uni0496" unicode="&#x496;" horiz-adv-x="2035" 
d="M1830 217h195v-502h-234v285h-99h-5l-541 658h-8v-658h-252v658h-8l-545 -658h-315l621 753l-578 690h300l517 -631h8v631h252v-631h8l518 631h295l-575 -687z" />
    <glyph glyph-name="uni0497" unicode="&#x497;" horiz-adv-x="1696" 
d="M1489 193h198v-478h-232v285h-115h-4l-379 492h-8v-492h-246v492h-8l-379 -492h-299l448 577l-435 516h292l373 -458h8v458h246v-458h8l373 458h290l-432 -512z" />
    <glyph glyph-name="uni0498" unicode="&#x498;" horiz-adv-x="1249" 
d="M861 758v-8q145 -17 230 -113t85 -242q0 -158 -117.5 -273.5t-305.5 -147.5v-259h-234v256q-197 26 -317.5 140.5t-128.5 286.5h248q8 -101 91.5 -160.5t215.5 -59.5q127 0 205 64t78 168q0 105 -76.5 164t-212.5 59h-197v208h192q118 0 191 61t73 159q0 97 -68.5 153.5
t-187.5 56.5q-120 0 -194 -59t-82 -161h-241q10 197 151 312.5t373 115.5q221 0 360 -108.5t139 -280.5q0 -121 -75 -213t-195 -119z" />
    <glyph glyph-name="uni0499" unicode="&#x499;" horiz-adv-x="1058" 
d="M773 579v-8q102 -25 156 -89t54 -157q0 -135 -93 -225t-256 -114v-272h-231v275q-149 26 -239.5 112.5t-103.5 218.5h242q18 -70 75.5 -107.5t147.5 -37.5q100 0 155.5 41.5t55.5 111.5q0 148 -210 148h-157v174h152q181 0 181 135q0 62 -45.5 99t-132.5 37
q-86 0 -140.5 -36t-64.5 -100h-237q17 153 134.5 241t306.5 88q202 0 312 -81.5t110 -222.5q0 -84 -47 -147.5t-125 -83.5z" />
    <glyph glyph-name="uni049A" unicode="&#x49a;" horiz-adv-x="1343" 
d="M1128 217h205v-502h-235v285h-102h-5l-588 658h-8v-658h-258v1443h258v-631h8l565 631h298l-618 -686z" />
    <glyph glyph-name="uni049B" unicode="&#x49b;" horiz-adv-x="1155" 
d="M928 194h217v-479h-231v285h-123h-7l-412 492h-8v-492h-248v1093h248v-458h8l407 458h291l-467 -511z" />
    <glyph glyph-name="uni049C" unicode="&#x49c;" horiz-adv-x="1461" 
d="M935 742l505 -742h-306l-428 625h-30v-309h-171v309h-110v-625h-258v1443h258v-625h110v302h171v-302h29l406 625h277z" />
    <glyph glyph-name="uni049D" unicode="&#x49d;" horiz-adv-x="1287" 
d="M871 587l398 -587h-292l-315 472h-26v-256h-164v256h-108v-472h-248v1093h248v-439h108v261h164v-261h26l309 439h277z" />
    <glyph glyph-name="uni049E" unicode="&#x49e;" horiz-adv-x="1407" 
d="M699 754l687 -754h-323l-585 634h-31v-634h-258v1122h-165v189h165v132h258v-132h222v-189h-222v-289h31l561 610h299z" />
    <glyph glyph-name="uni049F" unicode="&#x49f;" horiz-adv-x="1118" 
d="M641 622l460 -622h-288l-352 471l-88 -89v-382h-249v1264h-93v141h93v105h249v-105h277v-141h-277v-630h3l418 459h289z" />
    <glyph glyph-name="uni04A0" unicode="&#x4a0;" horiz-adv-x="1887" 
d="M1194 757l673 -757h-330l-588 658h-8v-658h-258v1226h-625v217h625h257h1v-631h8l565 631h298z" />
    <glyph glyph-name="uni04A1" unicode="&#x4a1;" horiz-adv-x="1536" 
d="M1031 582l488 -582h-307l-412 492h-8v-492h-248v899h-480v194h480h248v-194v-264h8l407 458h291z" />
    <glyph glyph-name="uni04A2" unicode="&#x4a2;" horiz-adv-x="1581" 
d="M1354 217h180v-502h-235v285h-202v217v409h-702v-626h-258v1443h258v-600h702v600h257v-1226z" />
    <glyph glyph-name="uni04A3" unicode="&#x4a3;" horiz-adv-x="1280" 
d="M1081 193h168v-478h-231v285h-184v193v273h-470v-466h-248v1093h248v-433h470v433h247v-900z" />
    <glyph glyph-name="uni04A4" unicode="&#x4a4;" horiz-adv-x="2063" 
d="M2000 1443v-217h-646v-1226h-257v626h-702v-626h-258v1443h258v-600h702v383v217h257h646z" />
    <glyph glyph-name="uni04A5" unicode="&#x4a5;" horiz-adv-x="1666" 
d="M1600 1093v-194h-519v-899h-247v466h-470v-466h-248v1093h248v-433h470v433h29h218h519z" />
    <glyph glyph-name="uni04A6" unicode="&#x4a6;" horiz-adv-x="2238" 
d="M137 1443h1143v-667h16q63 62 153.5 96.5t192.5 34.5q223 0 357.5 -129.5t134.5 -343.5q0 -220 -132 -351t-353 -131q-94 0 -140 17v209q46 -14 122 -14q115 0 180 68.5t65 189.5q0 120 -75 191t-201 71q-103 0 -193 -50.5t-127 -129.5v-504h-256v1224h-628v-1224h-259
v1443z" />
    <glyph glyph-name="uni04A7" unicode="&#x4a7;" horiz-adv-x="1877" 
d="M116 1093h955v-570h11q117 108 282 108q206 0 327 -129t121 -336q0 -229 -131.5 -361.5t-354.5 -132.5q-96 0 -144 17v194q36 -9 122 -9q120 0 188 71t68 208q0 115 -65.5 189t-171.5 74q-89 0 -152.5 -41t-99.5 -107v-268h-247v899h-460v-899h-248v1093z" />
    <glyph glyph-name="uni04A8" unicode="&#x4a8;" horiz-adv-x="1970" 
d="M1286 1083q-117 0 -179.5 -85.5t-62.5 -222.5q0 -143 61 -273t174 -214q115 81 182 213.5t67 283.5q0 130 -67 214t-175 84zM1849 243l84 -188q-141 -91 -317 -91q-186 0 -344 88q-166 -87 -366 -87q-243 0 -429.5 100.5t-287.5 279.5t-101 409q0 190 82.5 350.5
t233.5 262t343 120.5v-233q-186 -39 -291 -177t-105 -327q0 -165 72.5 -294.5t199.5 -200t284 -70.5q75 0 148 13q-126 104 -195 251.5t-69 317.5q0 231 137 382.5t357 151.5q225 0 360.5 -140.5t135.5 -372.5q0 -176 -78.5 -335.5t-207.5 -262.5q62 -14 124 -14
q125 0 230 67z" />
    <glyph glyph-name="uni04A9" unicode="&#x4a9;" horiz-adv-x="1688" 
d="M1092 871q-92 0 -148 -66t-56 -176q0 -107 52 -206.5t145 -160.5q99 52 155 153t56 218q0 104 -57 171t-147 67zM1580 211l68 -167q-126 -69 -274 -69q-175 0 -315 76q-146 -76 -336 -76q-302 0 -477.5 162t-175.5 431q0 150 64 274.5t184 202.5t275 91v-217
q-130 -23 -203 -117.5t-73 -232.5q0 -181 120 -290.5t311 -109.5q51 0 106 11q-99 78 -157 193t-58 259q0 196 125.5 318t327.5 122q201 0 327 -121t126 -311q0 -146 -66 -270t-184 -200q43 -8 85 -8q110 0 200 49z" />
    <glyph glyph-name="uni04AA" unicode="&#x4aa;" horiz-adv-x="1459" 
d="M1381 948h-254q-25 136 -126.5 218t-241.5 82q-186 0 -296.5 -142.5t-110.5 -383.5q0 -243 110 -385t298 -142q143 0 240.5 73.5t127.5 203.5h253q-31 -216 -178.5 -346.5t-377.5 -147.5l-41 -103q94 0 144 -40.5t50 -115.5q0 -83 -63 -132.5t-170 -50.5q-87 0 -142 17
v111q37 -14 115 -14q111 0 111 62q0 32 -31 46t-103 14h-55v90l49 117q-279 23 -440 220t-161 523q0 344 181.5 544.5t489.5 200.5q252 0 425 -143.5t197 -375.5z" />
    <glyph glyph-name="uni04AB" unicode="&#x4ab;" horiz-adv-x="1133" 
d="M839 380h235q-14 -163 -125 -268.5t-287 -124.5l-45 -112q94 0 144 -40.5t50 -115.5q0 -83 -63 -132.5t-170 -50.5q-87 0 -142 17v111q37 -14 115 -14q111 0 111 62q0 32 -31 46t-103 14h-55v90l53 125q-211 22 -333.5 170.5t-122.5 389.5q0 256 142 408.5t379 152.5
q209 0 339 -114t143 -288h-235q-14 89 -78 144t-166 55q-123 0 -197 -97t-74 -261q0 -168 74 -264t198 -96q100 0 163.5 50t80.5 143z" />
    <glyph glyph-name="uni04AC" unicode="&#x4ac;" horiz-adv-x="1250" 
d="M1192 1225h-438v-1008h180v-502h-235v285h-203v217v1008h-438v218h1134v-218z" />
    <glyph glyph-name="uni04AD" unicode="&#x4ad;" horiz-adv-x="1009" 
d="M965 899h-337v-706h168v-478h-231v285h-185v193v706h-337v194h922v-194z" />
    <glyph glyph-name="uni04AE" unicode="&#x4ae;" horiz-adv-x="1329" 
d="M793 0h-257v569l-506 874h283l350 -628h6l349 628h281l-506 -874v-569z" />
    <glyph glyph-name="uni04AF" unicode="&#x4af;" horiz-adv-x="1076" 
d="M1063 1093l-402 -1088v-365h-242v365l-405 1088h266l254 -798h14l253 798h262z" />
    <glyph glyph-name="uni04B0" unicode="&#x4b0;" horiz-adv-x="1329" 
d="M1299 1443l-445 -769h294v-178h-355v-496h-257v496h-355v178h294l-445 769h283l350 -628h6l349 628h281z" />
    <glyph glyph-name="uni04B1" unicode="&#x4b1;" horiz-adv-x="1076" 
d="M661 5v-5h225v-141h-225v-219h-242v219h-225v141h225v5l-405 1088h266l254 -798h14l253 798h262z" />
    <glyph glyph-name="uni04B2" unicode="&#x4b2;" horiz-adv-x="1402" 
d="M1181 217h205v-502h-235v285h-124l-340 530h-8l-344 -530h-281l470 723v7l-466 713h305l334 -542h8l338 542h289l-481 -719v-7z" />
    <glyph glyph-name="uni04B3" unicode="&#x4b3;" horiz-adv-x="1114" 
d="M920 193h184v-478h-231v285h-104l-230 395h-6l-229 -395h-267l356 545l-352 548h280l225 -387h5l222 387h273l-353 -541z" />
    <glyph glyph-name="uni04B4" unicode="&#x4b4;" horiz-adv-x="1927" 
d="M1700 217h180v-502h-235v285h-1152v1226h-435v217h435h258h432v-217h-432v-1009h691v1226h258v-1226z" />
    <glyph glyph-name="uni04B5" unicode="&#x4b5;" horiz-adv-x="1499" 
d="M1301 193h169v-478h-229v285h-888v899h-310v194h310h248h300v-194h-300v-706h453v900h247v-900z" />
    <glyph glyph-name="uni04B6" unicode="&#x4b6;" horiz-adv-x="1501" 
d="M1274 217h180v-502h-235v285h-203v217v396h-13q-50 -40 -138 -70.5t-200 -30.5q-174 0 -300.5 70.5t-188.5 189.5t-62 273v398h257v-384q0 -152 85.5 -237t243.5 -85q109 0 189 33t127 80v593h258v-1226z" />
    <glyph glyph-name="uni04B7" unicode="&#x4b7;" horiz-adv-x="1221" 
d="M1027 193h163v-478h-231v285h-179h-1v461h-13q-98 -98 -273 -98q-189 0 -295 107.5t-106 290.5v332h248v-306q0 -101 53.5 -157.5t151.5 -56.5q157 0 234 94v426h248v-900z" />
    <glyph glyph-name="uni04B8" unicode="&#x4b8;" horiz-adv-x="1424" 
d="M1029 1443h258v-1443h-258v615h-12q-87 -67 -217 -91v-257h-181v246q-237 15 -371 161.5t-134 370.5v398h257v-384q0 -131 63 -213t185 -103v307h181v-305q147 27 229 112v586z" />
    <glyph glyph-name="uni04B9" unicode="&#x4b9;" horiz-adv-x="1168" 
d="M805 1093h247v-1093h-247v456h-14q-52 -46 -132 -68v-218h-170v199q-186 8 -291.5 117.5t-105.5 288.5v318h248v-311q0 -82 38 -135.5t111 -69.5v281h170v-276q88 22 146 78v433z" />
    <glyph glyph-name="uni04BA" unicode="&#x4ba;" horiz-adv-x="1428" 
d="M137 1443h258v-599h17q139 108 340 108q255 0 400 -148.5t145 -384.5v-419h-257v405q0 151 -84.5 236t-241.5 85q-104 0 -186.5 -34.5t-132.5 -94.5v-597h-258v1443z" />
    <glyph glyph-name="uni04BB" unicode="&#x4bb;" horiz-adv-x="1206" 
d="M116 0v1510h246v-607h5q98 203 345 203q179 0 281 -110t102 -298v-698h-249v648q0 117 -58 182t-170 65q-117 0 -185 -74.5t-68 -197.5v-623h-249z" />
    <glyph glyph-name="uni04BC" unicode="&#x4bc;" horiz-adv-x="1751" 
d="M653 877h735q-11 178 -109.5 279.5t-256.5 101.5q-147 0 -247.5 -103t-121.5 -278zM648 679v-37q-1 -206 109.5 -331.5t293.5 -125.5q127 0 213.5 54t122.5 157h259q-39 -195 -202.5 -313.5t-394.5 -118.5q-302 0 -482 191t-190 524q-170 4 -265 92.5t-95 227.5
q0 45 8.5 87t16.5 61l9 19h213l-6 -19q-7 -19 -14.5 -54t-7.5 -66q0 -68 38 -105.5t114 -38.5q41 275 211 435.5t427 160.5q296 0 466.5 -188.5t170.5 -516.5l-1 -95h-1014z" />
    <glyph glyph-name="uni04BD" unicode="&#x4bd;" horiz-adv-x="1414" 
d="M581 652h518q-4 118 -74 190t-181 72q-109 0 -182 -72.5t-81 -189.5zM1344 486h-765v-15q0 -132 77 -212.5t202 -80.5q90 0 155 39.5t87 107.5h234q-24 -152 -157 -246.5t-324 -94.5q-227 0 -365.5 132t-155.5 363q-147 9 -228 87.5t-81 209.5q0 52 12.5 97t21.5 61h195
q-28 -75 -28 -142q0 -117 114 -132q32 208 166 328t340 120q230 0 365 -146t135 -394v-82z" />
    <glyph glyph-name="uni04BE" unicode="&#x4be;" horiz-adv-x="1751" 
d="M1230 1569q-53 0 -90 36.5t-37 87.5q0 52 37 88.5t90 36.5t89.5 -36.5t36.5 -88.5q0 -51 -36.5 -87.5t-89.5 -36.5zM820 1569q-53 0 -90 36.5t-37 87.5q0 52 37 88.5t90 36.5t90 -36.5t37 -88.5q0 -51 -37 -87.5t-90 -36.5zM653 877h735q-11 178 -109.5 279.5
t-256.5 101.5q-147 0 -247.5 -103t-121.5 -278zM648 679v-37q-1 -206 109.5 -331.5t293.5 -125.5q127 0 213.5 54t122.5 157h259q-34 -169 -164 -282.5t-320 -141.5v-257h-235v258q-250 38 -395.5 223.5t-154.5 482.5q-170 4 -265 92.5t-95 227.5q0 45 8.5 87t16.5 61l9 19
h213l-6 -19q-7 -19 -14.5 -54t-7.5 -66q0 -68 38 -105.5t114 -38.5q41 275 211 435.5t427 160.5q296 0 466.5 -188.5t170.5 -516.5l-1 -95h-1014z" />
    <glyph glyph-name="uni04BF" unicode="&#x4bf;" horiz-adv-x="1414" 
d="M1044 1258q-53 0 -90 36.5t-37 87.5q0 52 37 88.5t90 36.5t89.5 -36.5t36.5 -88.5q0 -51 -36.5 -87.5t-89.5 -36.5zM634 1258q-53 0 -90 36.5t-37 87.5q0 52 37 88.5t90 36.5t90 -36.5t37 -88.5q0 -51 -37 -87.5t-90 -36.5zM581 652h518q-4 118 -74 190t-181 72
q-109 0 -182 -72.5t-81 -189.5zM1344 486h-765v-15q0 -132 77 -212.5t202 -80.5q90 0 155 39.5t87 107.5h234q-20 -127 -118 -215.5t-246 -115.5v-280h-231v280q-178 32 -285 159t-122 326q-147 9 -228 87.5t-81 209.5q0 52 12.5 97t21.5 61h195q-28 -75 -28 -142
q0 -117 114 -132q32 208 166 328t340 120q230 0 365 -146t135 -394v-82z" />
    <glyph glyph-name="uni04C0" unicode="&#x4c0;" horiz-adv-x="532" 
d="M395 0h-258v1443h258v-1443z" />
    <glyph glyph-name="uni04C1" unicode="&#x4c1;" horiz-adv-x="2029" 
d="M1195 1856h156q-2 -136 -94 -223t-243 -87t-243 87t-94 223h156q1 -78 52 -129.5t129 -51.5t129 51.5t52 129.5zM1384 756l626 -756h-323l-541 658h-8v-658h-252v658h-8l-545 -658h-315l621 753l-578 690h300l517 -631h8v631h252v-631h8l518 631h295z" />
    <glyph glyph-name="uni04C2" unicode="&#x4c2;" horiz-adv-x="1656" 
d="M1007 1574h160q0 -145 -94 -234t-247 -89t-247 89t-94 234h160q1 -85 50.5 -139t130.5 -54t130.5 54t50.5 139zM1188 581l451 -581h-303l-379 492h-8v-492h-246v492h-8l-379 -492h-299l448 577l-435 516h292l373 -458h8v458h246v-458h8l373 458h290z" />
    <glyph glyph-name="uni04C3" unicode="&#x4c3;" horiz-adv-x="1357" 
d="M1298 1443l-608 -652q249 -52 394 -216t145 -386q0 -267 -159.5 -436t-416.5 -169q-66 0 -103 8v210q29 -4 78 -4q154 0 247 106.5t93 276.5q0 191 -142.5 307.5t-380.5 116.5h-29v-605h-258v1443h258v-622h11l575 622h296z" />
    <glyph glyph-name="uni04C4" unicode="&#x4c4;" horiz-adv-x="1122" 
d="M449 -358v198q37 -6 84 -6q123 0 191 75t68 210q0 153 -108.5 244.5t-290.5 91.5h-29v-455h-248v1093h248v-441h35l380 441h286l-428 -471q185 -47 295 -181t110 -317q0 -227 -132.5 -358.5t-353.5 -131.5q-62 0 -107 8z" />
    <glyph glyph-name="uni04C5" unicode="&#x4c5;" horiz-adv-x="1501" 
d="M1303 217h178v-58l-115 -444h-230l78 285h-169v217v1009h-459l-39 -667q-17 -289 -113 -429.5t-293 -140.5q-56 0 -94 12v226q30 -7 62 -7q99 0 144 84.5t55 269.5l47 869h948v-1226z" />
    <glyph glyph-name="uni04C6" unicode="&#x4c6;" horiz-adv-x="1243" 
d="M1061 193h176v-61l-103 -417h-230l75 285h-166v193v706h-317l-27 -393q-8 -124 -29 -214.5t-61 -161t-106 -106t-159 -35.5q-51 0 -82 12v215q27 -8 60 -8q51 0 84 41t48 106t21 164l35 574h781v-900z" />
    </font>
</defs>
</svg>
