<svg width="34" height="20" viewBox="0 0 34 20" fill="none" xmlns="http://www.w3.org/2000/svg">
<path d="M9.20832 17.1429H6.37499C5.98399 17.1429 5.66666 16.8229 5.66666 16.4286C5.66666 16.0344 5.98399 15.7144 6.37499 15.7144H9.20832C9.59932 15.7144 9.91666 16.0344 9.91666 16.4286C9.91666 16.8229 9.59932 17.1429 9.20832 17.1429Z" fill="#122940"/>
<path d="M32.2292 17.1433H30.4583C30.0673 17.1433 29.75 16.8233 29.75 16.429C29.75 16.0347 30.0673 15.7147 30.4583 15.7147H31.6413L32.5961 10.5833C32.5834 7.95756 30.3592 5.7147 27.625 5.7147H22.9741L20.7202 15.7147H24.7917C25.1827 15.7147 25.5 16.0347 25.5 16.429C25.5 16.8233 25.1827 17.1433 24.7917 17.1433H19.8333C19.618 17.1433 19.414 17.0447 19.2794 16.8747C19.1448 16.7061 19.0938 16.4833 19.142 16.2718L21.7175 4.84328C21.7912 4.51613 22.0773 4.28613 22.4088 4.28613H27.625C31.1398 4.28613 34 7.17042 34 10.7147L32.9248 16.5604C32.8624 16.899 32.5706 17.1433 32.2292 17.1433Z" fill="#122940"/>
<path d="M27.625 19.9998C25.6728 19.9998 24.0833 18.3984 24.0833 16.4284C24.0833 14.4584 25.6728 12.8569 27.625 12.8569C29.5772 12.8569 31.1667 14.4584 31.1667 16.4284C31.1667 18.3984 29.5772 19.9998 27.625 19.9998ZM27.625 14.2855C26.4534 14.2855 25.5 15.2469 25.5 16.4284C25.5 17.6098 26.4534 18.5712 27.625 18.5712C28.7966 18.5712 29.75 17.6098 29.75 16.4284C29.75 15.2469 28.7966 14.2855 27.625 14.2855Z" fill="#122940"/>
<path d="M12.0417 19.9998C10.0895 19.9998 8.5 18.3984 8.5 16.4284C8.5 14.4584 10.0895 12.8569 12.0417 12.8569C13.9938 12.8569 15.5833 14.4584 15.5833 16.4284C15.5833 18.3984 13.9938 19.9998 12.0417 19.9998ZM12.0417 14.2855C10.8701 14.2855 9.91667 15.2469 9.91667 16.4284C9.91667 17.6098 10.8701 18.5712 12.0417 18.5712C13.2133 18.5712 14.1667 17.6098 14.1667 16.4284C14.1667 15.2469 13.2133 14.2855 12.0417 14.2855Z" fill="#122940"/>
<path d="M9.20834 4.28551H3.54168C3.15068 4.28551 2.83334 3.96551 2.83334 3.57122C2.83334 3.17693 3.15068 2.85693 3.54168 2.85693H9.20834C9.59935 2.85693 9.91668 3.17693 9.91668 3.57122C9.91668 3.96551 9.59935 4.28551 9.20834 4.28551Z" fill="#122940"/>
<path d="M9.20832 8.57164H2.12499C1.73399 8.57164 1.41666 8.25164 1.41666 7.85735C1.41666 7.46307 1.73399 7.14307 2.12499 7.14307H9.20832C9.59933 7.14307 9.91666 7.46307 9.91666 7.85735C9.91666 8.25164 9.59933 8.57164 9.20832 8.57164Z" fill="#122940"/>
<path d="M9.20834 12.8573H0.708334C0.317333 12.8573 0 12.5373 0 12.143C0 11.7487 0.317333 11.4287 0.708334 11.4287H9.20834C9.59934 11.4287 9.91667 11.7487 9.91667 12.143C9.91667 12.5373 9.59934 12.8573 9.20834 12.8573Z" fill="#122940"/>
<path d="M19.8333 17.1429H14.875C14.484 17.1429 14.1667 16.8229 14.1667 16.4286C14.1667 16.0343 14.484 15.7143 14.875 15.7143H19.2681L22.4867 1.42857H6.37499C5.98399 1.42857 5.66666 1.10857 5.66666 0.714286C5.66666 0.32 5.98399 0 6.37499 0H23.375C23.5903 0 23.7943 0.0985717 23.9289 0.268572C24.0635 0.437143 24.1145 0.66 24.0663 0.871429L20.5247 16.5857C20.451 16.9129 20.1634 17.1429 19.8333 17.1429Z" fill="#122940"/>
</svg>
