<svg width="102" height="29" viewBox="0 0 102 29" fill="none" xmlns="http://www.w3.org/2000/svg">
<path d="M10.565 28V24.445H7.73V19.81C7.73 18.88 7.925 18.04 8.315 17.29C8.735 16.54 9.305 15.925 10.025 15.445C10.505 15.115 11.06 14.86 11.69 14.68C12.35 14.5 13.055 14.41 13.805 14.41L14.075 10.72C13.625 10.72 13.1 10.825 12.5 11.035C11.93 11.245 11.33 11.56 10.7 11.98C10.1 12.37 9.515 12.865 8.945 13.465C8.405 14.035 7.955 14.695 7.595 15.445C7.535 14.725 7.505 14.395 7.505 14.455C7.535 14.515 7.52 14.185 7.46 13.465L7.28 11.125H1.025V14.68H3.995V24.445H0.575V28H10.565ZM26.2303 14.365C26.8603 14.365 27.4303 14.53 27.9403 14.86C28.4803 15.16 28.9603 15.565 29.3803 16.075C27.9703 16.585 26.5603 17.11 25.1503 17.65C23.7703 18.16 22.3753 18.67 20.9653 19.18C20.9953 18.55 21.1153 17.965 21.3253 17.425C21.5653 16.885 21.8653 16.405 22.2253 15.985C22.7053 15.475 23.2753 15.085 23.9353 14.815C24.6253 14.515 25.3903 14.365 26.2303 14.365ZM31.9453 26.02L29.6503 23.32C29.2003 23.8 28.6903 24.16 28.1203 24.4C27.5503 24.64 26.9203 24.76 26.2303 24.76C25.3003 24.76 24.4603 24.58 23.7103 24.22C22.9903 23.83 22.4053 23.32 21.9553 22.69C23.9953 21.94 26.0203 21.19 28.0303 20.44C30.0703 19.69 32.1103 18.94 34.1503 18.19C33.8803 17.11 33.4903 16.12 32.9803 15.22C32.4703 14.29 31.8853 13.495 31.2253 12.835C30.5353 12.175 29.7553 11.665 28.8853 11.305C28.0453 10.915 27.1603 10.72 26.2303 10.72C24.9703 10.72 23.7853 10.96 22.6753 11.44C21.5953 11.89 20.6503 12.505 19.8403 13.285C19.0303 14.095 18.3853 15.04 17.9053 16.12C17.4553 17.2 17.2303 18.34 17.2303 19.54C17.2303 20.77 17.4553 21.925 17.9053 23.005C18.3853 24.055 19.0303 24.985 19.8403 25.795C20.6503 26.605 21.5953 27.25 22.6753 27.73C23.7853 28.18 24.9703 28.405 26.2303 28.405C27.3703 28.405 28.4203 28.195 29.3803 27.775C30.3403 27.355 31.1953 26.77 31.9453 26.02Z" fill="#377E62"/>
<path d="M47.4791 28V24.445H44.6441V19.81C44.6441 19.03 44.8091 18.31 45.1391 17.65C45.4691 16.99 45.9041 16.42 46.4441 15.94C46.9841 15.46 47.5991 15.085 48.2891 14.815C49.0091 14.545 49.7591 14.41 50.5391 14.41C51.6791 14.47 52.5041 14.8 53.0141 15.4C53.5541 15.97 53.8541 16.66 53.9141 17.47V24.445H50.4941V28H60.4841V24.445H57.6491V19.81C57.6491 19.03 57.8141 18.31 58.1441 17.65C58.4741 16.99 58.9091 16.42 59.4491 15.94C59.9891 15.46 60.6041 15.085 61.2941 14.815C62.0141 14.545 62.7641 14.41 63.5441 14.41C64.6841 14.47 65.5091 14.8 66.0191 15.4C66.5591 15.97 66.8591 16.66 66.9191 17.47V24.445H63.4991V28H73.4891V24.445H70.6541V15.76C70.5941 14.26 70.0541 13.045 69.0341 12.115C68.0141 11.185 66.6191 10.72 64.8491 10.72C63.1991 10.78 61.7441 11.2 60.4841 11.98C59.2241 12.76 58.2641 13.84 57.6041 15.22C57.4241 13.87 56.8241 12.79 55.8041 11.98C54.8141 11.14 53.4941 10.72 51.8441 10.72C50.1341 10.78 48.6341 11.23 47.3441 12.07C46.0841 12.88 45.1391 14.005 44.5091 15.445C44.4491 14.725 44.3891 14.08 44.3291 13.51C44.2991 12.91 44.2541 12.25 44.1941 11.53V11.125H37.9391V14.68H40.9091V24.445H37.4891V28H47.4791ZM86.6343 28V24.445H83.5293V11.125H76.6443V14.68H79.7943V24.445H76.6443V28H86.6343ZM84.0243 4.6C84.0243 3.91 83.7843 3.34 83.3043 2.89C82.8243 2.44 82.2993 2.215 81.7293 2.215C81.1293 2.215 80.5893 2.44 80.1093 2.89C79.6293 3.34 79.3893 3.91 79.3893 4.6C79.3893 5.29 79.6293 5.86 80.1093 6.31C80.5893 6.73 81.1293 6.94 81.7293 6.94C82.2993 6.94 82.8243 6.73 83.3043 6.31C83.7843 5.86 84.0243 5.29 84.0243 4.6ZM100.674 28V24.445H97.299V14.77H101.709V11.125H97.299V0.144999H93.564V11.125H89.784V14.77H93.564V28H100.674Z" fill="#122940"/>
</svg>
