<svg width="30" height="28" viewBox="0 0 30 28" fill="none" xmlns="http://www.w3.org/2000/svg">
<path d="M25.9693 4.10164C23.3707 1.4574 19.9141 0.000244141 16.2414 0.000244141C12.5009 0.000244141 9.00108 1.50137 6.3901 4.22725C6.10617 4.52245 6.11234 4.9998 6.40245 5.295C6.69256 5.58391 7.16167 5.57763 7.45178 5.28243C9.78499 2.85175 12.9021 1.51393 16.2414 1.51393C23.0127 1.50765 28.5186 7.11016 28.5186 14.0002C28.5186 20.8903 23.0127 26.4928 16.2414 26.4928C9.47019 26.4928 3.97047 20.8903 3.97047 14.0002V13.8432L5.18646 15.0868C5.32843 15.2313 5.51978 15.3067 5.71113 15.3067C5.90247 15.3067 6.08765 15.2313 6.23579 15.0868C6.5259 14.7916 6.5259 14.3143 6.23579 14.0191L3.75444 11.4879C3.46433 11.1927 2.99522 11.1927 2.70511 11.4879L0.217581 14.0191C-0.0725271 14.3143 -0.0725271 14.7916 0.217581 15.0868C0.50769 15.382 0.976802 15.382 1.26691 15.0868L2.48907 13.8432V14.0002C2.48907 17.7373 3.92109 21.2546 6.51973 23.8989C9.11836 26.5431 12.575 28.0002 16.2476 28.0002C19.9203 28.0002 23.3769 26.5431 25.9755 23.8989C28.568 21.2546 30 17.7373 30 14.0002C30 10.2631 28.568 6.74587 25.9693 4.10164Z" fill="#122940"/>
<path d="M16.2415 5.24487C15.8341 5.24487 15.5008 5.58404 15.5008 5.99857V7.8263H15.0317C13.1614 7.8263 11.6368 9.37767 11.6368 11.2808C11.6368 13.1839 13.1614 14.7352 15.0317 14.7352H17.4513C18.5068 14.7352 19.3648 15.6083 19.3648 16.6823C19.3648 17.7563 18.5068 18.6294 17.4513 18.6294H13.0997C12.6923 18.6294 12.359 18.9685 12.359 19.3831C12.359 19.7976 12.6923 20.1368 13.0997 20.1368H15.5008V21.9896C15.5008 22.4041 15.8341 22.7433 16.2415 22.7433C16.6489 22.7433 16.9822 22.4041 16.9822 21.9896V20.1368H17.476C17.4822 20.1368 17.4883 20.1368 17.4945 20.1368C19.3463 20.1116 20.8462 18.5728 20.8462 16.6823C20.8462 14.7792 19.3216 13.2278 17.4513 13.2278H15.0317C13.9762 13.2278 13.1182 12.3548 13.1182 11.2808C13.1182 10.2067 13.9762 9.3337 15.0317 9.3337H19.3031C19.7104 9.3337 20.0438 8.99454 20.0438 8.58C20.0438 8.16547 19.7104 7.8263 19.3031 7.8263H16.9822V5.99857C16.9822 5.58404 16.655 5.24487 16.2415 5.24487Z" fill="#122940"/>
</svg>
