<svg width="25" height="27" viewBox="0 0 25 27" fill="none" xmlns="http://www.w3.org/2000/svg">
<path d="M22.365 11.1612H22.2974V9.5238C22.2974 4.26409 17.9869 0.000244141 12.6694 0.000244141C7.35187 0.000244141 3.0413 4.26409 3.0413 9.5238V11.1612H2.63593C1.14947 11.1612 0.000878293 12.4644 0.000878293 13.9681V18.1451C-0.0365611 19.6026 1.12762 20.8141 2.60107 20.8512C2.61271 20.8515 2.62429 20.8517 2.63593 20.8518H5.13583C5.48992 20.8354 5.76351 20.538 5.74683 20.1878C5.74624 20.1752 5.74527 20.1626 5.74392 20.15V11.9631C5.74392 11.5622 5.50745 11.1611 5.13583 11.1611H4.39261V9.52374C4.39261 5.00226 8.09827 1.33682 12.6694 1.33682C17.2405 1.33682 20.9461 5.00226 20.9461 9.52374V11.1611H20.2029C19.8313 11.1611 19.5948 11.5621 19.5948 11.9631V20.15C19.5571 20.4987 19.8123 20.8116 20.1648 20.8489C20.1774 20.8502 20.1902 20.8512 20.2029 20.8517H20.9799L20.9123 20.952C19.8986 22.2846 18.3079 23.0651 16.6219 23.0572C16.2528 21.267 14.4864 20.1117 12.6765 20.4768C11.1289 20.789 10.013 22.1297 10.0005 23.6921C10.019 25.5246 11.5261 27.0004 13.3788 27.0002C14.2959 26.9855 15.17 26.6133 15.8111 25.9643C16.2436 25.5262 16.5271 24.9655 16.6219 24.3603C18.7333 24.3683 20.7244 23.3897 21.9933 21.7205L22.6352 20.7848C24.0879 20.6846 25 19.7824 25 18.4791V14.3021C25.0001 12.8654 23.919 11.1612 22.365 11.1612ZM4.39261 19.5152H2.63593C1.90848 19.4976 1.33311 18.9002 1.35083 18.1806C1.35115 18.1688 1.35161 18.157 1.35219 18.1451V13.9681C1.35219 13.1995 1.8927 12.4978 2.63593 12.4978H4.39261V19.5152ZM14.8315 25.0288C14.4571 25.4303 13.9311 25.6603 13.3788 25.6637C12.2797 25.6465 11.3878 24.7789 11.3519 23.6922C11.3514 22.6033 12.2434 21.7203 13.3442 21.7198C14.4451 21.7194 15.3378 22.6017 15.3382 23.6906C15.3382 23.6911 15.3382 23.6916 15.3382 23.6922C15.3664 24.1883 15.1825 24.6733 14.8315 25.0288ZM23.6488 18.4793C23.6488 19.3815 22.7704 19.5152 22.365 19.5152H20.9461V12.4978H22.365C23.1082 12.4978 23.6488 13.5337 23.6488 14.3023V18.4793Z" fill="#122940"/>
</svg>
