<svg width="29" height="29" viewBox="0 0 29 29" fill="none" xmlns="http://www.w3.org/2000/svg">
<path d="M13.3 20.6877C13.3 24.7612 16.6141 28.0752 20.6875 28.0752C24.7609 28.0752 28.075 24.7612 28.075 20.6877C28.075 16.6143 24.7609 13.3002 20.6875 13.3002C16.6141 13.3002 13.3 16.6143 13.3 20.6877ZM14.575 20.6877C14.575 17.317 17.3168 14.5752 20.6875 14.5752C24.0582 14.5752 26.8 17.317 26.8 20.6877C26.8 24.0584 24.0582 26.8002 20.6875 26.8002C17.3168 26.8002 14.575 24.0584 14.575 20.6877Z" fill="#122940" stroke="#122940" stroke-width="0.15"/>
<path d="M23.1021 23.9987L23.1024 23.9989C23.2196 24.0919 23.361 24.1377 23.5 24.1377C23.6858 24.1377 23.8722 24.0563 23.9974 23.8991L23.9974 23.8991C24.2166 23.6238 24.172 23.2235 23.898 23.0031L23.8978 23.0029L21.325 20.9442V17.3127C21.325 16.9608 21.0394 16.6752 20.6875 16.6752C20.3356 16.6752 20.05 16.9608 20.05 17.3127V21.2502C20.05 21.4442 20.1381 21.6264 20.2894 21.7485L20.2896 21.7487L23.1021 23.9987Z" fill="#122940" stroke="#122940" stroke-width="0.15"/>
<path d="M2.49175 23.5752H11.6875C12.0394 23.5752 12.325 23.2897 12.325 22.9377C12.325 22.5858 12.0394 22.3002 11.6875 22.3002H2.49175C2.33067 22.3002 2.2 22.1696 2.2 22.0085V8.95024H22.3V11.6877C22.3 12.0397 22.5856 12.3252 22.9375 12.3252C23.2894 12.3252 23.575 12.0397 23.575 11.6877V8.31274C23.575 7.96082 23.2894 7.67524 22.9375 7.67524H1.5625C1.21058 7.67524 0.925 7.96082 0.925 8.31274V22.0085C0.925 22.8723 1.62795 23.5752 2.49175 23.5752Z" fill="#122940" stroke="#122940" stroke-width="0.15"/>
<path d="M18.9816 2.45281L18.9814 2.45245C18.8968 2.2968 18.7332 2.20024 18.5557 2.20024H5.9444C5.76696 2.20024 5.60317 2.29677 5.51737 2.45276L5.51734 2.45281L2.11988 8.61999L18.9816 2.45281ZM18.9816 2.45281L22.379 8.61992M18.9816 2.45281L22.379 8.61992M1.25416 8.87122L1.25404 8.87116C0.946633 8.70151 0.834485 8.31275 1.00411 8.00538M1.25416 8.87122L1.00411 8.00538M1.25416 8.87122C1.5626 9.04074 1.9502 8.92864 2.11984 8.62006L1.25416 8.87122ZM1.00411 8.00538L4.4015 1.83833M1.00411 8.00538L4.4015 1.83833M23.496 8.0043L23.496 8.00437C23.6655 8.3127 23.5535 8.70013 23.2452 8.86987M23.496 8.0043L23.2448 8.8701C23.2449 8.87002 23.245 8.86995 23.2452 8.86987M23.496 8.0043L20.0985 1.83715C19.7894 1.27419 19.1972 0.925244 18.5557 0.925244H5.9444C5.30291 0.925244 4.71067 1.27417 4.40156 1.83822M23.496 8.0043L4.40156 1.83822M23.2452 8.86987C23.1479 8.9248 23.0419 8.95024 22.9375 8.95024C22.7134 8.95024 22.4952 8.83181 22.3791 8.62006M23.2452 8.86987L22.3791 8.62006M22.3791 8.62006L22.379 8.61992M22.3791 8.62006L22.379 8.61992M4.4015 1.83833C4.40152 1.83829 4.40154 1.83826 4.40156 1.83822M4.4015 1.83833L4.40156 1.83822" fill="#122940" stroke="#122940" stroke-width="0.15"/>
<path d="M11.6125 8.31274C11.6125 8.66466 11.8981 8.95024 12.25 8.95024C12.6019 8.95024 12.8875 8.66466 12.8875 8.31274V1.56274C12.8875 1.21082 12.6019 0.925244 12.25 0.925244C11.8981 0.925244 11.6125 1.21082 11.6125 1.56274V8.31274Z" fill="#122940" stroke="#122940" stroke-width="0.15"/>
</svg>
